<mxfile host="app.diagrams.net" modified="2022-10-06T16:16:41.605Z" agent="5.0 (Windows NT 10.0; Win64; x64) AppleWebKit/537.36 (KHTML, like Gecko) Chrome/105.0.0.0 Safari/537.36 Edg/105.0.1343.53" etag="lDiamWn1Z_5Whd3JNJJD" version="20.4.0" type="github">
  <diagram id="vFMJvWNZEWGXN7wpi7Sf" name="Page-1">
    <mxGraphModel dx="1046" dy="744" grid="0" gridSize="10" guides="1" tooltips="1" connect="1" arrows="1" fold="1" page="1" pageScale="1" pageWidth="850" pageHeight="1100" math="0" shadow="0">
      <root>
        <mxCell id="0" />
        <mxCell id="1" parent="0" />
        <mxCell id="00VoV6gP4ef_sgZay2wy-9" value="Metadata/Indexes" style="rounded=0;orthogonalLoop=1;jettySize=auto;html=1;exitX=1;exitY=0.75;exitDx=0;exitDy=0;entryX=0;entryY=0.5;entryDx=0;entryDy=0;entryPerimeter=0;" parent="1" source="00VoV6gP4ef_sgZay2wy-2" target="00VoV6gP4ef_sgZay2wy-8" edge="1">
          <mxGeometry relative="1" as="geometry" />
        </mxCell>
        <mxCell id="00VoV6gP4ef_sgZay2wy-13" style="rounded=0;orthogonalLoop=1;jettySize=auto;html=1;exitX=1;exitY=0.25;exitDx=0;exitDy=0;" parent="1" source="00VoV6gP4ef_sgZay2wy-2" target="00VoV6gP4ef_sgZay2wy-6" edge="1">
          <mxGeometry relative="1" as="geometry">
            <mxPoint x="570" y="110" as="targetPoint" />
          </mxGeometry>
        </mxCell>
        <mxCell id="BUz5Cs6KhjB94nJ8huxt-1" value="Documents" style="edgeLabel;html=1;align=center;verticalAlign=middle;resizable=0;points=[];" vertex="1" connectable="0" parent="00VoV6gP4ef_sgZay2wy-13">
          <mxGeometry x="0.2389" relative="1" as="geometry">
            <mxPoint as="offset" />
          </mxGeometry>
        </mxCell>
        <mxCell id="00VoV6gP4ef_sgZay2wy-2" value="" style="shape=image;verticalLabelPosition=bottom;labelBackgroundColor=default;verticalAlign=top;aspect=fixed;imageAspect=0;image=data:image/png,iVBORw0KGgoAAAANSUhEUgAAAX4AAABqCAYAAAC76jrFAAAAAXNSR0IArs4c6QAAAARnQU1BAACxjwv8YQUAAAAJcEhZcwAADsMAAA7DAcdvqGQAAK1WSURBVHhe7Z0HoF1Ftf7X6e2W5KY3Qqih14hU6YhdbIgK2Ovz2Xt5T30+1L9dsYuoiEoRRFCaIL333iFAern19HP+32/2WTc7NwEiiM/IXcnc3aasWbPmW2tmz56T2Hbbbds2TuM0TuM0Tv+2lEgkOmcRJTvHcRqncRqncfo3pXa7HYLTOPCP0ziN0zg9R8jBP1FvN9sta1qjMWzFVNqs0lBomY3Uze5+yOzO+6y1dJVZvWnJlg8XdGzr+cY6SUQ1FFpPYvcYGjWbzXBMpdPWbrUskVT8KVPM5s40e97OZqWcWS5l7aaelbLWVJ61WtuyWaUNuTQspbNUOIeSukpIbMlwL/F07S5y78i+3cki4W3BUXw0CDpVS4ZSMgqjfKguVh4xG6rbsu/80qbUdC+rWC1S6Kj6VHSeL3Sp3du2pDpk0/7rvSYFsVYmF+pAng3Fq1vNuupp6//x6VZ8ZJllyFtqZOmENUZGLJ1UqfmiNYeGLdXVY43hYUuXCuJR8Qj5rNnWW5ntsJ3ZZJXXlbSGbg0ns+I9Yb2KkhwyW3jct21OqIEk2yaQXgUhaJSZR15BeFBbNZJtS2+1pdlWm5vNnmHWU1SbKVJT8Stmtx5/gs0aalupXLMcdatXlCxhdcluaaNhs97xVrMZE6ydT1pFAs5IuOmW9H64aoMn/M66Vw1Zo3/Q0r19ZoNl1aVkQ0rXNWeO2ayZNnTTDZYcHrJiQXpSL4tN8ZVO2SrVecI+Cyy5846qr2SRljSpA3zXqta87CqrXHGLlYbVHgkJo9GWLFJWn1Cy2+srbdcPvS9qVOp/zyO27PyLFKdqU+arngftI51UBXLKN0W+kUjWkMogJMiAME7PBdpuO/WvGCWGy0PtnNofHQHcbeFSu++MP9n1Z59vjWX91lg1iHUIHTiTTFtKCkNoAfwbMbXVN9bpE2PIgT8pEOGckMkIQnu7bLnA4LCj32jzXvxCdfJpyqwloG1ZujtvQ5Wq5fMZwRbdNVaKCm0jO50i7mcM/NRBgfwC5sXuA/wBE6PLgMWOiwC7UNsGL7jc/vKZr1p20XKr1UdCPVMCdgxTU8Bt9ZZ1JTI2PKlkr/r9DwSgmyiTTDAo5AnVWzXLD9Tsond/1lZfcbM1ykOWzSSt1hSYZrOWl87Uqg2r1GrW3dUrB6MhvtrBsLSTTcurnMF63Qpz59r8Q15gW7xwP8vttqO1ZVDLKqVIBZdX7ZeHvMJ6l6+2Zk0GK4B82urVmmVVyXxWPGdTVlU+bbUR9jmZ0XOdVHJpG9D1jO23tX1efYRN3n8vtV+38uy3M7/0NVt18Q3WValLJAJm8ZxSO7ZzOWv19NhrPv0RSx32ArMJeZk3ilV7VmUxHl9qP3rJkdbXL8MmUeYkr7oMfjOXt6Xi7Yhjj7GpM2fYd7/yFZshPpMygJZQfZVHMpexZTIum7/kUDvovz4lY5oP9VGpJjslg1y1iz/3BXvwD+db70hDRqPHqlXxl0jZChnn9K5b2Ju/93UZsJI9esHF9qsvfdXecPhLrC2+zr3iEtv60P3tBR94j1l3SY0uh6XTUKOOAa0X7qF7T1P/xmmjo7HAn8wKAFJNwcJA2+7/3kl26js+Yld97zdWuneZTVtatU3qOZuXKNosK1hfPWm9NXlhQpWuskBhIw69wy2b8CRhcjUpTzgVjpMqCZvWyNiMVi48Kzy2ymYtGbLLvvJ9O+Flb7Dyb86UpybjKNCxWsUKAq2ATUiYURJDgaau2mn1uWT494w6HR23EwB9aLRfc79zIFDKKC8eiaOQ7LGbbrfWkpVWqjZtQi1pE1pJK2nEVyzXbUo7Z7nhmqUHq9YaGLHWo4sig8H4UMemnAHABGC3VNYyFenRkAye0nbrWY/qnZcBTA0OWWG4bJOkMymNHLv7yzZxsG6bCtDS8pjzgxW1RdUatz9gN/3iNLvoKz+01oVXWmKkaUU8c3iVcWiu7LcelTGpkbTJapeJ4nmqZDpZMkUni8qzd7BhU4YF8pWUzW0Xrbhs0HqWDtmMgZYNXHqznf35r9ld3/yp2Qp556Wi7bjtNlZfuTrUN6tQqDWtAP/lhtUWLrFldz4gAdJukqXqDfDb0IitvOFWy61WOytMqqcsuWrEJlQTli43raX4Uw8+wGzfPS0h0O9uZawozx2dK2iEhd71DtbszgsuNauqbvLmyTaZUjk0pup970XX2ETJq6Q2yssoZYfrNjH00bJttZVGRwWB+vIhO+v4n9vum21tl/zpHLvi7HNtxxmb2mWnnGn9V1yrtkJwOnRCpBAqIFiA6Nk4PXcpmU5pGNpfs9uO+55d+qOTrH7LgzZjRB1XSt0thSuN1C2noXB6uGLpio5SxIzudcuH7BasbKyhS6Gn/cQhqzoDBHl5q9Sd6y71oF51/14B+exW2iYLxGYNVOykT/6XXfYReW8DQ+q8bcUQKI5CsoN8B+j/UX1OHdm7MCGU1gF9P3qpa4E+xJSDvPlld91v2VrDJqbzVlSirlbKSu2U9SSz1u4fDHXvloeflBf64O13RMCvktIaHmYynfGKZIVxy4fQtmyjZYlyxTL1hmU1giwoSZc83KnFgpXEREHPk+WyRpOrbUq6aFPzJR3zNiddsqnSt6WXXG2nyBO3628RMDKdyPiCfJoCUYGhjFNqpGJFGZduecEFld8eqSrPukYnOd3LWHZEhkmj1W4ZhMntrE2TwzK90rb8I8vs7tP/bHd8QfmLj3nP38P68kXVOWET1A9IOyldsB6lmyF+Hrv97o5wm9ieSMi5Lrv7qhtsQjsTQpf6QY/K7ct2BSPYx5TSlpuaTe61udvPt4aM34RU0XqTBSuoOl0C9N6G+Jbu2OPLOqjcIc7vftjyq8qWk5EraXSYrtWDXEsJ9bdiyXbbSyMWpoTuf9j6H3rMDnn/B61Lo7QdttjaetNZe9XBh9sDN6ut4FXtzIFso+bnKh7G6blKSRuo2n3H/8yu/MUpNmH5iG1R6LP06uHQyXLtyItNNJmrVqdWBy5KGTO6n9CwOkwNbaShrZGOT9+sLzDtwbRONptda6qHlyMpeU2Dq1ba7L6Jllixyub3TLS7/3yenfqu95utGmSiX6JthikRcDHMPYwB5WdCcbD34PfIP+rkUVGAfrzI8Iw/AvzhRUssLVBpNdSWum5X5d3XopCSx9iVzStkLSUQf/g2gYkAHdAheSiTk07I6tCVzlhvLmfFdNpalYqlFEGwbCMjw7ayf6UlmKrozlsmn7O0PF2Attzfb9XhYRkMebUC8jkaPSQeWWQX/+QXMqRy3wW6lmqF908J8Yf8E+mURFyzcnlEYVgDKsURn+2sypXH3ZSOoto9Akr4qq9aZX2KsnX3BMtrhHP1H8601mWXmc2ebXNnzbTKoPKQMWoNDcugyDDJqy/JsDx0o4wPxrzRiGRIpXX/vitvkFFrW078tuQMZWQ4GjKONcly7u47mqyoXPWW7XLo/rZ09WpL4gxIRhmlTyn/rEYrE1X31jXXSXa62axJW8SzdHLpxVfK29eIUUY3p1FAUvVnKmtYMsqXSpbfdSd5/KqV7vd0dZvdfIvNmDbdFj3+uG2z4442ojoU1AaBWTz8wDR/OdJY4/RcpPiKHih56/E/tXN/eKLNspxNSWStumq1vBspobw66TWzE+pMCWtLcxPJtpy+utWq8lY2ZlKHaCWfPJTrZfXxejhngpz6c93QP+aoe3t7bfmSpfK2MtaWzGY2JC95YNd97TtmQwLI4B0rjf4y3+7oi/ijrvjMaH3deOw94C8UOzYi1/c/aKsWPhZAviHgSaeTlhNgYOhQkmCrZOAqAlYM2YoHHxHoderUFADrrM413qeAsTpStiqevDzUtgxFSR5+q2NAu/sm2LDAuT/VtEfrgzZUSFqrkLGqwL6uOKWugsqsW/+KpZaUkSjJ07//b1eaYWx44ax4jUYtgH1F5zWBnoaqls5mrNDTZbmJE6xaTNuiRtkWmwxCVy7M7a8WPzXFLxVlbNTmtYHVlpVBmlHssvMF/iaHZsc9drWmcDQlkM1K4ZmMS6tOeVWwunJ1kFOQJADNCERGqawAiCc1GmrKgPFeZEi8tVXuDgfuLWBWfPEz+5D9LN1TsirGSqOBrAwpaXhHlpN+3HbNtcpbGclQhjc/MiB3XnmdRlot6xWPtAMhI1nVNeTYZLutzSYI7HlT/7ydbVlt2P525aU2YfZMO+SNR9kd999rZ/7tr7b5ztur8Wh91wHlrTBWDcbpuUVx8E/edMZfbKqGwsVaM3hf6aI8rp6crW5XbECeVlmgV1GHLavjKJqULmGpXMrq6sg1GYKNMgjQgO8nC8ksnmMrhERGnmo+E0JKgJKRx4V3l5fHhXcJ0M3Kdlv73kV2xx/ON7tagCWMAHTx+vH/w4WMSGQ6eA1MZ3zmRJNEXTyiqIt7hxeN6e2hVBRg0VLLaNSWU13KAtdKW6GJoRNMKCRymfAikhVfXfLQWyv6OwZNzrXAK5DkElYFZORpM0Ut2QL0vBDPyPOuK/9KXWCtKEtaMhabTLXFfVl7uNiyxSkBvXQrLSCrtJs2LJn0TOuTTIvWFjhPFAg+ftX1Ea/ip6E2ywhEkyW50+LH5N03Uwnr1yjgUQH6okTD+qd22/Lp3fZwyaxfOjxSFGCKx7LqJjNu6ZIMWz5t9cqQPXTb7WZLl1j28AOtNaUn5JeX4avUq3J4ktaQg1PIZ+2uy2WAGpJa4EPwfO2tNkVOEkZtRPlW6RcayQymNVKY2mddu8njZ4UUspkxxaZtv7WtVtmDMq5VyacsAdaZZ5dsHrz7LskTRZG8aaeBEVt638OWk9LUZUgGhoeCoVtd1cimK2O7vvQwRdLIM6lGKCXt4z/5tl236EG7efFCO/faK+y0666wQ9/5JsvImIW3+dICjRlCiN4rBSWMhXF6rlIytUzDYGlJSd7OxJ5eOTU1G5F31ZIHmFRnSKlTQ3hcdXUGOncqJ+MgjyspL2TjDBpKy8N7suCeb0UgRKgKYOKhoiF+W+CUkTcpU2hlyXFWpju8XDzzf78ZlgvKXoaplngXY+qDBZ3PlLwbx8NTkkcSji2//U5rrx60vMAtJTBMMz0jT1fNG2hkZETectWaAqaCEpYfW2L28OMC/+HRspvymKMXhvqPrsgDR3aJpgzrcNW68wJq6dVq5TV5i83thT//sb39sgvtzZefbzsc8SIb6c3bQL0S3m9KlMFQjAwP2+TuHivI67336hsjS6U8h/WsroLwsJn9aQmMm3U5H7WG9U2fbq9411vsmD+fYUdffI698fSTrDVjkpVlpOvoqfiqy2MfEh+tRtMKyq+5ctDsUdVn281sWa6p0cFwmMqrasSS1WhlRCO+nmLRHrjhFlluMUGhyuO+q2+w3EgjrHJjIXSorwykTeiy/OxpZhN7sfkCeBhv2eydtrNKIS1nQ/xKvowWU9LBtEZJ/YsWmz2mIMchLKN+fKlVlq+SWZGO6nkxl7e+CRPDaGJADpftvXtQqGY6q/pULb9gR/vwr06w137wfXboW99knz31JNv7PW8PS4zDSwn+S7boYKQxca0Zp+ciudefLFWaTEeGOdmWOjkAn5aHxfxlUqOAZLVhWSlMUcqWkXcLODA1kJDHm1QH3yiDOrEPo58oNNTxIACRuX6OdPIw989QXfJJtZJhqSL3icOyvq6qvLoHF5ldeUNYtZGtytME6MEBYUda5eMvJ5giiZGXuyHkXZcO7YaFECflFo54pnyDQIJQBvUSHw9ce6NNzRetPlwOUw+898iJMznOsvLRvDLTNkl5o7znYdXPwKXXqEDBkgAfQMnLKQg8MyqSXJhWATyZLsk25TgIvJM1pU8VbQXTJJMmyVNV7bsztvl/f9RSm8+0gVrVSum84qldFL87mxdqRgsI2qyNZ0VUWf66+ChXa0pesHSFqZh0KKM3W7JVq1bLqxYfE5W2pPgzeuzFbzvWBgTM2VxBBkJH1SerNsynNYpRvn3tjNrpYfFes91ffqile7sDtvP+YahStrYcn4aOi265U+0o+ckgMa11zYUXWVFGh6mesMRZeQ4MDtuyZtkOetORCF5tofu0suS47Ztep9GARplKUxAPePK8P+Hld4/qtuL6myV7yVxyuv70P9lMAX1D9UW/CgmNakZqltFIZPoO88MLY8tkxY5GjHxjkVfrT5lgtmBnS+y5m9ncWWYasTN6CWv80QrUgOanmXQtKXfCOD2XKcnqFuYzAXIIRU605MPqkjXKHrgOw9EOMW/oALTRBdVjLFD+PYR3GhE9SqFDSYCmqQ6ujnzTX/4aPvRJJDOhrGqdtXsidchWVQgzhpgeIUB4vk9JtEUnjLKzPpIRD0FEvZlNlltr/Y8tslb/SHjxGAyS/qXayQCSrNIhBTqBYUmrwiytXP7gQsVVfIF8UoAfcu3UX0liclEZLA5IZmVAChpWpm1Qnnl4KanRoiyGFK1tk7fbPJouEz95ySXJlIo8+nalbqVkzhY/+KhkKPCXgeoRIKbzBRseGAr5AsaZRMYKGA0B6gjWNK9yuxQmlcz2e77lJvXKhjTCqKCmPNU8AawxHhkZj+HVQ4qftzm772L9AvmkjEIDx0D1C568jGEW43PjrVHlHnjIUjKGOeXDAgcMf7sueQhoM9Nk1GZOUUeRxHQrtArffEzsttLs6WHU0ZJs5UKEl8HFthwHgfojt9wefTA5WLFld94djA1OBu8b6iMaXYrvqvRiuxfspfyUp6oX6i8KL4QZkWMA8PKZXkrKWOh+YMGJi84NmeIQQkbj9JylZJEOJ8VqqQPjvWXUSfFI0vKmglejkFJgCsBVRZfhmvsbY4B3HUJffjohfKGbalhdIeSE7BQkshD4CGjpA/Im8XKrlTDNwEdBq5nPBVTk1dYFKoyeCAB9ozPCgACev4s6nZpUHlhWGgjQ7xiUAEYsM1q0zIaXrpCXrdGdKtRU2Rn0gKWRumZ6DxmRqq30GKSc9OLBu+5lzm+0PI4R7vMnnATZhMdKR52a0iXWxPTXKroncEopAnPguYRNm7eJ5QryyDWyzLKaR+U7D1XJJ61RpgmkTQA7IkBMydtFXoA3hgbiHUJD8m1klbeil5OSMbg4qSdMIw2r3JyMT1r5JwWKDXnhDZWXVn3xfPmSdsLzdrV0T68GM3nhdsZSkj9yychgdGtEvOpvV6hSabvj0ivCajaK5jnOECOqmuQzbdutzDaZGYTPl9yMDowpoIldNnf3nayhcpBHyFfMM4pOyeA9eN1N0hFZ3seX2WIBf5UP1AB40itOW0agXcjbzINfEHVG5Y+NY90O5UeWWTd514Le6B46Hpw0AswSOtd+e5yeuwTOJ5lLpNPyQquFFxM0KSI8gzAs7KwQQBWltzHizsYYQv8JnePpBIh3HQSu6WjkGOWsOJLajZdfpgfqoniAAiDK5YUxyfE8WUEDwIepI3mGHAE1CG9zg6jDS+jYojXlr+ETv9zvhxM1d+3+h4NxzwlIMfpN5pg5MpWXz8qg8alSxFtTGTG1ANgufXxR8EwB4tGyY9RSXAxgQwJJygMNL9EVsvlcqG8wQIATpPyaZY2CVGcMC9tApAT0bZ23BHZVea9ztt5C8eTRir/KCLPmqoD0tC3jwVw576HCijOF8EW1nrMSKWzpwDspQFr5ZTTKcL0Fk4HumvKZvMkmUWNoNLH17rvasJ4zqsD4gLE4PhM0Ynv4uptlUVr2wJXXW0Zya0keZEd7tTMp629Wbet9FiiyRhqhryAfBc5Vj+3239MGJXheRvuoLjhZYmp44WKzxSvMZFRZHcaHYvVkUyOVmmxe0eqSW9fcOWabzlDdVTcsrdIySkMc1AtjGxiCdC+EseTPRU8UZZz+fSlMycYo2dTQlZdUzNHSmerMf+OtgVcKVfW7Gud6jpLRr1BtPC73cDe2AO/Ug370dANEHtGoSN6bjgBG+MJTYbMpU81Wrgoef04ylY8flneHKTLxANEY3iCArIPCBlMnOjms1ZE7/EGchktGAESSQ/zIbXeH8li1ExEAn7SyKpTq67URGTQAHwMURjfin69Q61UZiPAFr5LEPQAKYNSjQ5OVSwq1jExOQd6qjvV61fJ4+zgZ8rZtlbxaAenyO+8L+/nwcrnarocli6yAqsk7HigkbMp28qJZTqq0vd1dVpf3XmtVrSoQZXVMU6AK+Ae9rMqIVFuW5wtpXsauXG2TlSan0UtN6UY6I69QRiFrK9RgiR23UULFl3HZ5ZAD7fHqcPDeMXq0MdN2vLpfKUNp9z9uA7ffZ1ll7WDL6py6eK8UUjZ7LwE/4pRBSeJEqQ8FL1wWpHvBLtaeULQmK4pUHLLFdGTTmfBhoF15nZUvv9p6KTctQyvgb0r2FeWxUnxuyr5QGDlGSqLIuOlEgdNRGnvuTRQ7rqUn4/ScpSQv41rS5BZoJEVrybvC68fTBwxqAoiGHoXOJWBjHngtZdtIiakMgPrpBOrPhnUJhCI5ARRBfh3KCDCSA4N26/8cZwt/dKLZQ3jKVUvzMdCIOnoFr7nj6Ur+DQEi3uPfDfxQpzPTJOtrFox5oM5cvlWa9uDtdwVvOKQRrzkBEG8VKhLKpM3mWGpCT1jBmGQ6RJGoJvzxZeoDN90mxOvAR4xd5Alk4vEzEirzTiOjOyx5HBqQ5yz5DOneCMgphLzlHuu/60FLVllMwPJJ6aE4wgmpCHVXZJo2e8H2YQ4evUyIEb45yDJl0qrLi5exaNStUiuHmZ0eBq4VMTGkkxEZhnMvDF+cZ5RfWx56IZuJPvxSffmmoLTFXLO5s8Wj8kfuAueR7pytUH44Pmrl8M6BpbplNin843lmj60Q8NNO4kW8BiOiPKeQ12YaPQD2oqAWCrBE3+Gl7LwdtrGKRgd4/YA+9zG+hZrqeuEldvdlAn7pFhNQ5M3KuX6NWvqzCdt6vz2DEUnISLV8gzryJagc2ZKIKDd2PzSwk67jl+P03CbhWDRU9rlTVr0wDwnhGXMahpIiOndaehemGjdyLQKoqd/TCfSsjLz8TDOtTppWJ2ZDMI4YBgsf53QLdB7966V29bd+bCe/6Cg75aBX28Nf/bHZdXcE8LVV/YEPXuQRnhaJF5qBABR34DjQ6JSCx+CgthVa2sJ7HwibmTHaSIhXPM9qs2FNgeMWu+5km263dQQ+ik4+mVTW+EK1pLrefeX1QrOoYOxIABgOusYERl6BUicbVm9ULKVyeiSbyUwPsT/NlTeZXXGzPXLiKZZavMIKZCIAB/DafCEuT5fpky32XWDZPeXpyvNnOMXXvbxQ7c6wXkY6KgBt1WsB9LtVZP3+x8wuvtrsvKvMzrrErvzNHyy1fMByfAEro9edK4QX2eh6TqOaA456dbTCCIOE4GZNtdm77WDD8ribzKt3RmJtAa1Mg938x/OtT6OUvGSITNADvPIhjVR23uv5Gh4IfgF19SMnTCsjJYD4+QfuH76XQEfoT3xhzCIKtgVZfOtdNvTgo9bVUL0aEoj49PcWPZvOMdtJBpB+qnvSsCDjBqMqAD4Sd0S6xqBEjhptwYNOwCDrH0k8jNNzl5LM7aMkKLjPLaPYof92lGYdkJdnAnBiFDw8OTH3Gw9r0nlayogHp7FxNyQ4re/ZmgC06RgLTmPvrxvcy9d5Jy9ejjsx1VOUd8ZmZdPk5PatGLGigOmOk8+0n7/h7XbSK99gt/76VBvmA6XV5bD6J8nHUax8Efg15C3Hy1tDa3dkjnjZhA5HRNIzAn8kS4FI6OTEx1usVq28eJmMPHPqCrrN8suwFLMgr3iHrWzGjlvLK1XJqmCmlbIiX6jK803Le190191Clk5eIupPeRwjjkIyK+RLYYUQDgVbOFQWLbZz//cr9ot3vMdOetf77YY/nBNtjqa4lM1umrwArXTnrX9C3g5++9FmU3qsxQtyZYpx4gUz3xVk0VndJy1f5dY0urryrHPs9E98wU58/yft9x//bxu65+GwB1EBo1yr2YhkulIjq0pfj5W238pmv/blEo7kHRRdQZltsefuxsdhUV0iyfMV+4Rily28586QHy9lw+hJ1BYfq2X+Zu+yA1dBDk3JKHqqc/EaZC+jldpjN1slYdcxWIoR5KZ8mCqsDei5DGRaxiYl8Mf5KsvQprpLNmn+vLAyiIzCiislbNebweiGcsinQ1yPtgE3nBTHeeJJLMk4PUcpGTwseSJMwdYbZVP/kj7WoqChZkYAQWBNd4MpiYw8FqXhy9VGW4mSvCCU38XeDnI1wlJQeXdhvby0jeDep79DwLsMw13SK12ytSYkmnwAFIWQpzouTLXV6Ql4SoSa3CbStxJ61gnwwfQEqzfi8+feEfC0ohDNYfMFZKsTVCAxopgxEAfECPF3BMHbyjGPzfsQvFUFyStpNeXLt7karquDs5yvLV5Zu8+mW/kVQzZXOD/h9odt4bd+ame+6q32p4NeYYu++C2zG+40WzkkFBAA0BiiCFo7RFXW9N41pHt45owZSBXqSYBv3c8qL9qOzR0Dyl9zrU2GHzVMVe0LKNeGy1bq7bHlDZW/y+bWvcOmYbqF6IVUzmpDI9bTlbdqecDaA8vMFt6nzPVQwCYXIfCAh4p320DuTBU25Jmni2qzbJjOmpTLWn5wwKaPlG3aSNWmC1DZHqQo4A7vBMT5Kg0nV82ZYEf96GtykXcJINzKFpS5ZChdaFRZwdMMAf0qpXNWGRmygnSyT/VMLl9lU4Zb1jPSst6kQFq6OTxUtsKEPusXXytlVCYdvr8d9LX/DvvptAopyUXMF6X0qYZtuf9e4UtZ9CZ8vcz0ioTYFL993X2hHugGBhbZVDVaKvDidb99lT5rbRnuNP1Dz5mwYRCQwEh2TTCbPtWmazRVll605RSEFUxSrKxkVq6OaJgo7ZHRyEp2fKNQKvXakqEB252vdVMyfpJXJkxLSbel69Ly0OaB1ASO5ugAIRgcqHMf4t5az8bpOUtJAEKqL0KhdYYHJBDUaDtMB9SrlaDw7OWSVuclflmAQRo6SB0vSkNuvLawt40AAbWvA+6duWsC2Urdw6iCJaOkDfqq+6wswTi4p096yqLjMedb6yx3jOeXL6iLKC/mqvmylncTwcAoX/Z0YT40pU6iEoMxIk20zE7lymsiAJhunCBWlOh2IAd8pyCWEJj9VRp1YPVFRZL3hbfMVIkACZ5ZDtmSV8ZceE7dsztTsG4BUVH9Fy934nDN+pYO2Zz+mhUeXmrX/OYP9tN3fcB++rZ321W//p1VlyxXGZFnFljo8AdxCrCP3uKkcxFjN7rNDZ1keAHKidpn9f33W5dkwX40CfGO7PjqlpeOGT4Qmj7RErtsb3XJt6l68J6nLpCFSkKyEktSH1moesu8SdZhPJGMDD4y1oXklrSBoWFrSFlYrVOWDiUln1JDBkDt0VWVo1GpW1/vhPCFcFh1o5Tb7LC9HfGFz5ntuC3ZSM8UD09EoIrO8FEZX13TYPBck7xriqOCLSeAnSRAnJwu2ORk0XIYioqGW6LBssro6rJXH3O07fmB92kk0ReMFnpG/arNmoyMYHT2TJs+b1MZdt5rRVMyTrQ95LrCkV4wnf1z+C5Bhof9eCLCxRHvtEhSzzh2FW3+vs+Xs5AMW2NAQZ/EBcakqQxpryj/pA2xvffkSda96czooyx0W/8x5uHLc8UiBNJ9P/h93lKQj4fOW4tOGE0yTs9RSrL0juCAx6qUoJBSNLyXMP2jG3Rqhq5QRlahWGC9s0C4SeeSp1JQx5RHlWYlh7yobKkQvoLkpVTwvJWeaQe+bs0LlPkyMVqLDJAD6AJO5ZdgNYj0vNqqhFBXp+RHXxLqHPT5jHjhhV1loF/AWpGzlrQudTxhlEYu8rjFY8QnIET+nSB8IKTlPWbl/uY0OsngSWpkkWrhgSlzprAE1DJzEaApJAUgKY1EmM/PNqJ0hHyFLYblUSsOc/Rsb9EG8ClZAMd3EOmycpMHmpGXn6hKfgzV5aVmunttWDJpyINLFEoCmJQNyate8thie+iue+1ePhhSFfAqO9WISG0UvPlOULWift1pO665hOIdmxVbAZIEznfdeIt45svaaDkhhrUt+Q1ISL28oAQAZ0yxdl+3rdJIaFgZsnoGjz4nSOFl5PKbbwuyQmdCOVSL9hX4JgNC6ljIRVsZCLgBxJzqTbMkJJeUjCAjPkZDbH1RH6mFF8x3Xn+T3faLk6LljUJdtoqQ461ErbBNhhtvRptl6ciQBJQQv9S5pVENU2V8/MU0UIsXu3oyafLEsAncsqWL7aqL/2qNS68wG64oT7zmSF4Y/GDFe0q21fN2sZXtameePApO9A2nhtLwLmDHffcM00RkFrY50T+gPiMeWQih/1RaN8y23HtPjWCkMRneTPBgDblBgTA4w7qx6fYygDJGCDn0IZ4hAx1j0cdpnP5uGtU+xxhXdjoZyhi8ZHmvRExJ2YNBkMIPDGjYL2XMCeBT6uSDAt0l1bItUZdeqSH0IoH/Y/mELe7O2LIJBVuisKgnZ4+W0vZwKWEPZVv2kEbxC3vStrgvb4snF+zxCWlbWEraQo1oFxeStrwoz1GGpNqVs4aMSlNeaFWedkWeand3d1iqxwuv4G1rVALP7LEzceJEna/pLMHrxw/qeOtgU1ih0zkPWCUK7y2i00CA/5quDilF6Mnq+AIaAD4Q6CQQY4SBL8YH+/kUG3nhTYq/jExcT49Vuou2VMbtfhm0ZZN77LGJeatvNtP2PuZ19oGTT7RPn3eOHfn5z9n2Bx4Q5RtnRkQrRF9lwleMNyoVI2/UcOQZ+RBZ3vEjd98jA9gBaT3MFktWkZwqkut2C3an4RXaNnOLzW1IiXh5mSnJOEm+7WozTFkFwyTii9wAQ1RffwA8tn8gLrqDNw9gZ/hVL4VhxVsueQzIcWiUumxVtWZdMoJ83ctLZrYsvuGCi+28z34x2heIeTXaUCMGdJKPwVrijdFkFQMvg5DPy9nIZsK6/JoMzYiMVFkhKV3BM161apVVZVRnTZpoi+64y37/9e/YAz/7FZ6F9DoadaYZVQQlENgeuK8N5TTKUdGM+ABh3uHwVbaDM6OEEcVNT+y1vj0kM0ZU0gF+qgVCt1IyLFAwcHzDoDi26RzrnjZVvOVDk4S+FmKtIcrE6NSl9zvss4cMMdM70TNEQf9bWyfHaZz+fkpc3rND5Mc4+qG+OgUqWw0NhcMUirwYASrgxhxoXZ0vnysqZiLsONgAjOX1lNOJ4IXhJc5fsLNlerusR4reN32q9U6abIXurjCsD9MhYapEEdFqAdLI4FDY475/xSqrDQ7bysVLbXjZclvxyOM2vGS5JYerVhRXJQ37+SGVPPO97J8iKgmY+MrTN1MD8BmphLXqjFgUn3tuCAApRhpQMHKdDjgW+EPMtW7AL2mUlvcCzDVLFsw3kwnTQCGOOidfXCYyGWsp8PHOChnGeilrk7bYxPq23sx2e+nBlttUHvaMaUpCOgpSCF6y3MdwKyovkHjEzGiQMUoONbFYuhddOdsBM+q42uL5oWX2y31fZZsyCmkMB5BOFYr2eLli5Zl99toff8tswZaogA1952Q7//if62TYppe6ran2YY+epgBs+ZxJdsSVZ1utFwCT8R+s2Q1v+qCtvvRaefOKIy++K99rjQpGuRnWu1eSNUvL+16iPHhXU9TIoaA2zAz229TuHnGdsSGN7urdObuj0m+7vvl1tsenPmQmoy8LYWc9/6U2ddEq2QKBfrthqXz07oCR46qRYRss5qwgHat0ppG6ay3rS+dlTMo2zHJSOQMYt0dWr7ahGX127E9V1713C+8+mNICphMjGr2uHLHfv/L11vPQcutRXugEgM9KNnQBXeHbllWKP/kFe9jeJyqfkgYbMmYyBWGVEVNo6ACjiAGNiPMpjS5qVUtWk3b7p79qd/7ujzaplrCcZBGErbZxPcOoD2r0uFSyfdOvf2y26+YyarwvKFiT9wUyauhB4DekGKdxemraZpttpJJrNCZxRfcObVbaoNBOKHpTnadQ4Aeb09ZQB+PDGj6a4avKlO4PSfvY+TDTXbLJc2fZpjttZ5vsuoOZQM2mTDKTxxLmZkAmdYCOM9TRVhXA3Gy4zwMpNIoPGAOiKLiMTogMYwzNH11izTvutPtuu9NWPPSIPS7vzUbKwVPMJTXcVxqG+Kw178oVrDosoCIHVTZ88NIhgB6P1oEfCuDvgMnzcBKHU+UTu46AH6CPqhPkpYR84cwkEy9Gh5V/WSCZmTTBZm0/37bZ63k2BflsLrDvFVKwdWcBT1MJGBUo+6QMa0RRWQ7iEDWAYzq91wbgJ0bgoXN0vkfrIUqwXYLk2PrrVfbbYz5sc0aalpEhIqdELh+APzlvpr38F8ebbTY1aoPTL7Lzv/Y9G1q2zCZrVJDkZxSlB7y/uK+YsNdfeKrZtnODIUr3l+2mN3/UVl1yjWRRC+2QrgtMUzIM4mOYKcEp3XbIJ/5Thm6yEmTtgXMvsdv+fL61HnjQpmcK4j9lQ2WNEISwiZlT7QGV8Z6TfmK2wxbhY68zdj3UpjwquM0wRYTgo+lHpogqpbzNPXRf2/TwQ2Q4JVt58jd8/+d298WX2aa9vVZSvOX9S62Q67bihAn2kLie/toX2R7/82njB+RHxF+O0Ro6OVS1Sz/8Kev/0+XWV2b6kaKY3ovaGW98KJu0lfmMHfT+t1nf+95oDdkmfoSedgnAr5OwMZ4cnGEZAbaobtfKliezsy+1H7/7IzavlbWSnKrQqmOAf6X6Tm3bTe2I36j+k0tWV50z7Yw1eG+U1WhJ8QB+15ZxGqenonWA/5LeHYLKoXgBPDrA0dCwG4CvKG7YSzyXsqa8r8KkPsvNnG47HX6oTd5inmXnb8WaukgLAUR5JMGDDdmok/LyEw9c//D0I3TqECUTgucjkkcm7qJzB2Y6EEAUkIxj5x7L/B593FbcfKvdc8Mttvj2e23ksSUBhPgacnKxyxLyKPnoJ3jm4omKh6WXSi+ztA5hYxj8x0ETIKXDh1EQfVTH8BGXAIePgVihxH7zdXmgzBE3JxSt2lMIv740a7v5Vtx1R7O+CQI76qYMkJOMJ0YCEI9qGf1FZBTNy2KWLwaKATmxHPgjFp8c+HnFqNoI0JRKhvyOb/3U7v7eyTZ1sCr8jGRekYHlR0tqXQU77NijbPUEeaeKnrj9Ybv1/EusIgPK1jFht1a1Q1qG+uF8wg75/pet+8UH8CB8iXvLWz9mKy6+UiMgefGqW1ZAlUpkw+hwabtqqybl7E3nn2k2c6KYlRAG23bthz5plStvtNxyjfQGB2zm1OnGttkPDqy2RwtJO/K4z1vPUS+RcFt24hZ72aYD8ualX4xGeQtDO/KGqb8nazu++w226bvfHE2N8CGXRjenvu5Yaz+00DabOMFqGrmwNDMrnX5IhnBg23n2pj/LePXIcLCYQfJOtSQTjRr7T/+L/fWjx9m0YdbdR3It1hgnSu3Een8+aaun9NiRP/2e2c5byhmSTmVzoW3QK1qgrjYkT+4FamEMdVy02n5zxNE2YeEKm6ARRWhV6QW6FY04k7aklLYd3nWUbfGhd6pgjao1yuXdGGoPP+SJgRkH/nHaUFoH+C/t2SGCivA3WskQVjRkNfQWYPfLGyrOmm7b7L3Att1zgSVZxcALJ3ZCZH8U8iKQXEeUEmCqAdwqqDO7PhqFh8y4hHNuxknX0WxM+KPrzrEDjE7hJVuEbAr0Bh35TJ/dFq+63h646jq7+dLLLTE4Yq2hkbCjIh0FQApesjxXYBVAh3y0E12uzRQdMU7Ebco7bGSzYW68Lg84P3Wizd5ma9tqz92tyFpwec8BLVkaBeDL4LUkC6bGqInXirlqzjMCU40f9IyloYBaBDLhISdqGwd+TwuFOIHWGAAHfi4wSvw+Lp669Vftgg98yurnX2cTB6q6r5qJt/7Bsk2YOtUeWbnc8tMm2ZLGcNiVclZDHvCQvNRizsrlshUEqOxEyXuMlb0F2+6Db7PZb36tgFOSVR63HvsRW3LR5QH4SxpFMPRpg1JMdRVkLEpte9sVF8gIyjNm9RPLiM6+2P780f+ynhVDNqG7xx5fstAmlLqtKrktFsBv+4ZX2Lafeb/yyNqP5+5uO6a6AtizdQMLBFj2WtH1Y8Wk7fzhY22r/3iLDJH4YbfLVU279gOftJVX32DpFSvl2Mtr1+iVPfwH8jm7O9u29/zhN2bbz5PjkolWy2CYGzIljy630/Z6pc0YaoTtSjD6ceBfofL6N5lmbzhbhiOrkSYfgolHBqn0LeK1pKNJ6RutgU6zOAF9ZGnqhe/+sJUvui6MKKJWjcqAeH/wWHfaXnPSd8323NEqWBJ+F7tSC+8zNHZTChZJRP1qnMZpQ2gs8Ce7WK3SZB92gYs8i4o8l8VCxEc1BC7tu6sdcdxn7DWn/8K2/+InLPniFwjUppt1S+VkGEDOljyZRrMeFL2ju0HxNT4QuDIHjWLzrKk4UnQ6gIxJQ2n5ADR8BEoCAh0knDKNwvC3HYbMzCMDkSyf49OmMukYPmN4WErXpSBP1TaRZ/2qA2yzL3/YXvnXU+0VJ//AnvfBt1pOHWjV5G5bkU/ZkDpoFQAQgoedGtU14ZJRdBiXCNjaMiI5ySTNBLDisX/LagHRInmhj6jud09K2arnb2VbfOwt9upTj7eXnPNL2/kHX7Lim19pNn9W2G+en94LC7lVFmYuqUqyZFx4E6YN2Nq3i9Uuyp/fpqUTy+cMwBZBgQhhdI6cOrgTiM+1B4/qQAIxygnXjJgU474bb5W4MgF4Wc2DB1mQPJoDIzY9W7TugYrNHG7aTAHSpFrDJstjbQ0OWk8uF97BYMB4RzOs8+suvkxZqm6MqARWgB4/K5jv5qcGm2on5S/ngG8eBisyJq50vFCVjrGka0AAOiz94SXs8qF+6+6daLVGLbxL4AvZ1Wxgxv785C0Di6Fk1MjWyQmVVW+0LJvIWJG1/u5r86JdcUyGuSH+V2nEwuqbpMB+uF4VcLLkVk3EiGrZSqVRfDV+gxEkRFqNYNUsQaZrnINIv4O/oTCNFVDEDe+sFCRLOCBNkLbqi/TxUfwo6xn422LHHUIr4dfg5a9NOF/KZcftpBC8oxKfugfoR09pe0oZp3F6+pRcVa3YiABqsCtn98nbK28yxfZ9zzF27Fm/s0O+e5x1v+pF0vIedQZ6i7y17oLV0wJLaWDY00QGgFUVYSpFGQJIgH2YGhAAtJuCa9ZJaxiN19PCAOhf6EThbwRV3qlCJvQiOjCdJ+SrvMJfOhOB1STRfHpVR0JF8aryYBvsS96lLpgRum6/qc1+9zH2whN/YEedcqId8YVP2aQD9rBFfSUbmTXFlheytlL1qBcLliiWZAQyGqko73zJVimvZcprkQB88aSitbfb1LY/6hV29HeOs/ece7od+asf2XbvOVYddAszPccYNvItG0o3w5xsRXVoiqcAFHInmwzrGZUwtc4Rb0/nfLDDjo/pFotIBR4yBnWWtuo8Gj2tAQZEE3X8CDRC6Nwfpc4FEsbjDCTAtCUrLCNwa6q9efHNvjUYGdbGhzwEohkZwokCGn5oP6FRAgY9L8OQE3ACPOyAWWWpqozuwOIl8kIF+hhfVqwIBFkZX6t3vrVQ+dUan2W1Q9owLw/hWkOqRG6iPHg958d/GH0wBZ5XW0BZBMeXzJ3o6BgfPtVUF1Zu8SI/WuWjhxJUg/l5AXiQF6DOj7cobrHYJfzM6HkrrN5hRRpxo73/lYb0yjdMrTFaQmYydL4jbZwAf0L4tgGjSkMQrSPzMA0YLsmUEN2DRnVbaVgxFK47hJEJgdSM7jgy7cml/sSiBhp7PU7j9PdSsjKtzx4qJe3xuRNsn8+8114mL3m2vGSbN9lsigBNXpl6vmJK3TqdIcxxc8kFit3pfKGjsvtiB7VS0m7WigPYbMSFJw/xoRNztExrcIcs8OYJFWUGNlYEMEyNoP28d2CtPR8wpqryz1UGUzfxIAdS+TH/C4/qXaWSHqgzs8aaEcHWcyzz+pfYPj/8qr35r2fY/PcfYz0v2s9Wz5hkC+t1WykgriVyVhPorxT4LJrWa7lD97S9v/wRe+PpP7OXn/pT2+7zHzE7aB8ZQskGA0P+vAAP2wmrNqm8FXIRcAF+Lho87CRruYP4IkBgzt2GytG7CnnBwSsXUJpGRWHfeEVRqiBK8nEalbnfjD90UiR+xJyywKYw13Dn3eHdB5uO4Y3yFSw/8kG7luW1DzaqtrpeDtNXZfFZ1uiIlVqAVFl8AZaALR/HlVTn8urVZo8+qrKUt9SDlS4N6QdAzMdxJXnqTF+wHJhtDEYqI1woqI4YduXHFFRGBoMf8WdENyyjxIIA1tWnZJAoM1BdRilNC0tEMqD8WBBfJPPSlDjhGwOWTGKEgnwVxCNr+vnOAh1M6Jx98NP8AAqBKTiU2OUXBNu57JxjqxzElcVaYO3JPK4fiY/MqXuUNtyMzqLus14iP88/GB39p/25FbVhFMjCwziN09Ol5MpJJdvrbUfZsaedaJu/7xizmV1mfQIyefh8uMNHVUAwSskZUzZ8uJXghSEfJHEM5+qkEVqpd+o+Py7BhGRDw1XQQ/cSCqzVzupeQkdCSsCQpuMq58gYREqNZ+aGIpA6KVsC8GMcaTp46HmYBg90EDpKp1swDcEwWd5mi6881Yvrumxp1GIz+2zesa+zg7/xZTv2x9+2vd95tCV23NLaO2xuO7zxCDviuM/asX87xw77wddt9huOMNtuc7MJ8vrzKoW5e5gUfxRTU935EhPgCizxSFywFUKyVrbUyEj0spQdtRb128JfnWFnvusj9t97HmBnvvuDNvSHP8sb7zcbRo4CJLm9GaGnyyEmgTXEzfU86GBDaC/AlBe74Y6GZwtvut3yAKjuhCk3UaIzMhnOyRBM6bGBnoItF+Cv0ujv4WTD+nvyNijPkyWphVJ3MGY4umyqVpCxqj7wELmp7avB0IQltCqV+jf5DVl598Ex1n120wxrIqVTctUVEjb86OIA/hgiX2rLOn1ak31weDEctWVHE1Q+038s42SlGT8UnylidFtWHh6SDIckZ5VL0PP6yJDCiECYdNJeGQmWJ7MyiY3ggvHmqzJQ2UVFSfrPLchHVpThwDwqek4Uwn0/BiIXzyGi0WedeGF00AnUkSmf2JsaHSKjH7sTiPP49TiN09Oh5Bt+/l3b4gNvN5soT7XE6g55vPL81B1EUkV1GKZu+Pge1UShW0zd6Mh2BaGTMY2B10rgxdqIrsscFQY7YUXVbKXS9XOt5wM6H1EpTHmwVXG5Km++KpBkMzCAD+BqBY+OFRJMfzAc5n1h9F4g8qhDv3HyGwq1SjV4m5wz5cH0AJ706HCete0ljRV2nW9bfvLd9sozfmyH/+knNuO/3232yn0lD4GCjB89jxezbXn17BvTZNoC71JZ1+VBA2pMIcDtUHXIKrWRICuAR/YxYvb62+3e//qm/emlx9iNH/+6TfjLDXbgsEzdedfYKe/9tP3hFUfbQ1/9gdmt90kWykmssdqTdwLBc+zUCQIMCCpkLeIxxfGM81RC3jBbI3NDgPnIrXdYQWDLb84CnGzBwZe1KxtlK8ybZbMOeL5NPWgvKzx/R8vvubNNPWw/m7b/XjbS223L8PSVDVMnTNsk1ea99aatuJNf5FKp+s/3DIy4MvKm2diNPWiYJgLQhyvDkpMYZsoJ7nAYBqu29NpbLTE0onZi+ggnXV664rNNeFlxU10aceo+UzdtGVhGkHnagWGFjNZQs2IrRvqt2qpaCcPCh3KMnAYGzW640fqXLJKBqAbnJSEPPyxbVvm1Vt36Ve+wQCFsqKM00f+IfDoqRj4dA0UjgTWE3ElB/mPJ9ZQ4Y9ssfrlWSnRUxF9xF3n8kBJwL3o6TuP09CnRHqxEbxbl6VWluJVWzQrJnLXKZXVcGQPe2qljsqtjWIaH1tfqNnzNTTa8YoUtX7TEVi1bboMrVtnAin7rX7bCRvoHrTpSDkNx9uFh5Q0dGtDo7ZtoxZ5uy09Q6Omy3qmTbdKs6QozrThnptmMGUIAdeAw3CWIN6aZ4JFrektH8+OdJfL0N5BIiNcLgPCCDgq9UF6WjA7GJgto6SZLUfFIiUDnxZsGXPhhkZBEf9gviGzCwBx5jWioozhLzznfLv3DWbbq9vts0kjT+qpJ6xoUhPIlKvF5X6K6rhDCPyK0H5rUZfMO3tee98oX25zn7baGNyeBSAB9lcSTUL4IOIt4i6rGfcTVrJYDANvjq+yMl73ZuhYus14ZqtrgYKhHq5iz5SrjiPe/y5KvfYVGej1KrJzJgKWNS1fbg1893m4/5wLrltFoD4+EH0Tpl25U0imbctDzbbcTv6JCk3bVUR+ywcuutxKALa+6whYKipOQXo1kNQrYbLod/P1vms2ZEzhcecJv7Ypfn2y5hx6zCZIl72iYz2a3yoYAfJEs3o5Hv9bmf/a9ip62X2+9r21VVgzlyTsB9qdkCokXvDa9z57/liOtdNRrwvy8LVlp13zpq3bfxVfYZJVWxCgFB0Zpdb5EhuCRSTl7/+9/odHcfKWJRpDIrqVnrGY6eZsDbNP+WgBuZBtaogPIyzTKyBywwF70w2+EqdCmRkQ8YcyH0ZekOudMfUkrVDdedmvsKd1o2L3fPcHu/sYJNnVYIxDJmncblM1YkS1EHpqQttffdZ41ujLiG2dFj2gTb/BxGqe/k9ZZztmuy02XYvIDDyhoGFSHJZLSNqZs+LHp+x+x+q132QM33WIP3Ha7LX/kEem74tVrYXM0UmXTUlo+UxdQ4p3xmT73+f1U32QNIMsV8mE+dmRoMNgR9mthmiRMc8srS8gzb8l723Sb+TZjy81tzm47m227ldmUCdEKHlxgplk0XIfvqMNERAeNUwMPUx03i6cvWlPtyAvjOff4ghWewyoYNtXipgJxouG3d8w1ebR4GYqbygPkhRdb1cUtd9viiy+zy045w1Is32MTMqYXZDx5ecoHR92qY0JGh9UvqzWa6ReQDE7stpGZfbb9yw+3/d9xbKgrLxEpfdSRHAV+h/6IgKbAhgLHUCeFtPION667w05+zXtszhCvr6MX7olM0oYk58eU59E/+o7ZvgtkcFV3ZEU6AawN1W3lD35jF37vp9ZbqVuXqsiojxesDQHa4Lwp9vKLfyevOWfXCvgHLr/B8qoX307k5K2zrwy2a2BkwFZXR2zq3Hm2stq04XLdJuv54OLHba70Ial4kpRVJafuZDb83OBjksnrvv5FsxftpTqk7KSt9rGthlQZOR4t6UAtEf2AS0FgvFK6tFKee3rCBKvK4LKwoKjRmI0MW1cpp4EGP+AigFYbJaWjS1TN5u5b2RE/+baMxpRodViHkOXawB9JPEwBIXWxAPCnD1xgLwb4C9KdTLTsIJoKjf4heCa+ZG+kVxpJS8t5FwXw3/O9E+yer59g09QejGABfkYTCYE8wP9wb9qOvOsCa3bzPkLtgWJTvCsfFD8fp3F6CloX+JtCeBSL4a3PzUthawKv2y+/0u687CqrLJanKAzN63lOw3z5VBppR1M/a4bFUnKBPrei4Tr2JB2tIFHv5x5bMofZF/1hqhxQ4NUvXnZY064Oy/RDQh0/fL4f9l5J2ABbJ0/osk1kAHbeZy+bseOOMgbbReDEfAoo50F5wpHuhqNXVbdlfOSZw48AdUTGCOPkydjkK+wEGc5rlmQ9uBIDqfhuEHmArvzgdnh/wMtYUq8atMXnXWTXnPlnW3n7PVYcqFiXZFUUoPHjIaGeAqmGZMbP/7GrJC8k2915WyGZ9Gy1mb3gDUfaxIP2jQycPHG2NaAl4C2U7mIWUEf1CtyE8zjw0yrcwdRleZkqXioXXmWnvOPjthlr5/nFqmzaygLDIYHio91Ze8efTzPbZKq1shl5vKFVQy5ppuvOucx+/4kvWO7xZTZNAFkeXG1dXV1WE0Dfk6nZm68806x3gl1z7Idt6Jrbw1ey5aHh0I68CO7RKA8Dye6tw0NVjQILVuzqttUyBqVC2tj4Y6h/wNLdpeC9l7JFe7RRCevk33jKiWab9onnhP1m/n42r78qEBfgy0Ax+VQtV6xP8RnVYDhwHmqSO1sk5KXkSelGQyOpKsBfLNjA4LClxU+/dGnWkYfbgs98OIwuRzAWvKgPJCPdL+Df/mABv0a5QRrSAeWHE+DAnzxogb30+G8pvR4zXRRiOuxH/4JxVnymGht6mqGRJNO7vvez4PHPGNLIRVHw+onNIoaMgP/BCVk78s4LrN0jXY17/JCf+/U4jdMG0Drr+IPWsWHVKin59Xfag1/4hv12wcF2zvs+bYt+dYb13f+YbTJYsz55ad3yWIvSPF6WpQXSLaXFVtTl1bP2uC1QbchrJ+C9482wTwsgh0cTXvIJBDLqKG0d2f6BFUMs1WMUEKaG1PkT6tBdwqxueZmTNByeNdCw6Q+vtPK5V9k1//0dO/3I99gZ+7zUbnjHR6150h/N7nzIrF9dn1Uq1aolmhUBJjCojs86cZ1RZb6k7KwxiqaxqL4Yo9Px5WU7ePzqgEyP0MFUN0YtSYF3NIQXb6pL8O7ZJ+jWO+z2z/2P/e4lr7HLPnecJS6/ziYtXWlTBc6F8CMf8qxltBhJtOTx1yoyfJJZkx/26BIg7reHHfyVz9grTjvBJh79crO5U429aSTOQBGcxAieBA5hBCCAxZ2MJqAClyFA1AegaYbpubQ9dMvtYVvjpECP+XIMcrqlkZU86dKms82mytjIOkV7J0XlhrLhY/v5Yf+lrIA8p3InMpVSZ96cvedVl3vuENqOWKknbwO1QYG3vPZSl9hMRCttpDMN6Q6gnCkVLM0GaLVhy2rEEXbcVH3yxW61m1hL5my1DHClp2gHvfMNZpNlfMOeSPzObtXaeelNS8DP0leBabFYDDrGpn2sGOK9UFG6lZH82e01bCoo29yqIBPVWwZruQxQbVKPLXjH2/VAFUzI+IyCvsuc9lfGAl2+qPX3LJhEkoTpGTVviE3fQdVE/BRkS06NUinIcOPsKK60UlfKT3IIZ6ls9K6KIsQr/SkrfgmdxtWDaIwR/iheIB750c/HaZyeBiVt6aAtP+0cO+/dH7FfHvNeu+XXf7BNh5rWt3zQ+gar1qcRQEmdMVUpW7tSkT5KSQUirOdmmiaXkwfHWml5z7yUA1izGby8XAR4ig8YsKabKR/fVpYf8C7XazZSLoflhGEzOCk8nSB8aaqyMiq3S+VMaqVsqjyhqerAfRp+960csr4l/bbkwsvt1M/9r/3qtcfYaUe93W792vEyXgIi9m5bMWhpdpNkjpV5YJZNqmCsHqOLMFWjaJgBMBSi/+KZMg0ihiNwxRDVBd6sUGLlzV0LbdUfz7dfv/pN9qu3vNeuO+E3lpdxnF1u2ky5bxPV2dMCtLbqhhFpSkbDKrg/o2NvyRpzZ1hmx63snb/+iR36tS/ZzNcI8OWB8vut0Q9xMzIAYkL3X5sCEnSOAgxiIEtwAcCiPnj6HlIsgVS1+XF16jlCG8pglyWXpNqoJSPQO2uGIipDZcLIgXcT5DcKOhqVlKZPtnJbbSgJsVafFTy8IObl7cM3Sd4CT97xAJZ8ANesNVUeEx1MVTD/jcFVUNmYJ3hhjyV0ZEgjyBUy9JV8xoY0AujvzVtum01txisPk1zEP8AvXWHLYz7K4gUwo7O0ygqbTas89DDKO8qfNiZUmcWUgWcb7CXSs/v7+604fzM77K1Ha5TSLUMiQ9iRaVRnSVPtF92QRJUnx2BUyRPOQ95qH55jHHQvAn7VUvXhZyq5Txp+FIhHTGWGEvghFT1jqw+WbGIcPU9S8C6LH4Bp0x4dImXgiFt+O34+TuP0NCj5pze/3874+P/a0CU32txy0qY10tZYNRQ+0U8IrNi+gf3acxqKE/AKWW/dxlMWIDcb8vqqfKCkwa2wjtDSOYFhakYdL5vv0lC7W8P/gvJLy0MTmMpbTBHUd9MaP6cU2Gs/K8UnsHojq46HoeHlKfPKzKDyAxzsFMrvADCfPEXu15SV8gKvu9fu+8Hv7Yw3f8JOPfD1tviHp5ldeqtGAup67N0CSIROLcOijsX6cYYr9DFOmwLqJvvMMH2EV8/wXUaAF9nsRWPnXW7X/ecX7JRXv8v+/L7PW+m6+2zSY6tti2TJpmXleVaq4QdqWNPPV8DMgbdT8oLVpRcLpAdmTbLJL9vfDvnap+zg3//QbNctzKbJ08XI0PFr7I8PmAH6Gi2JU8JY8Mfb5D6jAkIAa4Kqhi0IXwYrZD2DoZrdc9ud8pDVrgLZfL4omWeZPdEoJ29bbDVfkVRXETAWbS8se4FLyzRaMWczt9rMhrNJG5JxKsvzbwt8G/J0C7JU918tGVdTVmhlrMimbKpHVZ4t++4nFdrIQYElpcxr+HUuoZGNimjl8tbo67GFuZbdX2rbjBe/wF72/a9GoxDe46AgCmyTMViuagBT1O2iRoaZ8NsKSTkE/FobusgIhoDZKcv4MNYrS7bLNeob7inYJuym+ZYjrfdIGVsZtITqFGQoeaEawdkOQeCsNmAPpqp0sK5AvryvohyOODlhKSg8kkQZYCLCeQTVugLWIx2Obui58uTL47XzisqgLMqkbHgIbRqljNjiQrdHb47TOD1NSvyub7d2SSDdI6XLCrBYJ80PsDBsZSIeDyTMweN1qUvx6TzAwfYOdJgAysyJyyAwtGco3JCHjxcT5vql9ByDV6M4DNEB+RZzzepp/LA7Q2l+JAV9pvMQl3zxToP3I2RG8SNvSzzpVkWjBPLjxSy//gQzeMtMH9VzaVtWr1i9p2gTt9ncdjhwH5t38AvMNp8bucIAu+KymqOtejLlkO/mt/hUClvz8oxe9uBCu/+iS+36cy6w/jvuC6typlvW+LWnQjFlQwOrrM6HQbwclAfI15wEduZs5wWuMlKJiT22xV4LbMcjX2G2k0CWJYSqbDOsGhJJPlGdYSyaecNLDPVVAJIjWI7u8QywZ4mtE8YibK7HLRJBGCEyu/NhO+5Nb7M54j0zMGLdxUKoLyO2xsw+e/HnP2gTDpds8oCPwE5th+faFqgVdG3Ddbvz57+2y372Gyv2j1iqXpXvLi+7lbZyMWurpxbsP375C7vmM1+2h6+TERgoK52MjIwElIFhEXveIFLmyAnpZCb8MlYtx0vmhE3ecUs74DWvsMn77hWBfkngrQqxb6cNNO0HL3iFFR9bab3SGTaL48vjaGwSESoQgFFy4Eib4KAMyYAVpk+ynQ7f37Z/1UvMNJoIRj2rtpcT0mEvyDhwjDXSyO67ux1q01X36BsApvoivilnRSFjkw8/0F7+mY+ZTeyKfArxGubxZaRc38nb82c0Ft4TVxp220mn2hVf/Z5NHZFp6uRJ2/IeAR1eXMrYf1x/XrScWLLkmbc2NQ58jtM4/R20zsvdi7t3b7OVMR/dNNTpAXgUjQ+oAtgLmEInE5g20mw33LChdtP61SFS3V0C5qS826YVerpsyrRpYdUOwPLAffeHOdbwtaS0lt+dDfP3cofT9YZNYkQhL7nJsF3P8gJMPHz8TV7+wiQfizE15BR+7rDDPJhGB8dDBajdC6PTcZ4rlIRZtWh7ZHX0ljy+6dtsaXu/8BDLHba/2QzmtdXJec+AIWDr56SG6axiuvEOu/LkU+2xW+6wwUcet2m5kk3Akx8YFoLVrFjK26JVS2xi7wQrCiRbVclJZdbSGVudbNpKgV5y1hTbS0Cz+atfajZzqnq+umx1JPqJQ42c+lvMv/MrZAB+Z6ivv8ieM4BobCdfAwD8jcmF1B0PkQTIhekFXiy3HllsV55+jvXIoPWqnaNIeq52YXvhHY+Cv0lhF1aZCuXEdEk07gh7LclA1O99wG47/2IrVGXQZZAZPSTThTACWJKu28FveoM9fMEltuqhxywrWXRpVFHmGwLy67Ap53y0boAdK294tBk/szh/c3ngBRmfnNpDEaVTfDwo0y/gVT00irj6uz+3icFTFj8yaqnOShychkC0vTIHRMOoSPenzpphM7fWyGrTOQLRvMBe8QJII20YiuQNU/DFOe5NWjp607d/bhNUF74BQNaMBsifl7EjqYxlNplj2x12qFlBmXYai1Vi9BsH/ii/iIiSEP/cWHbDTfbo5VdZSU6H7/hK3kH6Gg2tzqVs5/98izU04o4mryLeQhROoHAxTuO0YbQO8F+a2a7NtA1fxLKqg73kywCGwLIsrw9FL07oCZtSbbrt1jZz/mbRj4fM3sRsUp96sBSf/d6ZL6Hjet4C7+A5uxe9crXZoqVWW7w0fO6/8uFHbeWjj9ljDzxsAyuWq7Oxvw9GQvEFrkz3JGVQUuos4eUXnUJ8Md8bNm/rjAYYkUQek44qMhgN3eCdQTabt4wC8+dDrYaN4HKxYmhCwTZ/+UG2x8sOt5SMAfPaJn7uP+9iu+oPZ9vyO++zGQK2iRrVsIrJhsvqgAkrFHICFRm/mjznSRNtVf9gAHz2eGffdX6BbO5uu9g+AvvUYQeGr31VKclBHr56flKgAMTz4/ajTUBjKADU+PEBQXRGfQMyQtRvNAEUgZGfrQX8Oohj3pUGLzMrOQT04eU3L1sBMvJitQjbKEwuWUX38K6ZM2dGHi4gXhHzaVpoS9qQaZdgiFUIigH48lkyYB2W/+pc7RKYdX7hCVL0tYhvHcKmZTpHf7o5J61MjtqjpTarK08cAXbitGXSH7bhwIugQsiNvEOIZU65ciLCA1Y1YdTRS90awRhpxEoN86EOHT5xHoiuA7sLyZRH73N4NxSQOcouEMJBr/n4sKtHF3rO+wfiELgjGTEaZaTMC17Owy+MkQd1Qe6MZOFNxQTyMpAr+cnbZw8q9ADDMPrc+YiVN07j9FS0DvBfWdy5zcuxusKwOttgLmMDxZTN2W17m7dgZ9vqBRp6bzkv6nAMg5lIZtmjvLCwc2LIhT+6pgNBAkFL0UM65MoKca4sQkDpNdwP2ykvWmyL777XHuY7gYcesUfZW0aeV0FgwgqfkuKzY2MGYOfFrECH1UK8ZKSDARFh0zh5Y3Q0pqSYgqoC3CJ2lUzJsBF/UJ7ZknbdeuQRzpo7JywLXHjPvdYaKtvkfMnyMj4sCawMDYb1/d0CKACRvWrq8ugzuYKVmW/u6rYVAvXFiZpN3mFrO+io19qkQw8w6+mOZMWHaIhB/XhoZDCsQtFpJLuyKvXAI9FHU72KX8LblfwEKgE4mPpxuem2A38EApEA1zxWrjHgx3OPvHeajX2NlBgQc+EDOGz1q8zCC2U95ymsMoFSlzwK/L6A4tUlw4x0ImKCBtORA8t0aH8l4stqiD10ghXWqCAYBciZdKIeBIiX+GQrwwHIlTUKSlZb1ptnxVWMOmzzpyFZY/Bpj9H7HEcFpECdAFr4cYJfnAqMlxPCJH4H+JErBpOxCKPQSE7cV+A5FIpR2VhyZI6uY/jCfZGOceDH+0+pbzHPT8fjX2A6zPvoGM+X8yBimVzVsaly1EpROf48Hp8wTuO0AbTuVM/0PdurBYTDAspp2823PV/5YiseIm91ksCIoTEeD31FoIROMhRGefGb8MxQ6LA2PnhZa8j1k34JRHF0TeVvWBUicA3LI8kYz5S3okTkHlMv9z5gS6++zu659iZbqvPayn7LCojz6gh8FAV7+NCwqB6mfKKOBmEEWCqXEG/whxGoV6typlJhTXcZr1LnGA86KT/pGHZsVJyUrpkfZtqKrQ0ajYbqKgMjxpvqkFWmIgT+KwSEW+y/p+11zJFmz9tRQC8AUPy2QJ+th/3dB3gePGJYGylb9Ybb7Lzv/cLuuf5m22q3nezQI19luQP2DEs5w4+dYzTjXqwojmsuVYgsxwI/pg7gh5hwyOsvH4ypImpTpjdkxCS/jEZ5VcWOJvr0XPVhui0At+QcvmhVfk2BG78OxvRNIcNunnARlRmeiV+gH90AkHkaTXREFPC1cxne8wbeE1bWCKkoOQJw/a2K5ZP50KbNcj0ssWzV1Da8E3FSew6LX+rLSESchmmjNUWpbiqcwDRlio/B6rWwDz+joqBnIa7+4HFLcbiEXz+J5EY9okzZBpwzNxdkQf35AqQxUrM0I96O7gdwl2448K+PeMb3HNhHCqUOEG3GrWivVPEfjnj8og5va3hV3lG0cRqnDaJ1gP9nc57X3vLAfe35r3uZZZ63q1kRL05qPlax8DKZzgneJoqK+gfIiTq1Bx53wDd0LvLpBGYM0FmUvSaAzQl4xE2Uhj8Af+gv3FMeADFZ0dv4ElNe+c1XXGWP3HirLbv5NiuMCMirTSsKTZi/xlNPVBvWrqhDMlzm5bQKY/helYcf3l4wKlCnbLKKJqkRgKLxo+kYE951JIXuFYFF2MRLAQPFx2hMhfHZ/YhyGe7O2xYve6Ht+tIXWvJ5OyueMmEKJScjIYCE3Yb+MZ2Qoh6s9R6UL3n1zXbdyafbHRdeGj6IK8jwNWRwlycFm5vNsl1f+2Lb/pWHm82YIvBilh1xrJnjjVO07seJSnSOihyAT1ekAbACuITnIkXxvGK3RBh0EUY3POjE4qHaKLqKeFkLeDrR2JKIekOUF8rsUJQmnHYMWKcsiPuqK542pxQX0nMRnilA4VyM6Tq6rfP480BRTdZQ55p4Tp008IEBgufR8kTR/SglR5cyAExRnlVUrGLF83aKHq5DRA2i7fylDM/TDTXt5WWH5538g9OhI7wGIyZ6gmLGaZzWoXWAv33GxW3bbXuzyT1hProcplGCnxFNb7pmxkneVEteHp3Elbejy+opiox3CXBCXhZHP4c6ebZqgmOAlZUWFKZzVvSE3TnxmgAi4pI/ms85H1AtWmx28+12y6VX2N1X3WD9Dz9qeXmKfemcTWAkoTzYe54PedLyXFkG2pAnzjp04IuXaBnFwxA0anVLyuiE7Xr1r6HeliwWbZCVQeKpKS98kPcd8sj3etFhNu8tbzLbhB+kKUQ9EUCSoWELBuqSE9+hw/LBDjw/+Kjd8qMT7aYzz7We1VXrS8m4ygqGl+e5tC1N1GxoZp/t9ebX2Q5Hv8ZsSk8wrHAarU6PyMUQyXwM8Ad5RoBAu1AscSOgUPzwnJOx+ThxRyHE0x8ueUibhDTEVr069ykjgC/XImyBGxuSdSaH1lCs/LUo5CdDTJ7RnUiko/E7BcSJZ+gFRH5j8+zIYQ1FL3HjOUXXkccfpnb8pvJiBAJxDOwpBOAPz6M0EbkhDBdraB1+IiIa7ULJoY6cSnDIEuDnOSX7iq1wDGVGBgh+SAPwj6Yfp3HaAFoX+IcqcpOlXXit8j5RK5xUlBEKyiowCy9adXP0B8Hl4fKMX94iAZmOHd4yrCUW96PpAfLjhzdIk5CBEbiP0d6QZ+cIcQydUj0m7KfDfCoRwna66g70pKGKRgP32/0aDdz610tt0S132pxir6WHypYToJcELIlGI0y9pATQhVIxrDxiwy48enjPJbOWwgNvtsM2y0NMYUzotn4QbOpEW/CKw22z17/CbOaEqHdm2DlSHr7Ang+a2NQtdFTqFvYOEG8PPGo3n/hbu+oPZ1nvSN2mp7OW1jFsMaDR0IjyqRRSttneu9vOTBftLgPMdFEhuwHArzNkH+TXkXvHE0ckBOLzOIofHUnvsvV7UDT9QuAeb0ygyNOHD4Cfe2s8447X7hmKSS8TgucoDxE3/UGnQKaFIOoX+IY8AXE7gM8koXPlf0M0dwi4GC1IFMpZkx+X8A9vUOdJh6K8gfegYx0CYAmkJR1peB4VE3ETUeR7R/zwp0NxfmIU8cIxyiOKFpUDsHPX5YYuuQGAoudeXqzccRqnDaB1gb880g6rCNLRi8/wlWp4eStV4z7qhf4RWLXBkQwC6OjomY3m2ekBTAu5dvozPydQho4YAQwE8/As1/Sios6gLqJn/OgGHaLNOwXAX4DbTMhLFziwdUS0hk+p4G/lQFjBcuNPT7RV9zxoK+55wJIDIzYhwb4wyr9Ss0albKVSKdR3dOmd8sG7Z/6+kkvZymbNZu+4rS04/BDrfsnBZtMniue69bdlTLr6BAh8gxAttsM2hPIZiYTyh+zq439uS2+8w4YfeNi6ZaMwPvz2b0P5jijtSpXRu+VcO/B1R1jXES+JtsUOP+7CNxRNiSd6cU4XR1zQ2tiClNZPxAO4nEi/5iqSr5Pfj0x09MTjcwTwo7tRTNoBArhDHAojEFnBwd8BLFw4hRtQNMUCBeBn4j8qbE2cAPxRPM8CwIsMRfSsc3NtCpGj/DhFDp2Y3B3lH4rqTNTIA3eizqTzsikicomiNGtoPQDszMapE8EfxfMgB64Adi8LXgD9eBtHvES6EJU6ptxxGqcnoXWAv9mosJoz3GTdffBYB+VBs6YdT3rhkjBVMcTyy4WLbPXS5VYZGLSVi5ZYtVKx4eHhMDWTzeWsZ+IE65s8yQq93eEHPrqnTrJp8zaxyfPmmM2aLs95sgCuJ5oG4qVdWC2yhgBhRhqRuuNt4nlGY4XQMQFXVluwoifEizrs6JA4DFV0HkYUuh4cttYtd9ntF15q9192nUD4USuWm9YtD7OggrIqjw+JmOdnKme1RjHVvi5rTZtoR37gXZbceVsBvnhmNMTm+OKbYnjxBvCFJabwU1W3xMtfstIe/9O5dskpp5s9ttzyg1UraQzPNwrUq5JoWF3gPtidtS1feKDtdsxRapF5kSxURlm5s8Kou9ATOjf1fmKiglG1oSeN65HCUWURWYHLOLg48ENRforbIUAH4j7pIuCOTVl0KA6WpPBn3PPco/udK0C/M1IJxFGB3+SCfGIFaQD8IX64ET2PnkbkWRA74nGNpw+fPnIMFDGheA6wnZxoqHCfn/ccjRY97hij6BLAdgiOlR1nyGn0odOafEIJnfqTdE2Zql8o0zOkPyAFL3GcxmnDaV2PvyHEEgCGrQnQuseW2PDtd9rffn+G1RYts/KjS4MHXVCH42VkGOpXG5YSuIYVFaLgMbMkjox15Ae3wgc4aXnQ6ixDrXr4cjPdXbQJAv/M1D7b8uD9bNLm82zylluaTZI3DU+kD0iuP+QXdBz21OlDWbrHUUBKGczXw0/oDqQX8dFXmH5qNCzLvikYAd4cruDHOe6wG88+12656DLrATdGyuGXoniRm5nca3N229F2O+JwswP3EQ+KUFT6MOrhQx51dJXBNwLhHTeFkTc7WK4esRV/OMcuPPn3tuq+h2xqpmjZwbLN6J5ozXLVKnxDkEvYosawzd1jJzvg/e8y23UnM35opJCwkXbdBhpV6871Cm5kAIaGrberFMroiDgqb5RoKJ4FAYmi6wBgnuAJqZNmNMMobUQRYEJrlxel8Wek4JwjTwL4dx6ud65e9xC3x4fPUWMdpnliPI2mJ7aXxG0eCLo9c0BYAXAfvaXQyUkUedJxnA/A71mORl67nIh4GGKPue1xuR3xzZWXSaq14juFBx0KZa/JJ6T2qS5oNC4SG8tTVOY4jdPfS+uZ4xfw49lff7Ndc9pZdtvfLrXWytU2syTPXMDIxmw5KSbbMYRlkcxpV2vWlS2OAj+AyCkee5gw0HWFpZO5bNh5kwLZ/CyskCEeL0J15Ldd2b63a8ZU23T7+bb18xdYlh8gma3RQUtdtouXp8pMoBu8eeb3Q8eJQrxbQCHv6FTUmezQKCHJSAEYAgXw0FcN2l2nnGY3yAA8cM+9tu2OO9hL3vBay+63l7xvxaFjZgX6yiBMfwnp+U1dqC2+2GYiLHlcvNL6L7zcrv7dmbb42lttigxjTzZn5dUDlmc0k0jJLjRshYA9s/ks2+M1L7bZbD62yWzlrfyy+TDa4KUouasoa4f9dNibZk1dqC4gCsW98jUgEN0b9aLjgiGxiFueklThdrwAURxEIW5HJUR/SR9/DnEP3kZX4SjqWk51JwF7A3FKnsQHMqNiozKJh1jX8MjZmtU/DrQhvxD0nDx1G/kRO8o7eifi5XITfmKXIac1+Ubl+OTTmsmbqL3XxIOIG8WT+Q88cQcazdMLcvIMnHgu/cJBiSiSxtrlQBHw+7RQVKtxj3+cnh6tA/z9v/tz+48/+LmV737IJkvZCwKeonQtIaBmT/N08OSlprwIlSKylSwUftSio6VkCNg70YEh7tMBE7z81TXxI9VNBEDFm2ZUUFEZZSFHuZCxenfBqvK0dz/4IJu/x+6W3X33NQZARidMuzAiYFWRCqILhQrxmKByCJTnRKyI7Q6QAP7sJz04HPVjedehn1OG+GB7adas58KPySg9IyL6H3P49EfSXH21nfPjE+zei660edlum57MWW3ZSrHYsu6J3baC/e5zKevPJW3eXgts37e9yWyBvHx2UQu7QmZGsyJvgDMMLkTVqowLWxBHl4Fnuj0RuQcrUdROgnDH6xydx4XgadbJb604EYh5HKjzSE9cemvnAXkWceDnQFxSOQBHU3Ode+HIFfeivKO/URxojWGI7jjwQ+E+ggNAdYvN2IgV+OiEUeCH9IDo8VuRPCGgFblGT6MJpTFliaI6UUrEcQTAkdHibnRPFC8E8gyceB6Afw2k8y9eTkRPzNfYLMdpnJ6K1gH+E+fu2c4OVq1HLuakQsmqwyPqNFK4Zj1EZFqDjdU8UVP/6ITslslLVrYy4OcVA7hLR4NKKypfTUYbu7XDSIFn7MvDRy6k450AOWEA2OsHbx7vn+kbtmtOyXMe0bP85D7bYo9dbf4hLzDbbYfwM3vs4W+ZgmIqT4F4UsYjDAoCh7qnE/iGIkgAROhAnRjhVOfMF/PtAJHDtws6Uk8ZItb+k0V4yUYc3Ep+T/iK6+3Cn55oy267zZL9A2FpZmKwYt1KX5KhWL16tdnEkt3fHrH01pvaHke/1jY/6rXitzPtVBLfKp930hAcdVhdq0PDYpyiZ0gzTp4yqlc8vX9ExOolZM30F22IvGmP8HvEMXJj7RS+Nu2UFlZhifg9A6hSrWhEo9GK2o14UEhOxSQ7UpEWsOI+ZfKRV7yuznP8ztrkwB9RxEkUN9znRgBQYq7Jw8/GVKeTfn20thycIleF/KQLfL3MjrBt6bx0JMhFdcXxoF4Q9/gehGXITmEVmZ4TIJc9ZQa+GbWI+Eqb0nzEHH64pVlTl4jyQt7ky3XQHQXadmMndBSdjANSnHzhhRPX0BPFH6cnpnWA/7y+3dpdvOAcrlgumQ6fmbMpW1gso4bxgLKFRtJ9lC7sgY4WKuDtxT0slJfpWDZYwwiQBqDhR7XZTZMfPh8cEjCyjQIreRqNqFMof/JGpUMHkbJXdY+dNpcmNAKZM9222ud5Nm/BApu2nwwBewXR0UJfkpHRkIL1+v7+D5baMlCJBJsSiCfxELxq8gbpgiAiYdTUadmVEoruqFOq48r9D+807KY77Mqf/8YWXnWjZVcNWrdGH0ViVepWzBdspFy1qhSzNLXP7hlcYQuOfrXNf9vrzebNivLKaFShupXrbYEIEwVezrNDvHBnWwuAn2m6hmQcB6WnIjccfoTK5XJoF9rP83daA2oCqooMA6MaEeVy35Uunt+/MsE3BO/IkPqMfl/SqcsTUVwWUBzAqD/XxEGO8XuexmULD6E/dORFGvLZGOS3oeSywkhSN+qNLAheT86hp5L7OD0xrQP8101+XjvsJT80HDy6bJ4tqqSYAsYwty0PjgR8vYpRYIsDXOqSPO6E+gZeDl4Rjh/x+AHshhoTbz7M7SiPVBgKKCgda9hp3IHhoWBggocYGllgKAXAMFA+X88yPG+C1EoTLY0XaGhs31CHSUydaFvvs4dty3bLO21rNoORgOIKVGuUze//ilAduhPTPdx2Ch6wFIsdFSvskigjxPiFCS02DSsw98OLiLsetjt/dardcvZ5Vl+83CZlS1ZihNAs26C8+xmTp1lNPK2U4VkigXTNn2ev+dzHNTrZxqxHhoQP01R6c6iqMvJhx0Vqxif/UTf/5xGdDFnTTnFgejKKGwzS0kEBLFciQMvzdSCDuHaQjytc3HhszORypI4E6uT19Gd+jszCr5HFaKzhdFn5OXJ3GcVBEYob1o2dHPjd0MZ1jTq78YP86GnGacNpHeC/oXcXybijqAI09pMfkIfTFGDxIyysxmFeP/zikMCZEOYk2WhMoA+g0yD8bGJCQM/v2qLUpVIhei5gzcqIsLmab8/MVFJoROXFV7INKTqD3DBHE0YRLevq6bFh8cFceyKVsUK2YNlklqX04UVxXX1iZbtmlVLWerbe1LY+YF+bt//eZuweypw9eoFhAfo79aWeBKaHGI2w+Ri2gJ3UoURLnZE9g5g4fnip3fXr0+zGU8+29OIBm6yy83XxCa8JGbBSxgarZfHXsBH2lZk1zfZ87Stsk2OPClM9/Ah3U/LEeMFFim8M0jJKSV4jCiQD8EeK/GwQHYYOEvf2uSYAIHElWB/FgQgaGRkJm8xB5Ed675hjAX9s3nFeoPXF+VckPP2g25KXj5xch1w2cTm5UXTiGffiox/q7aCFTEjrssAoch4HdfKAKNPTjTUaGyshj7jBXB+NlSlyQCbjwP/30TrAf2Vmfps99RMSLitQqvnM6M/gFWZPsynzt7BZ8ze3ybNnW767JKxOB8HnZsyMpkDkfbTLFauWh214cNCG+1dbbWjEbr32WqutGLDykmXWXjloJQF2t4Au35Tiq8EzofHkCcujDyMJ3UvqHpulFbM561+5SqOPgiXz2fBh1QgfP40aGXlatbI6ohRCoDvYbtpqpc3MnGqb7rG7zdp9J5v8shfJ45bx0QiAkUdTisL+NxBdiW7D3DUrjFgz3RgYCMbFlvbbwl+dYjeecrbllg9aj/hOqZ5V1Smvjp8vFGy4UbUlIwOWmTbJlqeatvl+e9re73yz2Q7y8n2rirxGEyqaX43qKci/lxFkL/lKRqAnyI+2P372gD/eYZYvX26TJ08O538P0c6ATNxbXbFihU2aNKlzFZUDgPGTiBDnKBjtNCh96O7uDvc3ZrDCwz7//PNDHQEe5Eq9MaYYxB122ME22WSTUZCm7nFDCfEM47Fw4UK78sor7ZZbbrEHH3zQHn/88SAzwJ422mmnnWyXXXaxvffe2/r6+kaNStxI0FfcM96YyXWCb4GoP2BO3ZCx6wpycxlA/y51/2fTOsD/t6nPbw8nmjaSSVpp5hTbcsEutvlezzNjaSMvUfmaNEy3EFtH0rb1pwOigcIUiv4E91nKL488zI3zUnTZKrPHl5k9+Igtvv0eu+emm+3x++4P8+MNdQ5e+DJaKKrRs62EpeUZszd/qbPlMy97+YI3ALcAH0+9oVFAt/hlLx6mpNK5QpiV6VfnGBbwVrsLlpkzw3Y+9EDb5mUvNNty0wjpVc+20iWSaZUtBQIYlUeYp1JHXnLKmfaX7/3UissGrK/cssSqYetR3nT0KqORVNoqMlKrmxpxTO6x8qSCveTdb7FefmxFHr40V24bX2wVbWT5KitOmxh2wczJiDLbVamOWEsGIfop7mcX+CEA67zzzrM3vvGNAYQhOpED1IYSnZBOCgFO99xzj02cODHkedxxx9l3v/vd0fwhOrAbg49//OP2/ve/P8SHuE9eG8tUBQB/4YUX2lFHHRW9uBd5/SDq+JGPfMQ+9KEPWW9v7xN6r+ecc459+9vftquvvtr6+/s7d6WSiu+jsXi7UMYRRxxhb3vb2+wFL3hBML7wAijGDfHGSnHHxI0kIx53IKhnXJYYB762Hwf+p0frAP9JW+zfnrHnzrbrEYdZ74H7dkDeAUlHIgPy3BJogPmoZ3jZG+JENHoepmvUKUijxguRw/QNR55rlDA4ZKuvvMKW3nmvPXjDLbb6/oWWXDFouWorbKtQEDC3ampgipdXzpbIzP3T4ABXU8CbkidfbdVkFHi/wLr3pNXx4MVgIpMNPyE4LCYz0yfbFvvtYdu/7GCzBTtqFCALEJiV0uGSl9tWPuMs++N3f2iJxStsk64eG3hskU3skpKxCkn5UaWERgM1lTGsfFvT+mzmwXvZgo++z2xaSXkJFNFF1voPJ2z5pVfZ1/7fN+wrZ/0heP5Dw6uta+KEIDt+xCUvoxbs6LMM/NDFF19sBxxwQOdKtVZnGwsy6yM6IB0SQmGC8ZPHCtEpyQNw+vznP29f/vKXQ4eMGwgHR55/6lOfCul5Rhs+ETj+K5HXD4rLEP4J1IU41OW//uu/7HOf+1x4DiEn5AFQ3XXXXfb1r3/dfv/739uARpWQy4a0boiRKeccHdzJh3bAcH7iE5+wCRMmhHyJ76C5sRL1cAB3I4CeYAB4RuAeskIOm222mR177LEh/jj9/bQO8Leve7Btm88wKwmEhIkjAlW+eGUChHezYb5bnjgrZQj4OdwGsgjAB9lxj6NnzQ9hpGVAiNNUIwL+oaEpHPCvyDPGIPBD6AsXW+uam+ymv11m9996mw0vXWldisvPlhTA1GrdcuIhI+BluqTaqGpAoXTy7v03gVlxyCqjrBCY34RNiRM2Ch1RvAE5SMMTNJTeaSvb+1Uvtq5DDhJXGWteeo1ddOJvbdkNt9rkqjpbuWKtkSErFvLhPUJSitdOyohoRDCislaI7zk7bGcHvfttZvtrVBRkpkL4UQ2sgwzHnb86w846+RRLqON+9I8C/j4VLiMV/Z5qOyx/9GWQa5rhH0/esQCtAw88MHQg7kHc9/OnIgds98AcmJw+85nPBODnXhz4Pe6XvvSl0KG5joPpxkAALGB8ySWXBK8buXENUEGcUy9A/5Of/OTo9ITTHXfcEUYC5557bojnsiRfl89Y4j7Es54eOSEdY/GBD3wgyJppto1Njk9GQ0ND1tXVFWQK6LsRhOKyeMlLXmK//e1vR/fY+nep/z+LxgJ/0raeLRdEwJVmRUvKCqlimIqoVdSBw9pNgb4OTLEgagaZDNL5OUSuCYA7R17QYghotpRAn2PwK9VhEmwCJ6hrUzZfreaUS1a5dSvMn2vJN77Udv3R/9przjrRjvnFt2zqi/e3/ukTbVGiYeVcJuxkOaIy6yw1TecEnDlrCKwTjaRlww94RC+YA8Cx/XKTH0FpWU6Gold1mbxiyMoXXWcXfPw4++thR9ldb/2Infr+T9qKi6+0qbIQ+Ta/8KpOmeWlbMJSAm51e8tKKZdURmxZIWOHf+L9dpB4sxftbTZBnTyvWlPBEf258hY794Oft79+/fu2RTNthWF+Xk8SUPkMjxIK/AiMtDgcn03Qh9ybgug4dCjIDYB3nLWUQUAGxTsVHdIBjXzcK3WKl0O+nofHIb2fk6/z4cQ1HRkinp9DnMfjk//Ya8+baa14WgfnsXkQD+I+IV4X8vM8OFIXgNpHOtwjX+pB4LnHR0aetxu/r33ta3bZZZeFc+RMcF4o1+Xq0xsuW/LmGaDvz44//vjg+UPePnHe4QP+48Q958+J8j1dvG0gzv2a49jnXobf43p9svV7LjfIZQLF0wD65INR5Bg3nuiW6xeyAPQh1yN4ifMDOQ+Qy8P58Gt4IXg6ppicXF7+zI/OM0fukZffo0y/B5HH2Hwg4jt/3CeO5wHFr+HP8/Cj509al6ff86Pz5/nE849T0kppa3cXBchScjU0vw2aqPM7pxpK8sGSQlIhgx0oK/MhnawasVRZMF6uWmq4EoWqhmtKlxUDrOBJSdjsawb28Vu5rOdn8EAVwnJL5nGyalQBLbMu1iVl7lKjz5lqiefvYPt9/b/t9Sd8x17+hY/arBe/wAZmT7THC21bXcxYtadgqZ4uS+f5iAu+xYsKyMkgAKpNflsVRJaHnqpryN1O2DQZimmNlHUvHbL2nQ/ZvedcaDNUh3l51X3FKmsOyvNQftlMTlVuWlke/up82q5btcR2OvLl9paTf2rTXv8ys+m9xgsKNbNaR2X0l23RiafYCe/6sK265FpbMHGmtRcvtxwjABqdH2hh6JTQUTwxRRYs4v8xoUwAkYMIRCfjnisa1zwHAOiQXD+RIv29RD7kC9hRBh3C+XGl5prnxMMzpHyu6agErlF40vrLQeKRN0DCvDCdwAEVIh71Iy7B70NeX8ifUW/SkB/XLh8PkB+dSHPWWWeFeX14IC94gk94gThST/Ij+D3SUieeeV0hyrj88svtqquuCteAmadDPpQB/8RzoOOe18PJZUEc6uT1cblxTX4c/TlEGi+De8Tl2usB+Xsbv/Z3EVxTL/KgLNK4zHg3RD4AOwsBKNuJdC4HAuR14xpenB+n+LsjnkHOB2ngAV4Ino5zyOsNEc/lAXHuvPDMy4UfyuScONTL5Q7RluRLGtI6f54vz3kG8Zz0Li+uydOJNMQl8Jx3RV5HT+tpOFIuR8oYS8mB5pCtqvDSqiEcFrMDQwJ7NQoAv2zY7PaHzK64xezPl1vtt2fbkh+fZA9+9+dmp/7Z7E8XmV1+o9ldD5otXG62UmmH1DAjUkqAr6bzKqt+hoR7WDp5VAplq9iQvOua2rIhAfErVE0BN1M2YQlmX7c1smJ2+zlWesvLbLvvf85eduLXbZ9Pv8fau25uNw8usSUN5YE3nc9YrrsU5vWrvFRWuV3FUpgW4if3ws/utQTTNTWaBFfMFa1UKNrkXg0vhwesPjRoEwX4rM9PqM7tEXVGxRmZ2GPLZvTaq7/7BdvuG58223lTs2ld4k/VGJaC0B/vedRu/PzX7C/Hfds2GWjapu28DT34qE0pKh6Gh7ZXaKuNeZ3AiCh8/NAxAv/XRIdwBYVcQblHp0dhvIPGFciV9pkQ5ZCP50mHoBMBjig1zynTlRzPEOI5XrB7wt75nTwehIfoz7wsgtfZOyodLd7BIO57PQFFJ6YjvEznLV4H7gH2f/jDH2zp0qXhfpyneNkQcvZ3KeQDL9yDPC58EP/hhx+2H//4x+Eebed8E59yaT/SONA5ja0bciUOdaRs0sCj15drT4Ph4Zz8nbhHHn7fZUB+3CNv1yWI59wnf8+bI3L1VV9Ma8UXIJDGKV6280jd/T46AbkceeZ6Cx+QtydlQ64L5BHXEcomLkcn0nibQ258iO+ypi5eP9ITh7I9HXl4efAHz8Sl7fya9NTb5en8kBdxiM89nnHNYgLK4Jp4PF+2bFk4ct/1yPmOU6LdqsgM64x15sMS5k23260XX2F3XHGNNVYIGFcPWFayYhsbXrLyi1Yq2zJZVVBQVpN3zBQMO1yWJvfZpDmzrXfaZNt6l51t6labm229pXqgrByubkvALKBmCSbTSBKvwF65CPT5sIsmrchY1BUvq06k0nRHow8JKxm+4FJYoU54/2N2z+/PtHuuud4WP/CgdacyNjElr6wmAajCbLGQUX4IsK1MgyJI8GEHUUjHnEYOIwL9ggwGowXJzloS1KBktLqUsi0OP8AWfP4TZhPVsMzhq4HbGtVwai3du+ByO+ubx9vS2263zUrdllk1ZLlGy0rdPfZgZcgem95t77jiXKUXgGYEYBSrGqq7hL9cReHZJX8xiWJ4h/NO4cQzOiAdzzuGE8pDfE/Dqp5HHnlkFHh5sfmFL3whKDRKSYjnwfw3L3i9I/HMz51Qeu65okLeeXxJJGDKuSs+ykw696A4p50dSJwfyFeEQOSLDMYS94kf5815xbP629/+FpZXEgfg804IzZo1y7bccsvQ2bhPmDp1auiEEHmsT/avfe1rw7w9y0H/+Mc/jk4NOVA6T14XjlOmTAlLQOOdmXjEd7AEhLx9PG28ztwjrK8d3Hg5vy4D2iJuUHwljj93om1Ih4y87TiHH+LSRp6Pp3XgIj7nLiP45j56sWDBgtAGpPd6uh44bw52pPf6+j3ikC7OK+TyicuQI/cI8ThxGXidnAcnVn7xEv6JiLwg8kOGHL2tKNfbnDzH5u3PqIPX0XnimrLRo/vvvz/cO/roo23u3LkhH3SMtE6J9urBtt270O46+XS79pwLrbWi36aVei0rz7lelrcuQbNXD28A8OIxAMlcxlbXNYRl900xRqE1gS4FpPiVKQF7U/fZjjklz3rmNlvZ1s/f1abssoPZFvKcdS/8AnlBHV15h1VAnV//ckI8wAcqAFimaIy20jCSGOm8GH7kcXv8kqvt+j+dZ8tvuMOmtNM2JVu0pjo68/wB7Dt1DauCJCiWjCLggUq/QFog0WBmXwreVbIHR1Zbacet7XWf/bDZnjtH3j0Gi7n5fhmcvBS50rDrv3G83f2bP9nkcsNaGs2kGzXrlgFhVqch/lYVc7awL2/vvOy88HK3llGn1T9m9qkLBkAcKaythM8GPRHwu2IBlLyAZP4YYIsTSuqK5UoDmAE+Ts8E+DE0dHZ4ioN4vIMRn7y9I8NzvDPQeejYfo+ODg90YO+cTt5ZyC/oqs7hhWvnmWuvK/fJH6Ph9YvnyT0P5OV5PPbYY2Fdf5zIl0C5EKtUbrrppiB/z5N1/XvuuactWbIk5BdvJ4h6Uj8M77Rp08I15DIZKyvSQ34NufwdENcHpE7xZ05x+UJxgwxRPu1HW9K+HMfmQTnEhxdvA8jzgC+vO3lB++67b3jJHifikNbzoWzPw8nbHPK6Q+uLuz5CL0lPHVw+LjvPm/s4B/59y9i8XY7EhwfOnyhOnIhP4L7HpSzu0T/i7bV48WI79NBDbdWqVfb2t789jA5//vOf2y9+8Qs75phj1l3Vc9fH/qd91el/tvyqYZuekYIPjoQvbMOSSQEUH1kBmABtQwCH2NgTp56VwOU5h/11AqDpvC3lBrF1ZBM3foOWl7FVAd+QAK+WS1n3zCnWvclMO+D1r7H0FvPMNEII2xr4MlJGD3DGhmC6XuMf0ak0LAugqXMiDWuI11RaRioXXGJ/++3p9tjNt1q+qgapSyjNthVlnPK8WK7UrMU3A+I0vGNV3ssHVlvv9BnWL3AfKBbsgLe+wWa++XUadwqAwJ3w044qiH7Hbp7X32q/Oe7rll2y2jL3L7bp2UJgs876/Baf5curUeaLxd+jfUV796UXyONX2aoftYrkJKsd6oAkIyV8NumJgN9BBPqf//mfsPLGCYVCMeOKSAfkOg4a0NMF/ji4M797++2321//+tewzh3PhY6AgeGDpu233z54fIDlExGKP3369M5VRNST+gJAPhKIlwt5HCevh3u0TnjR/iKSOJDLwg0WAM4zAJ2VVDxzOXJErk4Y2//3//7faJt4x+d7gZNPPjnEIV+AB368TIhRAR94xY1QvB7wivG58cYbw8did999d/iIj3xmzpxpc+bMCbIEKJAtFE/v+TpPgBq8jJUbz73u1I2RCO81WH0DvzgSL37xi0PgnPwBKp7BCwSvlEHe/iyuPxBlvPCFL7QTTzwxTAlBzqM7DHFZIHd481Ee/DMtsnLlysAHz+GF9nM+qA91oN355sTl4fpKfpzHZeB9AnL95hsXlu7ywR8eN9/QeBp4pd94XKYCaSNGMuiMtzX8soppt912C3qPXlO28+Lp4/Whn5166qlBBvCE13/kkUfamWeeGfIGA7yugU7o2qZ93oy92xf1LmhfUti1fV3vHu2bJu3dvjy/Y/vq0i7ta7p2bV9b2lXHndtXd+/cvqJ7p/YlpW3bV/Tu2P5b13btvxbmty/Mb92+qLhN+5Li9u3LSju0Ly9s3762e7f2VUXF79qlffXEBe3L+nZvnz9h5/a5fTu3/zxzj/avJ+/UPmvHw9t3HvOJdusHp7bbV93Rbi8dbreHa+12rdlut9rtpv7UdCTofwgNP5br0UVDccuVdntEoX+oXT3j3Pb5r31b+7TtD2yfNnnn9nldO7SvnbSgfd2E3VSfncT/Du0re3ZuXzNhQfuvuv+7mc9rX/Ka97Xbl6v8fuU5rKAsQ/lDZeWr65Uj7Qe/9N32KTsf0j5/s/3aZ+fmt6+eslf7b4WdVN/tlP9O7UtLm7fPS89q/7Vrq/af5yxoH7/lnu324sEoPQw39YdjC6YpgPDs00UXXQRitKUs4ShlDkcpQTgSvvjFL7al6G0pfidVRFL2tpQqnHNUpwjncRKoj+bF0cvxIIUMeTvFz+XZtmV02vPmzVsrDfkIBMK5lHj0vsCyvXDhwpAWXp0fecBtedghjtcvHmRA2n/6059CXMpXB2pPnjy5rQ4ZnsNznG/OBV5tebMhzV/+8pe2QH/0eTwIdNoyfqNygi644IJR/gnq7KPnXs5nP/vZTuyIJxm7cI48PY7XZSxvApVQBy+Tc4FGOL/iiivaRxxxxFrlU08Bwmg7kQd8c77ddtu1f/KTn4zm5TL1PJHBK1/5ylFZeSAv8pQRCu143HHHtadOnRqeyWCGo7edDE37pJNOWqvtKUdg3RaQj+bHMV4O+cTlLiAPMoF/0snQhDzh/ZBDDhmNRx5j0wlMOyW325deemloE/KJy4R0MhDtD37wg+vo6cEHHzwa19uFfDl6W8qQt+fOnRvuEeQQhfsQ9aU/QTLK7Y997GPtrbbaajRuPJCvlzV79uzQRx566KGQFpLB6ZxF/QBeqf973/vetoxsW8Ym1OO0004Lecj4t+fPn9+W1z8aktt0TbHcQMUy8ogLsnA19p8Ziaxw2MQMK1gZtmpd3iEeOcs+EwrMziTSYZsDAj9UHjZ0U5oUUz0aMTBKYL69Xa5ZptywnnrCeuSkl1aXbU49aekHHrMHz7rAzvzi/7PfH/t+u+JDnzW74EqzQaUdqluyIm9Jpxn295GzhNOjS5OKWiov70DsNMRTI5/TCEQPixnLHravHfyjb9oR3/qybf/aF9vgtF57sDZsy+SR1/gR83w2/MTiA+2qDc2eYa/87Mds3+9+xWynLeRayPLn5F0h84asK3M9jy61Kz71JTvv+z+zrqWrLb14mU3P5a0mT6VYjLydaEhb1FBvSpjqYtprDSmvIP6OtYXpf5K3/2QknYnauOMFcJRCh3PaHMIDIw7eDke8CbyOfwThoeORfPrTn7ZFixZ17kYvQuGNcvDkKBvi/Bvf+Ibts88+wYuFV3XU8AwPlqEsHp46QXhGfeAfYnqKEYXXi3OmKPDYIOK6HKgjXvGrXvWq4PGTH/fwTP055GXgpREH+ZC/QCh4dZx7ntzzc5exgCbUE+IZHilEvb3u5Ov3SEe+nFNvbz8vn2c/+9nPgkxPP/300bwh6km8+D2uyfPOO+8MUwPveMc7gpyoH/HgiXKQAVNP5EF8yoSIQx7IkREdH5jhwcK3QC7Eoe1IzzYVTDf88Ic/DPeRB+UQl9FenLzOlEU+yB1ZUS5l8RwZkG7GjBlrPYOQA7ySjjyoB88YKZCOZ9yDB65J78QzvG3ixtuH9zXE55o84YHnXiZ6d9111wU5MMUCP5RBfugB6agv+siIVobUvvnNb4bRgcsZ4hz+yZc09IVHH3009JHXvOY1JicuxHO9Rr7wAy+MeJA1o2XkzajFv99h+mcsJesjg5YWECYzGs4wpwGwA6btVghcZwRwEZgLxBvNtfbnR3hBIKaOxnx9516LlwHKJ+zAqWPYbkG3ODJ9lFBZJRnO7kbdJg9VbeqiVTZ4zmV2+js/br/Y5UBbeNwPzK69y8LqIn7TVpam1YZDCVJl18UbL4b1IEycpFMC4aSUUsBrXTrfZ1fb6rjP2hGn/szmveXV9lBfwR5M1m252HlU4L77R99nL/39Ty1z1CvNcDLyykXGI5VqycjIyEmQA6ecYee+80O2+IzzbfNKwooDI5KV6qE8+A2AWi16KZnPFa1eU0eQcUvwA+wB3DsEc5JvG6eN+nP9L0IoDm1He9Ge3jFcsXgGcd/J720oka+Dt3di9vs5/PDDwxAXokwHVNcrjgCL36cDocRMJzB1cO2114a8IPTyd7/7XegwxIF/npEGoiOecMIJo/fl/YeO4s9IT6BM7tPRXAZQvM6eLvQF3See80zZDvpQPJ2fuyy49nTk5UR6yOM5UQ7gA1EHP4d/nt188832H//xH6HTQ/E2A2Dj5XEkD68DxDQB4A3xPM47ZXh86ub5EIdVRg7oAKAbFK8H4A2wkY7pRNreZe48EdfLI54/93Koy1h5+DPiExw8iedtF68fRBryJo6n93Li8vJnfoQ4p17Ehzw+crn33nvt9a9//WibkD/lwhO8eBrezRDvhhtuGE1PPPQfIn/PA4obL/T9da97XWhnyoR4BpHHYYcdZj/60Y8C4DP1ymID3otgPOhrYykpnAvvL5+UALJO0GA+hLHX8eDPWpJbPMSJtf0EXiLnmg3rrrWsr9K06UNNmz3YsBt+car98tj32N8+8AmrXXiZ2fIBS0s+XepT+aZGEAn21gf01Wn5+ApBCpTbMjQNjUhqMmThu4Ct59ruX/iUvev0X9vmrz7csgu2s7f9+Du2+fvfajZ3sjJTul6Bi6JbWQUMS/CrK3aVvPzLf/QrG7juVutaNWS9Gr10JQUcEladL49FMbUIgZfPof5xb76zdJMdPZ9KzP9McqWJd2jOCZx7h4C8U3F/rHI+EcWVk/QoOkoIfec73wnzjhCdnrgAKnEZPXH0zkJZPIcX7tGp8GA+/OEPB5BxoOH5QQcdFDo2HSne4UmnoXLoeBAgBxhC5AdgkQdp8PbpRM82UW9kQnCgAiSRsY9cIOfTDTIdmxFS3FumDnjsyJA6IC+O1AnyvCAHVcqlHJcTIPOXv/zFbr311nD9VEQZ8MOyVYi8MLzOOzw5ub7QtoxGeO5tRvnUGWI1DHnG0yInPFkorlPON/EJ5MWRZ57fs0leJnJkPv++++4L9YJHD/BBXThHvmzdgR5y39uEPLx+Tlx7XTl6XXlP88UvfnG0fqRl5Mzxgx/8oB1yyCHhPdlXv/rVMPriPQ/ffbhhiVMMof55BJykZAkI/OYs2z9X07LqskItAWSu2bbekZrNHG7aivOusl+84yN2+lHvturJZ5st4lsBCS14XiwIlVAExA2WipK3LtMSBKt1gnudkfIXFbbbxPb62qftxT/9itlhC2QUNGKQp9/I0kASDCuF2IP66rvtb8d+yJb+8XJr3bnQuuoJK+SzYRdRfjiepZ/hI7dQ2sZLrnh0LFaTsJkbHwhdccUVQVlYQUHAK+cFMaDAMBVC0Z6KPI4rrZeHouIhUi5xAAV/5h2ATgURh2fupTnx/NJLLw2bp/EMYnjOUBtDwHM6ZJy4T73wOK+//vpw7QTgOp8ssZw3b144fzbJwRAZUEdAm/rzspwpF/jhPmDKkYAMmJp59atfHZ5Td4COdsEjjIORyw4CPHhRyNSIAxHkPLiBYDR19tlnj95/MqIMAMjl7PKEX3hweTpwwQ9xf/nLX462L3KPtxXTFORJes8DXogHuX7wjJEg8SHikIfz9M8gZAt/yA65Qc4D97xOtBEyYAroBz/4wVrt5iMxr587WOgC6ZENz504P+2008L+Ty4nX9BAXr/61a/smmuusb322itso4Ku4Pl7vnH6PwF+CICORhryOIURGABAX+MES7caVmRKadWglVYO2Ly6LOgdD9ivP/pZO+s1b7KHvn68tFTezrIBS1Trlk2wbUNSyjdirQ5AZCW0pgxIW8daqm2raupARXWGqRNt0CrWXx2iZEvzE3cMRyotW3LCKXba+z5tqy+72Sb112xaM2sTMxKavP1ytWJV9uoXeUfZmMk7Px2WVSQMQXnzv//++4ch4sEHHxw8aK65z/QKO3GilA62T0au+N4RScM9wBdvhM5K50F5fSSAR8h0A0Nn4rI6Ag8SjwV+UWAUnDy5phN4x+AI38z3kyfkfDovTPGw6sSBx5+TljalrLe85S3h3rNNlEkd4JWynSd49ektnscDxLsAH9EQD1mcdNJJ4RnnLg8Hb8ASj5Q5aOaLAQTKoDyMAOX7NYThd4OxIeR9gVVCvH+ZPXt24IF8Cc6PH1nFQnmUQVvS3v/7v/8bjLYT7eL1dSJ/dkFl9cpnP/tZ+9jHPhaMPfXEqMC/t7O3/7NJXgb1R+7xPuFypQ48o89Qb+6jw9yj/vQ9ZEAe733ve8NKHOTEMkzI8/ayiAsxyvL2Ig/iEBd92G677cJomFVQLPn19hlL/2fA35RQCJE6REYgmgaPwL/VrNqUCSWb3luygkB3Uq1u81pJS935gN3y45Pt7CPeakM/P8Ns4Uq5DgJ7dYZ8XgrD0km+4JUOpIB2XtImMlbo6rN+5TEwXLHuXLf15gqWGBiU5FToI8vt6k9+2c79+g+ta8lqm9LQMHZYQ2sECl+8pG5HL5FSrNdnD6ONnLyTUCcUh2kDFNPv8RwlRHFQOK5RMgelpyLv6KT3sgCs2267LeTv3hvx3ONBwd/whjeMgjdADph4pyI9PNChyJNhs5N3pq985SujXu1YAGOzNJYEQvDl9YXgg7lQPnT5Z5B3yLjMIepFiPMGUXfqCHAQqB88E48pLPIDAOPEEla2dkaOxMUbZzM5QMPbhzSckzfEy80NaWN0wmX8pje9KXiajMKYyuG+k5fj9QEEGfURh8C8P+AP8DuwuVPgBL/z588PS2ABftIA/KR3OXp8rl2Wzya5To9tJwdk6o0Oc408fWrT5QzRjugzebGkGqDmml1IN91001HjHZch7XXBBReEkSuEzOI8kN71g3yRi/Map/8T4GdFuwdYAPABWLfTeP7ZUs6WrFxqK/tX8n7Zss2G9SjGzHTeJpdr1rtolZ35xW/aaa97my35+e/MdG1DEtRQWZVWTshKB/lU8tRlgXVZyhatp9gtLdEFPyLTTlvjvEvs9Hd92B44+6+2iTz8UkVgzzcAdA5eTncsNxvApXWkEfhGYWMn7zCuiNTTOwyKRJ2RAYqDMkGADxTvlE9EpIfiIEX+gDyKyNHjuGLyAQyrcwAHiDXK2267bTgnTjw+/PMi0zsaeVMGIxfy4Zx41IsAMdLgxZobCYh8PN93vvOd4fjPIK9jHPDhGV4IXh+XOXKkri4r7tNOgArr+qmPt5sTI6jNN9881BcZMLIC2L3+GAbP38kNwVMROgHowBfvRJifJ0/WnfNDMuTh+XgbwRt8MLXobQL/8M2165k/40iAX+bI4Zf2Ij93HJxcj3nmgPlsUtxxQQbwBa9cwwPfWTC1xjVtxktZCBmRFlkge76E33nnnUdXdSFT4jBFQ1rXD8rgvhtFdBx5EcdliE6R3mVBGXH9jtO6d/5JxOwKAU8f0Oclc1itLGLqZ6BRtXJW/n93ztpdsoxy4UdUUfbcYXVwozxiswolK967yP766W/Yn1//H7bs+N/Ke1+mXqFOPSJvXnkklXkpI2WRsNICdD4ys0Ep2GDLHv/uCXbGZ79qjRvutjl1DZU0GqjxwyyljA1lmtZvVRtUHjQQH3/xERhC7fS9jZpQHgjFgbxzOqGsDjIQyuMeJcq0oeTlcKQMV2zycKWGmGahA3AfRaZs4vEy0xXXO4Lzwgu1OI9eh3e9612j9YIcSCAHXCfikQfbLhMg7zjPJjmvDlLUyYHDiWs6PASP8OWy4D6yAMgBeIi08fQAJYBAWd4O7373u0fbz0Hf8/TyHYCfjEiD8Sb+7rvvHu6RrxsjiPwI3kbOn4/wnCfiQK4T8To4r07eNsShLH+OPsTr+WwTdaA8B3FkxsiKESV84ZWzTNZlgKy9zX31GcRCBT5UREak8zp527gs4nLwjxHpS+RNnTm6rnhcz2N99H8G/IC8h2iuPyJO2SmUDdu6erqt0Yr2oEBoVIzK1PmRFsVMlCs2NZmzLfO9Vrv9Afvj/37bzvjPT9ot3/xR+JqX6R6rqPLqXNEqIl2zw+hjK+1Pb36PXXD8iZZdtNKmJ7LWXK4yZBgm9pTCfv+JsGto2tJSxGynk6WTCok1Ozhu7BTv8HQolA6KK5DHQTGRfbxTPhkRn/QoOeT5ONijrGM7A+vrWUrJcjRWLxDwZolHXt7ZobHeod8nX6YzIOpBGgceiHSkodPAkz9jbh/eSP/PaN/1yRFe4vfjBgiekRVH79Cc4ynG24Zz0nHOFBC/h0CdmGpg1Qfvc7iGMDrIyNuAegNoDtxPRpRD+eSx9dZbj8oRGRLIi0Acj0uAL2QPeZtSPjxz9HbknGfcJ523iRtKzw8iDfE8eH2ebaIs5MWRqSimuZiqRMe8jjyHT66J5/oPz/BJW/BlNe3E+5f//u//Du/SaDvSkQY9dWNJeqZlva0JyIa8vI85eVnro9GYZEAhrhTPJgH04YfXFWi6tv7wchdPn1EAJPttybKGRe2sdadLlmigQFL+XCHMs7P3Dt8DjFjNhpoV65LF3ySZt/yND9i93z/Z/njEW83+eJFMar+0RSDRVGeplK3/9LPt569/m5VvvNumSse6lWei2QhTS81ktFWwfEpLNiRQXg53eKvDX0daPjJ5MgodgdAhlRIdO8r6r0Aoi3cwQhzkOUeBOfeOhCKFem0goUt4YqTxejtge57xzsC8JcoP8LO6hU7A8jTixvWS/OAXGnskP0YPzDs7QDp5mRAdj3wom07LBzIQ+fwz2shHNT6KgpB5vPPG6+0GFBorD3SWfHw0422EHAAQvHymHvBC40Q9kRHpKRfZAVAuyycj0sZlFZcZ5cMfR+cF8nOeOf+ejjrBi1/zPJ63p8XDdv68PV1/3DhQj38WwQO69L73vW90OwkHfcinhJAx/Llhg7x+rPjhHQfz/AQcF17E+3PqTp60EXLBWPNsrL44ebr1PXNKeuMhPDIfq1TPBvHyNiGPnqBq6V80398KH4AJ0FtJSwtlCVl+aEVH7iUVole/ayrE+njy4MfbC2rwiZWmTRtuWvr+x+2nH/iEnfaeD5vdeKeZri/7zJfttC/9P+tbMah4DeuqCdTgQ+nJB+Bn3T0/MhN+DF76hZFy3vh5x1B25zuFJ6Mg/E4DQC3lSdiQTvXPIpSRTsLLVOZpWcnDUrDnPe95YTUP1/6ClX1dmL99MmX6e4hyXUFd3+J6xzMC8bwjUzadhwDQEbgHYHCObDnSUTAenj8gS2chH9ISz8uiIzIkd3q2dd8JD85lCT+0BWU7z15nBzNf+cR94vt9rr3u1JO5cPoyK0Te8573hJeEP/nJT9YygsQfp38MoWu0Be+ikDvXbqSejMBZ2gwd8BE2127MaFd0If6MfDnGjcfTpaB5KBwZUgHvGM8m4dW3xwT39H3qB9CNRgUO+ggkCmEqKBiJKE5OfTUtoSQFrHwL0E40rFBr2NyaLOz519sfX/8B++ur321DZ15ic0cE+CMVK9YB9w6wq2y8eUYcUHxEEqaHRPAnGxRCXX2ONE9JnU4MuUI827L9ewilw0t585vfHL58ZdULa/mZXmE9N8sAWcvPp+I8wxNBGQGpfwS5UiMX8nXQ5QhvBAdCOoTHIcCD8+Ey5T5xSAfg+YdYeMLeGTl65yIua/bZGI1Oi1ftPD3bFC+HjgwY0/f4OAtZ8/0EcifQDnyzwPcUfG9BPUlDvakL59QFY8KKGQzZFltsMbrMEyJvRgDQP6r9nuuE7F2feD8FNQTY6N9TEfEIpOfo9+JpXdchB3vH6WdKSe9MKIMr04Yw/kwpAC0hBqDrTqHgaUeg247Fg/DCec4yS9IF75w7HQ8+r9CXTNlcy9q0/qqVFi634tLVVhgqW6HJr4QpbgfYAfo4UVYEE9Ez8nfeeDYm+nopNFgM5JEz4V+JUDrmC2lvX1UA3yigD1eJ496iA4cD5z+KkIuDt88vUy68uKJzzj1XeoDa5enTE/EOQVwAnZfDELoN38QLbSPimlVE/hGM1++fQXFeqQuEgeLjthe96EVhtMVeKwRGWxgxvqfgs32Mcrz+nDOFxvw9L6h/+tOfhvvkxzPqSZ0xbP5icJyeGdFnHCfRLdezpwPKtI1PCTnA+zXP4mXRnk+njLEUgJ9M6RB0eDqMF/JsEV3cvWcHdvf03QN3z9pDQ548UzHR1E5ExPP3AsFLV38G0LMK9TK/LJSwbCFrtWbNyjWWOmWtlMtbgl9m7xBpiE/ACJBf4E1lulHyFUcc3QhxfDJCjvrTuVJaGaF4A/4r0PoUCP78PvoAOTABIKFe/yDy+X4Hffaw//jHPx7WavNil/XdfKzDNR/vsHabc+ZDP/rRj46+xIXQYzcgBOqBh8yqCTdqDoIOmNTzgQceCOf+FSjg6Pw8m4SjRTnI0zs7Bgweued8wmNcZ5jKwVB5etqI9HyY9ra3vS18RepTOYwqeEYc8mE6AqPg7TlOT5+QvTsQ3idczhtCjrsERp3oNz/KQ0Dn6QcEztFzFj2g9/QJ3l89Uwpz/CgZygAz/8iO/UTEfDkeuwensJ+NAuv4Adamjh6ie/AWvRuIPPUoPQDN6AFAhvD4sZh05v7BgdABugpFq1eq0UsyNo0LcSk7GjWEkUMruvb5fM/PQZ8yOfoo4MkImUqgnauI/AXvvwo5wNHmKDHX6IADI+TX/syV9ZnS+joIa5cBdF7qcvQXvYA9+4+w2oFzOgMvwTAOkAMndXDeAXw+YYcASwgPmM5JfYmH4eHzd7aj8F9NAjQ9j2eTnAdk6UDNdRxEHFy4Rzz6KEd/p8Ez9IwXuOwmCpEHaZEv8fyFI3v5sLUDW1K4vMbp6ZO3TejnHfL+5McnI+IQaC++tQD40Wf03XWelT70Ba5Z7EDAMPCB1zOlJEoCoSgwsSFMP1Ny796JUwdvB3AMAAAuNbaUQrITuOYVK549AcJIsOqGrXbw1INXnkxYrpC3Yr4QdhRt1HgbXrBkNmfDeEGK7947AeLgoB4HduJx7e8TCHH+10dhygJwo4E7//6ViLaGABL3Lv0ehFLzzO8T3EAQnim5ngFgDnwAkk8xedlsNAUw+4+0MOfN/DfvIZj39riQ8w+fbATn+cGvlwHRNnGvl+2eicMc+T/LG/ahPLzSB33enbZwMImDCnGIS4ivtoJnvlZ2GcA/z6gPDg9TeWwB8P3vf3/U2MbzHadnRq5zkMt+Q8jbi3ai7X0Kjn7BPZY2+z5ZBPSfI+/c2P7hmVKy1mpbTcDoStVsS8H4tBXvOhaiVS9rgNK986cTpO4dUF+7jIg6z+XVc4zEM5Y6cfQ35NGh0VGCErGDpg+HETLfA1TqNcWOVj+E+J2pI+eJI0YlynPNvTX8RXxFIw4MJs8jeUTTQQgoyiFJx6af6VZDDdkOG7tFefyrkLc55AoMwDgIIbe4I8A1YUOHs09Gni9lxcvzMgEnPFb2mH/5y18e9g1ihZHPeXPOkTjwQ2chLWCPZ89+59z3vKmn15Hnfp9yeHmKIQGM4/V9Ngl+4Qme4cENE3zRBhD88pxnnJMGYoUP97mGZ9aPk5fX14Ed2TDnz174pEfvqbvnM05Pn3z05f3HibZzPXsyIh265m0cJ9qRJbjst8N7HY7oOuf0BXbifKaUVLexbIYfX4g+EGE3y7Avv8A/1VYIFYvANALW6BgoDop/bwAeOyC6dtDjJ+l7gCy8RHP+EfjyQtdDnGgc4teJk0uFPfSjfXw6hk33fQqJ9wfx6aSxvI7GwVgkBTK6TvLTjGmBleTWqui83LaM/pUbbdt+v73FZDnIs4Yc2UaC3wsW8aM2/xx4eWKKA1xceVFEgMbBfawSb4hSO7lCc/TpBfeoHdzd8+XoH6k44bFSnoO08xwHLl8d48/IHw+YL1qpF4E86JBeJ/hx3rgP8dukfw/BO/kSKBOeOMcb58fXIcrz+vrLP+eXfW0AZievu3/aT17IDP6pP0cHdH9nwT22oPB9W0gDxduW9ftxYOGc534cS16npyLSUheO8R/6WF/bkJ+XxZHrOE8QckNePI8/4x71jFM8P2REmZ4Wiqd3mUHEW1+94/HJ23XiyYg48OX1JU8Cfcf59SP34dN1Ic6TL0yAPD+u4cnTMxrwOqIncX6fLiUbpbxliyWrVzQs5sOolBpFYAZghpepsTkPPFaf536mBOsbEp6I4I/w96SBNiQO5AZorBFy45fMpm2gPGi5QvThDG3U3TvBVtdkSvt6beu9nqferuEbcb2hNLoiu2RHAf7dCcVF4b1DQMgKwmul86DIDvq+BQOdz1/8srzRf8Sa+OTjHu9WW20V3tlwn85EGrY0ZmUMz+koEOVzTjxeIJM/5dARvROyRz/bNfPMjdSTEXl5h+acANGR2aGS8uisBHgGHMkbsOfINsqce+dGBuw9xPCe+MSB/AivlEHd+Z1c8uUe9Xf94h7n5Ol1x0iQzr/2ZKte8vRyIa555udel6ciN1yeJ7xQroMcbc01efPcDQH5c+3nkE/JOZGGQPuQjnr5c8rx9JTjdaVO3p7cI5A/cTwv8uDo9YU8X/L0dM+UMNbeLsiJdnCdhidfQcY91zfXWa+b6yi/reu8Q3Heny4lR0oCsLqsbUJe2XDZ6uXok/aa0D2aN8fTVcPJm2atfE5eaxbFouzO1MZGG9YyFxsempLPysqwTZoz21YsW2m5VNYmTJ5kjw+ustrEglX6Cta9xy4hOmJiRU8gef2CC/2LJn2eC0SH9s5Nh3XPlxeuPEPRXfHpLD5/yTNezrOdsHu0TFUQn7R0CjwhOpB3dgCCX4TyHxaPgxvP+FCNZZJ0IJ47aPOMPH/5y1+GuHS2pyLvnOsDCkCcZaK8WIUH77AQ6eCXuvkvUsEHq4ve//73rzVSgQAD55W6soOjAwoEcHj9AQR44ejp+Xk/jCq8EJdpIa+f5+NpIMqK8/tERJmkQ3a///3vQ3r4Y9rMt172vLw8AJDz+I/ik08cyFwnuE960hD4gRje6bgcfH8iiDaMy4tzyvV2Jq8zzjgjPOcZxnUsEc/lwPkzJW8TiDrhDPgUM+XQF7imPAwnX+pC8Ecdabf1EWni7f90Kdma0m2PDK6wQm931FgCRIwAxJRKNLXDXHZHMTrTMdH5mhUxG2NYrzHYkCBEz+QLNjwwbPmkvIl628qSy6pEw4b6inbE+95uNqGoaOqAjJKwAMg0hVJKGQX95PLvTK6cKD2dnU5Ih/WN0LgPEHEfRUehAV9WNwD2rFRhJQ+eMUR+eJAE4pIn4ArReTAaABwvah1w0GfvgDznNwWYI4XiHZO4eNm//e1vRzvgU5HXjyO8EOCDMjm+7GUvC142RP4AJPcJ1BfihzkAQeTCB1dnnXVWeA6QOX+eH4S8yJdrwAMiX+rGMU7OHyubkCPAh6E5/vjjQ3xofQDnAPhUBI/UC1DmJ//4aIxlh+x5RBvxzIHO6w6RjlUsfg3BD/Eh94CJRxzqQcCYH3300WHnT97v8N7CdxqNtyV5oVvcIx31gR+2VOBLZva9Z1WYk8uJsuCBgMyfKZEv5Trtueeeo9fkH3/OaJDpScCeUR88MtKlDsiCuNSTI/LZb7/9QrpnQsltD9vfbGqvLW+qsbKZoIQSmbx7GYBO/cP0huTTEJCFNfVhPjx69lwkRjt5BDJYtZ5MUcPvHltaGbHhnrxtdejeVnzJgXIb1UhqtIRkyT+nbEIeYuf835kcPBz8/Jp9cQA7FBiKTwFxzsoFto0gHj/QEQdAAARvmrh0CEAG4OEZaXkRzLA4Dozesek4LHkkb+J6h+KcZwA32za71/9U5EBFPpyTFyDjAZCCACH4hk/nxY/ch3fygGfqBsGLgw/n5AeflMNa/ThoMgKAyMPLjhNA+O1vfzv8ate3vvWt0dET5HHj+RE/DqRPRPDl20hQNrtSstwWw8nogucYYsrg6HVm1IVMqB9yh9wwsI0xFK8D8YgP8aPvrHZhwzl+jMQBHiIvT4duUR5pPT3fN/C7y+hI3LB5u0Euhw0xfBtCbvjgh99FcBnAM3WG/B56x2Z3rOn334yAH/KgDvDEOff4sfZnSsmd33mM7fyKw2xhomKLE3UbaDaszPbFQvaMwG10n5w1usG0dXTtLz+fY4G6NysN6+2dZAO1hi2ujdjyXMK2OHRf2+1dbxaaSTbSnUwuK1lFSuVKjpIlnwOTPYAByhr3egA/pmfYNtlBDqDhHnLhnCNpPR15EBw8XY577LFHWOUAwPCcZyzhJD33HBAcoCmP7YPZ/5y0xKNDcYQYekMAgxulJyPvsBBlO2h4fnRiQJq8eA6RxgOg6ffp0PDr0xcOWBD5EpAN67f51oH0/hwjCvg7OHj5Xm8cOUZSXDvY+NLBeBlOeNEbQrQR+VIeeZMHfHHtxh6iXvH64HU7r+ThRFq8YsjrgbGD0AXa1MnLpT6uK5yTjkBeyMvJdQFyXhyUnZc4jb1+JoRcMDzM8TOaheDZZU69qCcyg2/ay3lHrm7QOEdHAX1065lSEm9/xze+yrY/8mWW3WFzW5GVp8pXpq20FeTe5zsh10jJCKSCMSDI6Q8jgo01AN5PN0DpfMGWlYetMrFkyybkbNMX7Wf7fOy9ZrMnqzUFCgkZTP2jG4YQpnlUMOlbnUz+zYkO5wAPeUfmC9y5c+eOXgN43hFQfif3dlB6QJL4dArAm+WakMf/zW9+E3Y5JB86FmmgIHMRw2P/SOvII48cBQPydSCkEzLXzovepyLKjQOEl+NHiK8tHczovHRinnMEvPzjKvjlnl+Tr3u5Do477rhj+JhnLCgBKD66gDw+5UFu0JAlz6gj0yWQ8+qyhxj1/L2E/JC3e6QQZTkwOy8AFvtC+TW8xGXyile8YvRlNPnQ1sjZ2zROXg55IBNGcqSDj3gboDPIGnKdoHx+VB8irvPjR4/3TAl+CBB69p//+Z9hlRWEQ+DyoZ5eD9qLOnvfiMuPqU0+4nID/kxIaCTGdtja9vjSJ22rI15o1XkzbHBit63OZWxQhQ9n0lZRJxlRKKei40i4JwOxEYfyMwhDqv/jbY2OpnTb4xOzts8732D7fuMLZlvOkfZI6QAjwF3/+enHIGgZAn5jACtQq6/xRv6dCWVHmemkdCYU2AGCj7HwwFF4CGVHoXkOKHMfT45rB0E6KSt8/vznPwdAdc+ccvic3TssedHhOBIo198t0MnY94YO5Z3L83Fw8S+Cn4y8Q1M/AuVAcfBgozhGEAAtcSDqRRyOeHnwQF7U3b0+eHSeeE6H5yMsViTxHCDz8qA3vvGNwRgiZ2REGq8bxDmy5Blz3XwRGicHUYiXzi7HJyNvN+rFF9YANqDlbUUdaRfI647hgk+XEe3sBhge2YqA0Rj64eDmcSHOPX78vqclbyd/jiwhFhV4+wLAjJQ8ztijp3mm5HpMftSHqSx+9xm95xnyoU2QD7xxDsEHaWhj0nOf3xxmOogVXR7vmZDGnCW5A2qYQtK2fM8x9sYTvmvP/8BbbcW8qfZQX87uyzTt4ULClvVmbbk826XdaVtcStnyQsZW5DfesPIpwvJsypbJc1+RS9uqguqu6yUSE9er+4o2uPlU2+JNL7Njf/M92/SDx5pN0MOiOmNRik+nTKCg8go7ikpTJWU46VIZKcGarvbsEnPeeLpjlcWV3D1yBxrvpBtCPocbB5l4Oe6xkzf5cs4RoMFLZD6fLYMBNp45UAA83klRftJz5KcRWXJJxyE+IANoAooAG/l6/k7kRadnm2nSwCudiOkRBxHKIn8HU16y/fGPfwzn5MeIZOzIhXqTtwOUy8/l6kfqduaZZwbDRMenLPjz+jnIwJsfPU9WguDhsQplt912GzU2PrdO+eTFaIAX04yiIPJ0o0sdvQx+hBuQxnhy3+sL+aiHNKeccko4fzJy/iG2g+ClOvPT3tbw5TLjuwZ2f2W7COTCM28jb1snyoZPl4cbIeKQxmUAINLmEAaHKTCm+vydh7ct5RGXF6jcY/8b/9LZy43Lnp/79DLRbwhjSJv7fQheqCfE9Iz3BeLE6wN5/+A5fZEFC2xJgmMAeb6e1q+dH+RBX0HvyWNs/k+HEi3VQIMjq+lfkW2P62qQpStVqiz6Qwutct9DtmrZcjWQOpYY4eVkVgCWFANhIf1GSBvCNg1LAyB8FzYNSAfJTFIn2W8P9RY1qHC+LbGNCMpTiWz4ERdr8cGW5McKoE5ZqHlL/xySUBlm+58tomO6V4aHCFjQaahHXHFQaqYY/B7pqK93nCci8vI4KL138ngZdEg6BQT4IEv3CJEv5XAP48T+8WxHzIdN8EvexN1uu+2Cd8+2tz63SYfHqDiRBzw4IJI3wetE/nQg5zleNvV1gIS8vWn7uAx4KerfE8TLfyL5ERwYnIjLj5Iz2qEj85zy4IvySIPXCiC89KUvDYDuZToRj4AuUg9k7PW+4447wotPDAXfRLgO+G8r7LrrrsGouFGAqOP6dMVlBJGednHZQDx38nMMJpvF4dXCF9MpjLRYiRQHubhc/BoZQPDDyAdji8yRGc+8XPhH13j5j35gODjS/jyjrdEjfnSGlTHkgXdP/fkClhVFlEd7uT5QL2+/eNsiFwjZeNw4v64frhvoOHy6LJ+KWMFz22232ZVXXhkcGsr2+vMbGExfAfa8ECdf5Ixc6FNxGW4I4YC4DKFEG+TXdTWsMMdHlYXSWQKjU1dj8EUq69DDWnRZxtDIihWu12S00dGGsu4KLuUI5zQ261n5ajjVtpou+Q5X3VxSSVqOeX09bslAOiHTsAQ20QoePxTuhb/PDqHMdIq4p+odHgVCgd1jRsFd8d3b3BByIHCFincUyvD7lEX+fu0djTgEL5v0zhf3/Rqe1hd/feRlQXRErw/3qSvX5Os8QvEOESfkRbq4DElDfAecJ5IfzymDuKSJd1TAlbRerj+jPPIhHR3cvXCAwDs7/HgbQtTR0zgBRL6yxstykAJcKJd7lAe/5EkduAcB2tTZ+Xsi4CdPrz/3vR7OIzIgf57FyyCt8899551yie+8EofnY6/J2/mIOx1OHscJPpCRe95xoIeQoT+DR9K7LJAXecEDaXju/MbzcX2Axpa/IUTd4cHzjpcDf5Dz+HRoXeBvNOlJYb1+TeAvVQ8ApjsyABJWWLuumJ2GChecp2FqjfA2JqIm0eDuianRjD7x91U5EL+gRaMmlTqpcRJvepspDQE7sM9KnZQEmVQ6IJBySI0KhA/eKFU3wqno2QT+OLnyxhXHlZOO6x3LaX331kdxIPDO78r6RMpP3qTzjgSNVWye08nHpucez+L3KYd7lMuR/OP15B7lkBb+/PhExHOIdMQbCxCUw/2/V37cIz3epJdPWdx3mUHkS6AOyJR8PL7XxSl+zTlADviMrR/58Iyy47IjDeR5xMEmLqf1AT/HuKwg9Ay+KSMOppxThsvE+fb6x+vo18ThPJ4uTpQVH/VB5EdZbtzJM54WI0H9vI5xWUPxOnv7+tFlE48Djy5XN6KQp3kqIg35ucFweYzlb6wM4rLdUFoX+Os1oZcaMKOMdR8DsAaYItCy2pqhKD9CnkgyXObpmow2NqKeT0bNJgADmK9LdBNAvlGvWlUGIJvNW4ZpMgmO97cIDeDn1GWYRqjhoWhUdGs68T+aaC/IGxvlQakgFGxsB+dIGu90xH8yQvlQ7rEK7h3WFZNrD5Tj5UJe9lgifVzRPa3H5Rr+xt538ueQd1iXB3l7B40TvBCc4vWPd2pofQA5Vn7r49fJQQteiON1geLyjHuRcR7W5+XGyeVHGviMl005/jx+34k68Jz2c/7XB/ykRw4Qx3h7kQdxXUbx+sfr5ORy97ydSOdlElzWnpfLD13kGAdQriF44zzOH+nIdyx4ejryI77zNVbHqR/5xsuDSAdvcR1/KiKty29sO0F+z9tlbHtuKI0FfpkSXeCONtQxdKCKSQTe0PA1iiOjICueL1gyL0EB+rpFJmSzUQb9oZ7r3I+FdAz0WaDTjC3B7MC3Bj05K2QL0bw+jxVCGkVAdqPpFdqeMbQmq2eNUA5XWFciCEVDyfwe7YhSeeeBNkSx6DTkD7igkE7kwTM6OGWQF+Vx3/lxTwcijiv12I4GT54H+ZEOIq/4OcQ1gAr5PQCSvCHukQ+8OWA5ebk89+DpIPghjsej8z2V/OLpSReXEQDu9SJv520sASykHQusgL7n73y5TAnEde+bvJ1XjvDBfcrz+JDzBz/xsp6IHFAxYMQnvcuVPJAR10w1wZvzEJc/MoPIx9NTL9oagkfyJr+4rMiLeH4PObmseMbR84YP58/1iWv4gMiH4DxB/oy8CU7Om5cZlx18kS/lEe+piHxITzpvDyevB88gP0dviLch+T8VJZtCoWZamWVUCRbni3iJG5/kCC9/5dnyFoBQYwkocBb7qGmjCgGKnzzUGgKuUFsJOcGQc82zRqsWdvzkKZJSs1tdI4R6p0GQGx6+dx9SoYZhlOFCfZbJlQNFcaVyxUSJ/B5KRkCpXMldoZ+KPB35OtEJ6Oh0DC+De3E+SENa5yN+hLx87vk5AEM6iA48thNwHR/6c5+6wgfkcSmD+3QmiPwdLJw4j3d46hfviDwnPz8nUH5cfqShPOrOfa65Tz6k9fTE8fvxMp14Br8849wBzeM66LhMuYYoj/sElxFlAjIeB/DxOvGM+0/Ex1jy+mBgSMc1fHIOiDrfvCimXbiGKMfz57nXh/TcJ3ibkcZl6LzBr+cRN/6cE3hG+V5PB3Ty5x55cB/CMfD6wgv5xPmEyDMuc+67PD0uaZ23DSWvo+cFce75kHc8v/g5fDxTYv9N/VMlKCy6FwrxZYj+LDpHGGsUXn82ygDv/KPGTxRYuaTBVzCA4cOtTs0JyEddV2dRA2Ai2dE0k9E1tyNMCU8J3mTKJrpY04bPGqHoEMrkSuwK7IQceO5xuSZOXMmeiFDQoAMd8k5IJyA4eX4oK2nobBDnBOePwDWdknOODgacxzuIgxwU58E7tJfnfHiZ5Ot1dpmEtuyU78TzeHmQjyYgl4/ntT75cQ4P8Wdell97HM+P+kPkCWC5LOJEnXju8nbycr3OfuS+n7t8yJNzN5SUxT14dR6eikhPfPd8XT7cozyvH/G8nuTtxsaP7l27DCBPyz2XIQEeuU8+lBfnH53wvDin3s4LPMQNAAEiXlxOEPkTlyNy9ny9XM69LvBDPSDick0+PH8q8vw9LjxSX/KAnC/KIS7POBLvH0GJVpsJ/jU0tstHD9dWPpDtqaHhX5vWqvTTprXlsj6ZUI53JV4Krx1nrFzHaZz+NchBBgBiSSa//BQnwNNBiLgQ1w6q4/SvRevM8eO7xkMERmtCdD8CtTVh3XgbW4jX+emHteWyPuL+Gs9/LB/jNE7/mgRIAPp4tHi98XsQIO/3Hfgd9PFSx+lfi+KgDyXUaP8Y53ecxmmc/m2IaQgAHKCPAzn3Hfzjq4u4D7gQd9zr/9ejbbfdtnMWGYFxt3Ocxmmc1iHmngF45tKZdwbQOTrocw3ou99IfJ6P+5EbByXmz58/2lLjjTZO4zRO47Rx0zrTOuu5Xsvj58bYSOM0TuM0TuP0r0/rw+8nuk6uD+g9g/U9G6dxGqdxGqd/DXoyrH5i/Db7/x+eFXNN5/BsAAAAAElFTkSuQmCC;" parent="1" vertex="1">
          <mxGeometry x="300" y="210" width="200" height="55.5" as="geometry" />
        </mxCell>
        <mxCell id="00VoV6gP4ef_sgZay2wy-14" style="edgeStyle=none;rounded=0;orthogonalLoop=1;jettySize=auto;html=1;entryX=0;entryY=0.5;entryDx=0;entryDy=0;" parent="1" source="00VoV6gP4ef_sgZay2wy-3" target="00VoV6gP4ef_sgZay2wy-2" edge="1">
          <mxGeometry relative="1" as="geometry" />
        </mxCell>
        <mxCell id="00VoV6gP4ef_sgZay2wy-3" value="" style="sketch=0;outlineConnect=0;fontColor=#232F3E;gradientColor=none;fillColor=#BF0816;strokeColor=none;dashed=0;verticalLabelPosition=bottom;verticalAlign=top;align=center;html=1;fontSize=12;fontStyle=0;aspect=fixed;shape=mxgraph.aws4.email;" parent="1" vertex="1">
          <mxGeometry x="90" y="60" width="78" height="69" as="geometry" />
        </mxCell>
        <mxCell id="00VoV6gP4ef_sgZay2wy-15" style="edgeStyle=none;rounded=0;orthogonalLoop=1;jettySize=auto;html=1;exitX=1;exitY=0.5;exitDx=0;exitDy=0;exitPerimeter=0;" parent="1" source="00VoV6gP4ef_sgZay2wy-4" edge="1">
          <mxGeometry relative="1" as="geometry">
            <mxPoint x="300" y="240" as="targetPoint" />
          </mxGeometry>
        </mxCell>
        <mxCell id="00VoV6gP4ef_sgZay2wy-4" value="Shared drive" style="sketch=0;aspect=fixed;pointerEvents=1;shadow=0;dashed=0;html=1;strokeColor=none;labelPosition=center;verticalLabelPosition=bottom;verticalAlign=top;align=center;fillColor=#00188D;shape=mxgraph.mscae.enterprise.shared_folder" parent="1" vertex="1">
          <mxGeometry x="98.9" y="190" width="60.2" height="70" as="geometry" />
        </mxCell>
        <mxCell id="00VoV6gP4ef_sgZay2wy-19" style="edgeStyle=none;rounded=0;orthogonalLoop=1;jettySize=auto;html=1;" parent="1" source="00VoV6gP4ef_sgZay2wy-5" target="00VoV6gP4ef_sgZay2wy-18" edge="1">
          <mxGeometry relative="1" as="geometry" />
        </mxCell>
        <mxCell id="00VoV6gP4ef_sgZay2wy-5" value="Doc Submission Website" style="sketch=0;html=1;aspect=fixed;strokeColor=none;shadow=0;align=center;verticalAlign=top;fillColor=#3B8DF1;shape=mxgraph.gcp2.website" parent="1" vertex="1">
          <mxGeometry x="77" y="350.87" width="91" height="88.27" as="geometry" />
        </mxCell>
        <mxCell id="BUz5Cs6KhjB94nJ8huxt-8" value="Sharepoint Action TTrigger" style="edgeStyle=none;rounded=0;orthogonalLoop=1;jettySize=auto;html=1;entryX=0;entryY=0.5;entryDx=0;entryDy=0;" edge="1" parent="1" source="00VoV6gP4ef_sgZay2wy-6" target="BUz5Cs6KhjB94nJ8huxt-5">
          <mxGeometry relative="1" as="geometry" />
        </mxCell>
        <mxCell id="00VoV6gP4ef_sgZay2wy-6" value="Sharepoint Library" style="shadow=0;dashed=0;html=1;strokeColor=none;fillColor=#EF8F21;labelPosition=center;verticalLabelPosition=bottom;verticalAlign=top;align=center;outlineConnect=0;shape=mxgraph.veeam.ms_sharepoint;" parent="1" vertex="1">
          <mxGeometry x="640" y="110" width="44.8" height="44.8" as="geometry" />
        </mxCell>
        <mxCell id="BUz5Cs6KhjB94nJ8huxt-7" style="edgeStyle=none;rounded=0;orthogonalLoop=1;jettySize=auto;html=1;exitX=1;exitY=0.5;exitDx=0;exitDy=0;exitPerimeter=0;entryX=0.5;entryY=0;entryDx=0;entryDy=0;" edge="1" parent="1" source="00VoV6gP4ef_sgZay2wy-7" target="BUz5Cs6KhjB94nJ8huxt-5">
          <mxGeometry relative="1" as="geometry" />
        </mxCell>
        <mxCell id="BUz5Cs6KhjB94nJ8huxt-10" value="Object created/modified trigger" style="edgeLabel;html=1;align=center;verticalAlign=middle;resizable=0;points=[];" vertex="1" connectable="0" parent="BUz5Cs6KhjB94nJ8huxt-7">
          <mxGeometry x="-0.3146" y="3" relative="1" as="geometry">
            <mxPoint x="45" y="27" as="offset" />
          </mxGeometry>
        </mxCell>
        <mxCell id="00VoV6gP4ef_sgZay2wy-7" value="Azure Blob storage&lt;br&gt;&amp;nbsp;for archiv" style="verticalLabelPosition=bottom;html=1;verticalAlign=top;align=center;strokeColor=none;fillColor=#00BEF2;shape=mxgraph.azure.storage_blob;" parent="1" vertex="1">
          <mxGeometry x="750" y="20" width="50" height="45" as="geometry" />
        </mxCell>
        <mxCell id="BUz5Cs6KhjB94nJ8huxt-9" style="edgeStyle=none;rounded=0;orthogonalLoop=1;jettySize=auto;html=1;" edge="1" parent="1" source="00VoV6gP4ef_sgZay2wy-8" target="BUz5Cs6KhjB94nJ8huxt-5">
          <mxGeometry relative="1" as="geometry" />
        </mxCell>
        <mxCell id="BUz5Cs6KhjB94nJ8huxt-11" value="Record Added-Trigger" style="edgeLabel;html=1;align=center;verticalAlign=middle;resizable=0;points=[];" vertex="1" connectable="0" parent="BUz5Cs6KhjB94nJ8huxt-9">
          <mxGeometry x="-0.1326" y="-2" relative="1" as="geometry">
            <mxPoint as="offset" />
          </mxGeometry>
        </mxCell>
        <mxCell id="00VoV6gP4ef_sgZay2wy-8" value="" style="verticalLabelPosition=bottom;html=1;verticalAlign=top;align=center;strokeColor=none;fillColor=#00BEF2;shape=mxgraph.azure.sql_database;" parent="1" vertex="1">
          <mxGeometry x="643.65" y="295.27" width="37.5" height="50" as="geometry" />
        </mxCell>
        <mxCell id="00VoV6gP4ef_sgZay2wy-16" value="" style="verticalLabelPosition=bottom;html=1;verticalAlign=top;align=center;strokeColor=none;fillColor=#00BEF2;shape=mxgraph.azure.user;" parent="1" vertex="1">
          <mxGeometry x="10" y="210" width="47.5" height="50" as="geometry" />
        </mxCell>
        <mxCell id="00VoV6gP4ef_sgZay2wy-20" style="edgeStyle=none;rounded=0;orthogonalLoop=1;jettySize=auto;html=1;exitX=0.94;exitY=0.06;exitDx=0;exitDy=0;exitPerimeter=0;entryX=0;entryY=0.5;entryDx=0;entryDy=0;" parent="1" source="00VoV6gP4ef_sgZay2wy-18" target="00VoV6gP4ef_sgZay2wy-2" edge="1">
          <mxGeometry relative="1" as="geometry" />
        </mxCell>
        <mxCell id="00VoV6gP4ef_sgZay2wy-18" value="" style="sketch=0;aspect=fixed;pointerEvents=1;shadow=0;dashed=0;html=1;strokeColor=none;labelPosition=center;verticalLabelPosition=bottom;verticalAlign=top;align=center;fillColor=#00188D;shape=mxgraph.mscae.enterprise.shared_folder" parent="1" vertex="1">
          <mxGeometry x="210" y="330" width="60.2" height="70" as="geometry" />
        </mxCell>
        <mxCell id="BUz5Cs6KhjB94nJ8huxt-2" value="OR" style="text;html=1;align=center;verticalAlign=middle;resizable=0;points=[];autosize=1;strokeColor=none;fillColor=none;" vertex="1" parent="1">
          <mxGeometry x="684.8" y="80" width="40" height="30" as="geometry" />
        </mxCell>
        <mxCell id="BUz5Cs6KhjB94nJ8huxt-16" style="edgeStyle=none;rounded=0;orthogonalLoop=1;jettySize=auto;html=1;exitX=1;exitY=0.5;exitDx=0;exitDy=0;entryX=0.213;entryY=0.64;entryDx=0;entryDy=0;entryPerimeter=0;" edge="1" parent="1" source="BUz5Cs6KhjB94nJ8huxt-20" target="BUz5Cs6KhjB94nJ8huxt-15">
          <mxGeometry relative="1" as="geometry">
            <mxPoint x="1461.85" y="107.92999999999984" as="sourcePoint" />
          </mxGeometry>
        </mxCell>
        <mxCell id="BUz5Cs6KhjB94nJ8huxt-17" value="Transaction Stats/Audits" style="edgeLabel;html=1;align=center;verticalAlign=middle;resizable=0;points=[];" vertex="1" connectable="0" parent="BUz5Cs6KhjB94nJ8huxt-16">
          <mxGeometry x="-0.1561" y="-1" relative="1" as="geometry">
            <mxPoint x="73" as="offset" />
          </mxGeometry>
        </mxCell>
        <mxCell id="BUz5Cs6KhjB94nJ8huxt-12" style="edgeStyle=none;rounded=0;orthogonalLoop=1;jettySize=auto;html=1;entryX=0;entryY=0.5;entryDx=0;entryDy=0;" edge="1" parent="1" source="BUz5Cs6KhjB94nJ8huxt-5" target="BUz5Cs6KhjB94nJ8huxt-6">
          <mxGeometry relative="1" as="geometry">
            <mxPoint x="1170" y="270.2950000000001" as="sourcePoint" />
            <Array as="points">
              <mxPoint x="1202" y="270" />
            </Array>
          </mxGeometry>
        </mxCell>
        <mxCell id="BUz5Cs6KhjB94nJ8huxt-13" value="Add Transaction to UiPath" style="edgeLabel;html=1;align=center;verticalAlign=middle;resizable=0;points=[];" vertex="1" connectable="0" parent="BUz5Cs6KhjB94nJ8huxt-12">
          <mxGeometry x="-0.0893" y="1" relative="1" as="geometry">
            <mxPoint x="11" y="1" as="offset" />
          </mxGeometry>
        </mxCell>
        <mxCell id="BUz5Cs6KhjB94nJ8huxt-5" value="" style="shape=image;verticalLabelPosition=bottom;labelBackgroundColor=default;verticalAlign=top;aspect=fixed;imageAspect=0;image=data:image/jpeg,/9j/4AAQSkZJRgABAQAAAQABAAD/2wCEAAoHCBYUFBQWEhISGBgaGhgWHBkYHRISGhgZGCEZGRofHhgcITwnHB4rIxocJjgpKz0xNTU2GiQ7QDs0Py40NTEBDAwMEA8QHxISHzQrJSs/NTQ2PzQ0NjY2NjE2NjE0MTQ2MTQ/NDY0MT80NDQ0NjQ0NDQ9NjE0NTQxNDQ9PTE0NP/AABEIAMsA+AMBIgACEQEDEQH/xAAcAAEAAgMBAQEAAAAAAAAAAAAAAQYCBQcDBAj/xABBEAACAQMCAwQEDAQFBQEAAAABAgADBBEFEgYhMRNBUWEicZGSBxQWFzJCU1SBocHRFVKx4TRicnSiNUNz8PEj/8QAGgEBAAIDAQAAAAAAAAAAAAAAAAIFAQMEBv/EACgRAQACAgAFBAICAwAAAAAAAAABAgMRBBIxUaEUIUFhFYEFcRMi8f/aAAwDAQACEQMRAD8A7NERAREQEREBERAREQEREBERAREQEREBERAREQEREBERAREQEREBERAREQEREBERAiVHXeOaNtUNIK9R15NtwAp8CT1PqltnB+JrJ6N1WFQHJdnBP1lYkgg9/WdvAYKZrzF3PxGS1KxNV4+c6n92qe8kfOdT+7VPeScyiW/43B28y4vVZO/h035zqf3ap7yR851P7tU95JzGTmPx3D9vMnqcnd035zqf3ap7yR851P7tU95JzHMjMfjuH7eZZ9Tk7un/ADn0/u1X3kj5z6f3ar7yTmGZGZj8dg7eZPU5O7p/zn0/u1X3kj50Kf3ar7yTl+ZizTE/x+Dt5ln1GTu6ifhRp/davtSWHQeKadyQpRqbHmFYg7h5Ed/lOQ6TYbsO45fVHj5nym9RyCCCQRzBHIgzVk/j8UxqvtP9o+svW3d2OJXeGdeFcbHIFRR6twHePPxEsMpcmO2O01t1WVLxeu4ZRESCZERAREQEREBERAREQEREBERAiaHijh5LyltbCuuSj+B8D4qe8TfRJUvalotWdTDFqxaNS/PF9aPRqNTqqVdTgg/1HiD1Bnz5nZuM+GFvKe5MLWUei3cw/lbyPce4zjVekyMyOpVlJVlPIgjqJ6TheKjPX7jrCqzYZx2+mOYzMcxmde2rScyMyMyMzGzTLMjMxzIJiZZ0ktPv0uw3nc49Af8AI/tPHTrI1WychB1Pj5CWRFAAAAAHICa5naNra9oZxMcxmGp60azIysrFWU5BHcZ0jh7WluU54Dr9Jf1HkZzLM97K7ak6ujYZT7fEHxBnJxXDRmr9x0b8GecVvr5dgiazRdVW5phl5EcmXvBmznn7VmszW3WFxW0WjcJiImEiIiAiIgIiICIiAiIgIiICIiBEpXHfCYuVNago7dRzHTtFHd/qHd7JdYk8WW2K0Wr1RvSLRqX5sYEEgggjkQeRBHlMczqHwg8I7w1zbL6YGaiD64HVgP5h3+PrnLcz0vD8RGam4/f0rL45pbUssyMyMyCZu2hpJM97G1NVsDko+kfD+88ra3aowVfxPcBLPbUFRQqjl+ZPiZHe0bW5f7elKmFUKowBM5ETLQmJEQJkZifdptlvO5voj/kf2kbWisblmI2+7h3fSYVQSB02/wAw8/KdEtLkVFDL+I7wfAylCfXYXrUmyOYP0h4j95UcVj/y/wC0dXZw+b/HOp6LlE8reuHAZTkGesq5jXtKzid+8JiIhkiIgIiICIiAiIgIiICIiAiIgYzlfwhcIbC11br6J51FH1T3uB/L4ju6zqswZQQQRkHlz5zdgzWw35q/tDJSL11L80kyaNNnYKoyT+XmZc+PODWt37W2Umi7YKj/ALbHu/0Hu8OnhNdp9mKS+LHqf0HlPQ4stctYtXorMkTj9p6vSytFprtHXvPiZ9EiJu05ZmZ90xIiZYTEifRZ2xqNgch3nw/vMTMRG5HpY2hduf0R1P6CWBFAAAGAJhSphAFUYAmeZxXtNpbIjTLMZmOYzIMthpeomk3Pmp6jw8xLXTqBgCDkHoRKJmbbQr8qwQ81Y8vI/tOLicG4569XZw+bU8s9FqiRJlesCIiAiIgIiICIiAiIgIiICIiBEwdwASSAB1zywJkZz/i7iLtCaNFvRHJiPrHwHl/WbsGC2a/LX9tWbLGOu5fNxTxAa7bKZxSU++fE+XhK7mRE9JixVxUiteimyXte3NKcxmRE2IJzGZEzpUyzBVHMwM7egXYKv4nwEsNvRCKFX/6ZhaWwRcDr3nxM98zkyX5p1HROI0yiY5jM1MsomOYzAym40GwLN2jclU8v8x/YT5dJ041mychR1Pj5CW6mgUAAYA5ACcPE59RyV6u3hsO55rdHpJiJXrAiIgIiICIiAiIgIiICIiBERKlxbxF2QNKk3/6Ec2H1Af1P5SeLFbLaK1QyZK0jcvm4v4jxmhRPPo7Du/yg+PjKPIJ8YnpcGCuGmo/6psuWcltynMZkRN7UnMZkQBnpAzRSxAAyTN9Y2gRfFj1P6eqeen2ewZb6R/Lyn3TlyX5vaOiUQmJETSkmJEQE+3TbBqrYHJR1Pl+88rG0aqwVfxPcB4y52dqtJQqjkPaT4mcnE5+SOWOrpwYOedz0elCiEUKowBPWJMq5na0iNEREBERAREQEREBERAREQIiRmabiLW1taeeRduSr4+Z8hJUpa9orWPeUb2isbl8/FOvi2XYhBqsOQ67R4n9BOZ1KhYlmJJJySeZJMyubhqjM7sWZjkk/+9J5T0fC8NXBX7+ZU+fNOS2/j4IiJ1NBERATc6bZbfTcel3Dw/vPLTLLozj/AEj9Ztszny5PiGYhOYzIzGZpSTmMyMxmAzPe1oNUYKoyT+XmfKeVGmWYKoJJOAJc9J04UV8WPU/oPKc3EZ4xx9t+DDOS309tOsVpKFHrJ7yZ9kRKiZmZ3K2rWKxqExETDJERAREQEREBERAREQEREDGcd125apcVmcnIdlAPcqkgAfhOxyuaxwnRuHL5ZGPUrjDeZB752cFnphvM3+XNxOK2SuquXxOgfIGn9vU9ix8gaf29T2LLb8jg7+JcPo8vby5/E6B8gaf29T2LHyBp/b1PYsfkcHfxJ6TL28ufzYabZ7vSYej3Dx/tLivAVIEZrVD5YXnNiOFkHSo3sWa7/wAjh1qs+COEy9vKrxmWn5MJ9o3sEfJhPtG9gmj1mLv4Z9Jl7eVWzGZafkwn2jewR8mF+0b2CPWYu/g9Ll7eVWzMkUkgAZJ5ADvlm+TC/aN7BPs0/RadI7hlm7iccvUJG3GY4j295Srwl5n39mOiaWKQ3Nzcjn5DwE28RKy9pvbcrGlIpGoTERIpkREBERAREQEREBERAREQEREBERAREQEREBERAREQEREBERAREQEREBERAREQEREBERAREQNLxBxNbWIQ3VXZvyF9F2zjGfojzE+bRuNLG7cU7e6RnOcKd1NjjmcBgM8ufLwmi49IGo6NuxjtnznGOi+M1/wpNQd7FLfs2vPjFMps2l1XOSW28wucHn4Z7oHUIlN1/iO4+NrY6dSpNX2CpUqVS/Z0lPTIXmWP6jrPmocSXlpd0LbU0tmW4JSlXt+0VQ4xhXV+8kgcvEdeeAvcSq6NxBVfUL2zrrTXsglSiVDKXpt1LZY5IJUZGO+a7Q+NXr6rc2RRBSQOKbgNuZ6RUVASTg9W6Yxt84F7iVS04iqVNSubYCmLe2oqzsQ27tHwwGc42hc93dNZp+ualfo1xYJZ07fLLS+MCqz1thKljtICKSCPHkYF+iU3S+Lmr6feXHZBK9stwtSmSWUVaKlsZ6lTgfmO6a/hbiHUr9aFdKFrTt8otQv2geoelRqQBICjmBu64gdCmp1/XqFlSFW6qbELBAcMxLEEgAAZPIE/hNtOe8Q2y6jq1K0cbqNtRetVHIg1Ko2Ip8wDuH4wL1aXKVaaVKbBkdVdWHQqwyD7DPolE+Cu7YW9azqnNSzqvROeWUySpx4dQPICbLR+IKlbUr+0daYp260ShAYMTUVWbcScHmeWAIFpnj267tm5d2M7cjdjxx1xK5W1+qurJZBafZNbGuTht+8My4znG3Cju/GUhP4p/G62z+G/GPiw+l8Z7Lst3o9PS39M90DsESncRcSV6DWtrQpUqt7XXOMuKKbR6bn62zOcDkcA/jr7ziLUNPei2pJaVLeo60zUt+1U0mbOCwfqv7HyBDoMSk8ZcU17S6sqNvQSt24q+hzDllC7MPnCrk5YkHkDNZf8WajYVqS39tbVUr7lpi1NQMtTHooS/XJIGfWe7EDpMTnd1xLqVnWtm1CjadhcVFo4omqXos59HczcmwOuOuD05Zs/EFa+yiWFK3OdxerXZwiYxgBE9Jicny5QN7PHtl3bNy7sbtuRux0zjrjzlO0vX7ylfJZaits3a02qUqtDtFB2fSVlfv5H8uueVXuP4n/HW2fw7t/ip27vjPZdhvO3dj0u0z4coHX4lQ1ziG4oC0tqdOjUvrhegNQUEKLmo5P0tgPQdSJ8lTX76zuLdNRW1ejcOKS1aAqIadU5wGVycg+Xn6oF6iIgIiICIiBzj4SLJK97pFKqgZHqurKcgEYXlylr0jhaztGL21rSR8Y3AbmweoDNkgeqbK4sqbsj1KaM1MkozKrMhPIlSeh9U+qBzWneJZa9dNdMES7pUjSd/RTcgRCpY8gcqfy8RI4zvad9eaba2rrVenXW4qMhDrTSngncy8gT+3iJftR0yjcLsuKNOovXa6q4B8RkcjMNM0e3tgRbUKVIHrsVUz6yBzgUjj65Fhf2WoY9ArUtquBkkFS1P88+7NC1q1lZaTqLhi6Vmq1zjmUvMsxI90fjOs6hp1K4XZXpU6i5B2uquuR0OD3ybmwpVKZpVKSPTIC7GVWXAxgbTywMD2QKPwNYNXsb24Oe0vnuHBPUIdyUx6hzI9cr/AWmWdS1VLi8uaFxSZ0q0vjNS3CkO2MJuAAIx078zrlvbrTRUpoqqoCqqgKqgdAAOgmu1Dhuzrtvr2dvUb+ZkRmPrOMn8YFYSws6Wl6qbCqaqtSue0cua2agpEnLHqcEH8Ztvg2/6XZf+P8AVpvaOn0lpmklKmtMgqUVVVCpGCCoGCCOs9bS2SkipTRURRhVUBVUeAA6QJua600d3OFVWdj4BRk/kJyrg3R766Wvf0b4WxuqjNtNFKzFELKnpMeQAyAB3ATqlxQWojI6KyMCrKwDBlPIgg9QRFtbpTRUpoqqoCqqgKqgdAAOggcwsbavpms0murgVlvkam1QItEdom3ZlQcZ5KM/5zPt0+/p2uvagLh1pivSoNTZyFVtiIrAE8s5De6Zfb3T6VbYa1Km+xg671V9rDoy56Hznlqei29zt+MW9Grt6b1VyPUSOUCg2Wr0rriFHoHei2j094HouyuxYo31lG7GR3gz6a99Tt+IXau601ezUKzkIpIbpk9/I+yXihpdBGV6dCkrIppqVVVKITkqpA5LnngTz1PRbe52/GbejV29N6q5XPXBI5QKPxDfU7bWbK9qsPi9W2agKvVFbLuCW6AEOPz8DHwnapSu7elZWtRK1evVp7Vpsr7VU7i7EfRHL+vgZfq+n0qlPsqlKm1PAGxlVkwOQG0jHKfNpmgWtsS1tbUKbHkWREViPDcBnECp8TJt1jRB4Lcj2UwJ6fCN/iNH/wB4v6S5VrGmzpUenTZ03bHZVLJuGG2sea5HXEm5sqdQo1SmjlG3oWVWKN/MpPQ+YgU34Wf8Paf7uh/Uzy411OodQtLNrqpa29SmztVRhSd2BYBBUP0Oi8x/PLveWVOsFFWnTcKwcB1VwGXoRnoR4zz1LSqNwoW4o06qg5AdVcA+Iz0MDmFvSt01yxS2uq1xtSsHapVa5CsVJCqx5A45kDxE3F/dpQ4hR6zqivYlFZyEUsHLYyeWcCXK10S3pdmaVtQQ092wqiKU34DYIHLOBnxxMtT0a3uQoubelV2/R7RVfbnrjI5QOd8eJRbUNOua1WotpUptT7ek7UwrNl0PaL0VgR+APhNk3D+l9pQ331So/aI1JGuWrZqA5XC5Mu76dSNIUTRptSACimVUoAvIAKRjAnx2HDVnQbfRs7ZHHRlRAw9TYyPwgbiIiAiIgIiICIiAiIgIiICIiAiIgIiICIiAiIgIiICIiAiIgIiICIiAiIgIiIH/2Q==;" vertex="1" parent="1">
          <mxGeometry x="950" y="220" width="148" height="121.15" as="geometry" />
        </mxCell>
        <mxCell id="BUz5Cs6KhjB94nJ8huxt-14" style="edgeStyle=none;rounded=0;orthogonalLoop=1;jettySize=auto;html=1;exitX=0.5;exitY=0;exitDx=0;exitDy=0;" edge="1" parent="1" source="BUz5Cs6KhjB94nJ8huxt-6">
          <mxGeometry relative="1" as="geometry">
            <mxPoint x="1386.2539410420113" y="134.79999999999995" as="targetPoint" />
          </mxGeometry>
        </mxCell>
        <mxCell id="BUz5Cs6KhjB94nJ8huxt-6" value="UiPath Queue/Transactions" style="shape=image;verticalLabelPosition=bottom;labelBackgroundColor=default;verticalAlign=top;aspect=fixed;imageAspect=0;image=data:image/png,iVBORw0KGgoAAAANSUhEUgAAAQcAAADTCAYAAACMc9YqAAAAAXNSR0IArs4c6QAAAARnQU1BAACxjwv8YQUAAAAJcEhZcwAADsMAAA7DAcdvqGQAAFn1SURBVHhe7b0HmCXXdR54Krz3OkzPYAIyCCIQJEGItAIIMynLlChasla0rF2vZVGrtdfelWTJq1WwtRKlpWhpJUqkRIvSJyqQNE2KYAQJBoAgciZBAIOcZ4CZweTQ6YUK/v9z6r6q9/p1z3QadL++f3+nK92691a9e/57zk0VnPuTH8tlFZAFxY6ExZbI+raGcAk5YPx5N40SQRGXizPP825egqD3hjCv5s3Dw6OK06AdJAInRC8xGJiNxUsA5a5KlIVKChSSAsXDw2NpoJatKLIgU+klhar0Y2lZMBIgGZSEYLD4aC04CXCRIsyXEw8PjwWx4uQwB1WFXLRiMuxCkhRSnjNyMpfDJOvuGxjOw8PjZFgxcnC1tEMeQikphWIOlrm1/GLFoXrMuNm+YBLhBNKhKFafDz08hgGnX1P6lHQuYZy6zEWI84g3jwupV/b7jj1JeHgsiNXRkAGuQ57lkKBoKLStw2o2Hrq4ySUuD0TZRuHh4TEIK0wOIIU+YlBCUIUsLAU9hrJmOE5h9q+wkjK+APmgSJYiwRT7CcggQw4yibCNfbODh8dJsfKWQ9dtAIp9EoL6/kguCEkIMP9Zm7MmxxZnTakXKUQGN4JSPgo1P0O8qeTS0X32VLChMkQWAngUhfHg4eGxAFaeHBwqbQskhBCaGYahEUGAYyo3exKc2Y9z3C4OC2efpEBCILIskU7akSTzZoOHx6lghcmhiE6JwYkhTRNY+KjFYepH0gYZtCUMsA+JQ5j7xX4IFyDIO4Xw2NyBwQJ3oUcQJ7eIW+OCC8H0UpACEcTID4gqxcZbDx4eC2MFhk9bTWzKVpIBnQXbwu9nGLgQVOg63QoobKY1eIaruURRpNYF2yIcnBXRP+S5H2WKhLMKuA0lzUEEsFSYcg4TwnJglkyk6ffeXYVvsPTY6FglcoAyFnskhwA1OGtyNg7GOawG1O5sD4iwP1rPZTSOuyRA16NKCAu7Go4M+pFJkoi02pm0kLGMXZjRiLSzGFdiEaSXaYY9OXh4zIdVIAdTOEaawV0IU5j3sBRo8tOdmNgUyKWXnCuXv/piOe/sbXLmWCibOOyggsg1FAAVY2IAkPaAblOik4XS6eRybDKT5/cekUce2yWPPbNHTsx0JBydkCSv4W7LbzlmAm5IkV5JDlUCqaY1P7F4eAwDVowcUpBAXB9Bjc1jKlwGckhQT3ekJk0Zlxl57SvOk7f9k6vkileeJ1u3jMnYiMhoDRW5xrB49Nf9NDKMpAwwWCSFBTHZFDl0PJMHHn9WPvWFm+Sp549KO9+iBJHXGtjCvcHNbJJgFyitFTg6iMDIo4QnB4+Ng2WTg3YRIgYz/+HTQ6dqIUz4dBYmQAcuQ0u21Dvyw295rfz0294iF50Vy1iNvRM5rAuSR4S7SkXLFnQjKigsBlVi3O8GN9mGbowds7uUbQ+dMJCpjsjT+zvyqWvukC9/7UFph5vkeIL04GbAXNG2kBD54j3dYdfFMykxOCsF5/10b49hRzRx+TveVewvCTmVnOMMILnWrFA29kjApYiDpmyKpuR/fvt3yc//8++Vi7aHMgqdq4EAwryN61DCvvqf7Q1VCecThGW3qMG6Qvmnyo199UegwNocSaXGqXocwGKJ5DWXX4ScxvLQow9LGNV5N/4isU6NCHm3eDPEk3Gfh4iXwjEaBO/w8BhmrAA5mJLQbw8iqhlq6gQuhrRABLPyQ2+6XP7Pn/kh2VYXabBm1toZvn3ExkESSk17FHBmoFANLdZ+CXGf9T6YMANwI/CP+ykVW7MGNQYZBUEqSXsWBAFbpc52j/PkxFRbnnp2N6wOkEjUgLVRU06BQ6R8lcMkYhxGgIgJ/zRKi7XY8/AYTqwAOZgYoFRQxNE6mKAzKRedMya/+HPvkAu3hTKCMDVoGq0Lzq1oYr+ZxzKLW1qJSBO1NrdtHqcmswvIDMJNQ7ilNHkO9zM+nm9BwFHCJpCwFkLxQ6nFzgnBfkNk25nnyF337pTZJsONwPjhEEoKbgQ54FYlBrMa7CH538SOPTyGFSvS5qAEobUzauukA6shl7FoWt76xkvk//2Vt8sZuF6nfnGEYh7B/w/lwJTIPQ89LTsffUqmptuS4D51B4CFxji4c6zRs4KVnKnPtg9daIZ5ylPZvGlCrrjkQrnisgvl5eeNW1sH8hDGdWkj/AvHMvnrj98sX/zagzKdbkWuG5JFESwGXA3aheWB/JApIOQItjXY1q55eAwrVqZBEgrbyTpSCxs6CjJNpuXsLR35d//L98pPve3bZAJKVss46Qk1O2rwh3cdlb/62HVy24O7JJG6dKBwGe4jBhHC/DBF1T33FCQHOgYaTSZx0pTLzt8u//ZnfljecuXFMg49jxCYFsGJJJRrb3ta/uD9n4TFcS5ckVFJoxquzcKK6BjRKNTHwDbWdDw5eGwEWJW7TKRUfFgD7GlgjR3XIonDQC449yyBey8cm8h5DuzenESl/Jmv3iV3P/w8zP/NMtUZhSsxLkkwIR3ZpJKEEyrueD5JctumxdZJK9gsrXxCmsEZsFK2yDP7JuWvP/wpOXI8Ma+Bg7LgFjRikbO2bZFGHXkP4ZNEqebfYD0SJAEVPefIwsNj+LEi5KC1vdasZtJTmWJYCDvO2KQJsLmQYG1+YFJk1+FUTnTGpCXjUMhxqmlXuCBLnqL2htjiLPNLDquD2yyIVSSAW8DaH+ezcFQliUg2o/LC/kk5Mc3RmuxqjZQcaFzUIqTaQHrINC2FIESY7vOY8B5nLXDr4bERsGxyUB8cWs9Gxiq0zwA1NAc4cV9rZCoclSuPccwuRqdphRIW07pPRWyqNqKi4JjCc5yrwes54irPxbAuIumkHLhNCoMVw6uaPAkB+6r5Rm6EIwRrz6DYsbcePDYKrNQvA1RQ8+8JKrgdUNdikAOPOMOSx9poSd3i7ExccwuwmMKZcHDUqQlqfhIAJ1TBheFW86HKXEIJAuSQcBwDCELzq7ky0IJgCJcfvar7eAYuSIP4uNX9LhjOw2O4sWxy6IfrtTAlK84FNNuhhjhPj14bMalgXf9+KSgJpSq0ApQ4GHdGKTLRg75zFULpt4CIXgL08NgYWAFygEKSBVjVqoIOgiVDBVPeKEx3G3VQKt9ixGCEoK4F4qS4cxQloCItEgbvK3pJNWXNch/sUU7ltfSmRSHpmeBoAfHwWA9YEctBK9tCCR3U10fstA04kpHCcAkkZXsBj5eZPK0UbT/AluKgLgFdD6YCF0GtCAWJjA9dtIEU+bZwFsLA3Fk4ukZVklFwfz7x8BgSrAg5dJWiTzkKtQIxcFUHEx6z9jTr3UjCsrFUGQxT9mp+kBKYoSQBIwo2mOoqVMWUcje1PJImiAEiM7pfw35XMlzP+0TD20pUjLv6MZ1+i8bDYz1gfu1aBNxK0rqyNBsHi1pca3BuoRA1EEMMTdFjnDczHwrbVdalwbVrGCw1ood02KgI4QAtgrykVgG2VPZG56iMJi/KeG4ylu2T8eyAbMoh2SGZSA/JpuSgbEoPyhhkHOerMoGwY+l+Gcn3I95JSZKmEuVsu2VECCslDLn6FYnDw2N9YAXWczCk+CPYIBinHTlvc0v+/Hd+Vl538XgxtYoIZeeBQP7LX31R7r7/OWkHm6A5VFFT6KWA6ZoVgrSDqIcsVClJTKjpqcR/+ce/Lt95aSxjnDuBPOZRQ47N5LLn8JR0onHp5BE5DvlFXH1vpeK1dLPLMDxPgktwLo1EPnv9o3LtTQ/I4aPTeBd1ieOGzM5OyUhslMTZn8t5Xg+P04UNUUr7GwI5/CmK6jiZy1icy2Uv2yyvODeSV54r8mrIq87D9vw+uaCUy3Gd8hqcvwLHFO6/6hyRsyZgocxO6nBxfh8jbbZkJKhLI6/rV8A9PNYLNlRpdd4+myBpy3Ch2Xqdn+7PZQRuD/RaxkEiowjB415JKpJCOoWkHNeJrYm0p3Va+ki9BhsBkcEUqYUc7RkXC9J4gvBYH1i1klpdSXotwMZeGEgSCRS3nWY6HyTCW6jjOsdUxmkKsmA3a6/U8KooMe7jS6MwRlV3PKo6C9jWa7AQcMCl+NkAGzdqoJBM2qQkJuThsU4w1KWVbRFVd4LQBkL8kSJCTs9mowGIzA2n1nUkuaMUArgGjcqr4hmjiLngepQdxMWP57D9k+tsczUptmWwXaI/Px4eaxVDSw5dnS7Qf5xx9CRr88Ki0I/sgigGKm8PQTgp4e4hndBaEPbYcF3KWmRjPSBZpDNMLKCHxzpAbykfYlR7H+g+cE0HybmoC0c02niLDrZcjIajFlqQNkiBi8J0oPzcsiOSbRUJznPRWuuyBcHkCYwPUAPCaTuDEo2RD4dwkxZKa4Ti4bH2MbTkMLcrsnqC3ZuJxFBqSVty/Nik7N/flP2H2rLnUEtl76FZ2XN4VvZBuL/v8Iy8eGhG9h2YlkPHZqnuiJOf7oPyU/EDtmJYuhxTQZIgKUQ4oRPM+P0ODeHhsT6wauMczt3UlA/87jtP6zgHqmQVbpwDRzDqOIc/+nW58tJYRgPclbdgP8Ry8HhTvnbLw7Lz0UNqMXAJO7oFhMuV+4Q/FZ+Dpi65YLP87E//sDQiEAJIJkI8bE9oY/vBTz0gf/fZu+VEC1ZIwDUnLBYjDd0Flv68Hh6nC+u2lNLPX2rjHg17EkNb6nK0Fct9TxyQL935tFx717Ny7d0vyDV37lb5wu0mX6Tc+bxcC7nujifl/kefUxcjgwsSIA62W5CYqPvOQjnl7294eKxRrPsqrNtWuAjwoeOA4xCozLALwBZpEEsa16WFq7r2A49R82dQfloAXF2qE4zA2qlJK42s/YHtDMVwcX4SmKh2mVbBML2ujYfH2sYGtW/N+3emPlex7mDL72vmHDkZkhTso7u0MCgkCl1+LmjgMpehM8uFXZfcMkav+x7DhKEhh16f/uSwT95xz9Zg4IQx7bWApmdcMJdGAeJjvAzD9gvOK03yRDod9k7gesBP+dlMz5QNk4hvPsvBw2O9Ycnk4Hx+J0S/ic+pyq7jjjrGFRa6wLWuLBEuPVPgEjzvxOVNUUmLH85V4FzIkYtFIyTBlgQ2ZLK3gdfLZ7T7I4SvBFcEIJaTWQ4unnJRmH4pAnp4rAGsiOXAwT0c6MPal8vUhyHHC3R0pCA/P5mgVtXxAYVusvGO05e7Kz33QX14xEM5GQKdQ8nHgDojKkcITDvjF6wIdjOCQVjDU4HpRnAGp8bOqdxqRdjycq5dQPOFGzJ+bIPxcJk7pBWzNwN3khy4xy9p4YGxb/Mt9Swu2toR7CmxXg6LAzd5eKwTsHwvC7qoCbsMqUPs3w9iVLa5NOKGfsWKoPlNhaKWILiOL2D/f9pOJOXUaZrsEA1TSBRDuTR35bm5QnJAWBABhU2JZbcj4uRYhpAKmkg9TKQGRefwaN6bpm0QALtCTWHJQyQjnfYNcQ2Imjf6EBWosgPly+Ne9VVW93HUvR1EdFJ+cHH1i4fH6cWKlDoqi05WgoQplJoTCcgLKWtbAorPAUdBS7ZsEhlvpBIlqYzGI1KPa65ixnVEUAgtC/r41XNVsfELNpCJfQc6rtEdQxq4TpH2jNTSWbnisotlooHHJYkxPIdXFOguKstFYWiJdMkA9xNIj8/INA3Fa+sq/Xxgegy7+NdcklMpHh6nE4svtX1QpbEqHgUY5roqViadTlsOHjiKWpcXYE3A/GbYLWMib3jdxXLpeZuklhyCxX8M3DGpEubTEgezKpEuzza/1PIZqUNimYI6TxXnm6WkuJaekIloRs7ZHMj3v+G1cu7Wmn6BS1eFYi8DstaCPzQ13UI+4TREkU63VoWuKDW/XWG1P+9wBNGPqklgYQYrtIt3kHh4rB0s+SvbpXkMcx72eUKlUpNcpAErIIaCbp+I5A3fdSn24Y/TNwc7sL3hwgvOkZFGHWdT2bRpVDZvGpOt4w3ZAebYvmVUtm0akW0TC8vWzXXZvhn72G7FdsvmhmzePCpnTGyCjMvWLQ05/8zNcvmFW+WH3vAq+bEfuFK2jYewLMBDyGse24qRTzw/KV/62t0yOQtTohityUdjm4Ouqo18R7maNfhj5+asvOzMUfnhH/h2XceBzQgMTxqgY3TvI/vlW489r18Nx+vFNSp90ONOVHbngKnoVtOvip728DhtWPLwadeyrj0SzleHMrDmDZOmjMcz8tpLtsi7f+NfywXbRGpBCouAKxvAOIeytRB+/xGRF/Yfl9lW2m2fcMgK0z48SSOehkMeVPmK2p5p1MNMJsbH5Pztm0A6ImPQ+yi3BlDmnd2W+6dFPv6lh+RvPv4VaYXbQXAc0wCrwqUZcKgTYnQrOIVtGcuOyBuv2CZ/8nv/m2xG0lz9jaHZKNtCJv7i0w/I337uTjk+C0KQEX0nBBtsDWZBzYf5l8Wfz2Lx8FgdrAw5oMqMUBOr8QD7O0jbUs+actamUP71T75JfvqffptM1DmEiHMdOV4gh9c/ApJgTwPuKXJAxV0MSAhm6FsEVucbtH0AxKGtHiSP3BQ9C2OdbdkCQd332FH547/8ijyx66i0o3GEY+6sptYVoymIJ0rBLHrcRq6PyJsv32HkgKu0NZhqSQ7fkr/9PMhhhk2kHFoNcoDCe3LwWG+YrySeMuiPc7k1TmGm2pM08jiUJKrJkWYuX7zpG3Lzvc/JZMJp0PzILWvTmvrwIawJ1NNQYOtFcDMYuT0VYT1fg7jGRxvsDLcGUkd+YloKBSnkIAUSAx0DNl8+ty+XT3/5G/Lk7hOwGsZ0uHTGJZyQMSUG5IxjIfhcfCY+GztklS5INtzij2e14VTP4592eZq14BoSlQ6LfYKWVrlkXK/wtAli70qiWw+P0wmWyCVBlbuoAVnT6nHRMMlinIIcmiCDp1+ckY989ha57vZn5EiLNXYN16nCbH3AfVByddyxr9Fhn1uVbq/BYDDNwhFQsW5NO6/R4o8NoUSKuLRPA3r8/P5M/v7qm+TGO5+WZrhZkmAE+eV3NKnsVfeGykobxPIBnsC+zgNFXESpsEoaEEcCFL4PEgUtKkcG2u2L8+Sh8q4ynrlY6JqHx+phyeTgQEVkFyZXW+aAH127gBdoStORSMfksV1T8uFP3iIf/+z98tieXI7CipiEWk9DcczRoFrjFiUI7pvQFGedTNUcJOwxNduDCmz3aAcomCFl2wIshRZkVtOqyYHZQL58xx75ww98Rr52y4PSTJE2lFhrZyittZ3ArWBuQCZ0CfinDZXscckg2vOiZ5ESQpIxNA84QqZIeSrMIPb4LiLGSdJDnEYcqSRpR9IENINjQq+dhAw9PE4nltxbUYJkYGptKktAaVDj5rAScvj2OZTq+ImmPPnMHnnw4Ydl997DMt2qgRjqUq/BkoAG8TN53VWXEI1+Nk+VPUBdPr/wnrbuc/QCCcndIzI5K7L3cEcefe4ILJdHQU53yFduekSe2TcjsynyFo1ICzzA9pIcLg5JgeMm2SWr1gfis0/wQ82RH1o6cTojF2wfkR/9we+EXQQaoOIjvHsD33j0gDz46AvSTPj8iDfBFbgaHKJNUqDFgFvYCWKWBfaZkm0RtrB0yncJ0mB47JG2PDxOF1ZgsRcze1mkuaekQPOcJZo1Lmxqfm5OeyrSWRmLE6nD1BgfGZXRekOiEGqtCuOUArfB+qge92Nuw6XlwYF2hC3jxqHbsE6STCZnWjLTzEAcEWpthkDekDCHWOuwbygex0CkHX4CD84A7oNeIzOWj5gjNrOO1LPD8ubvOEv+6HfeKVsQvusdIFgb27/41P3y0c/fLcfBWlleh7VBosQ+0qBlwn21HrBDwnDtE/YGy621ezCstWfQKjF7xcPj9GDZ5NDbUOYKuCMH2hQ0nUEQsRn//CQda+BaSMWBsuZwBFgtA85Xd1i498LSLcOUabNngedp8lOYsh4jPRJRHMXS6SBfTJdKC/0jqQUkMhDTaESbAfEg/5206M6MubQc8p4clu+64kx533v+D5lAXgOEt/kWJKJA/uoz35K/+fStcugEHKbaKNKqSbsNYkSciARSszzz3fAdASSKdtKRuNZA3gsC8OTg8RLDadSywDKu7QOQorwDdDcgOFeLY/jXoAnUxiEUJoOCoBKXGRy3pWa1eSG8dirSAbm0oeQU7uviLHBT3LoLs8hICzVzVh+xc3BxQmzzLJLZWRBSVkOeQBxtOCFQ1CiHYsLViBFGOqj228dhKRyXejgJ6+YYdPUYwhyXWtSURh2aqrrLZ4TNAVJJU34fE8/fmZSRuCnj9bZE6SSskWkZqTVx3wziaYGg2iALbm0yGMmQ3b9j4+NKVB4eawUrYjmQEGguuz561qY2jJo1n3Vvup6MpMPaOyyOKa6GHJyN+ayHchwCD8q2AQPMdyhtFuI6XJsIxAD7QPNkVgwbIlkLo9aH5UIXg+RRQ77oAr31u6+Q7/y2C2S8AZsDaWQBfQTch+jqQUvO3FKXK3GdX7ti7tg+wfeQZKE8tmdaHn/usOS1MWmCeCJ2nxbvpx1ukaf2z8pNN90pu57bg3dgjZtcHyKMa3gms3Cq8JaDx0uFVXMrrLXeQMUoUVXi5aCaLtFLDr2wa5YnKjvqewhdiBhCcklgeRjZZPJdr9osv/jOt8vrLg1kFHmnR0AdpUtC9URIxMgmSJcO4wdJYpvgYclTOj0d2xRpMlnqPHhDPnrtbvnEp78EN4IjNArXguSGAKk2UPa8rC45ELESmofH6UFVo5YEWgul8NjOWdQmg8MsVxaKd/A1gz2ytikUIMHZMa2gTB574mm5485vyuQULQUbVDUecbBVAmKguG5bvb0AFJvn4SiNQKFHg8SGfKHKbyAOeBHyxKMH5cYbb4SlgHRIIrCWXPeljqT08FhDWDY5rG/Q/XCwhkea781OXb5yw33y0CN7pYXTVGJaClR/HY69ADjKQdsROGYCx/w4Hrtm9xzoyLXX3yb7Xjyq7oRrX3AuFteiZNrzYaFrHh6rgQ1KDlRE0AKshDSy7sWq6xNGo3LoeEc+c+0tsvtQsYoVlFN7ProBS8uoHyQRdsVqd6rUZLIlcvM3npa7v/UMbQnpsCEU19ReQXRBXFoNJIFB4uFxurEhyUHdjMJm4H+6/VWwsbKZNuSbD++Ta79+v0zB7efAKiq0jb+wtgEVtQ9KqNIjUio+Rzq1of2PPnVYPnXtHTKTjiEtOCnaeAGLAUIkCUIPaG8guukMuObhsZrYkOQwGOWr4LBsadRlJmvIF66/R+596KC0aD3wWkEqveA5isVBB4T7bEo8dELk09feLs8dOKHdtiQiuhUZP8Gd08ao2X5xj4fHWsGGL432AqxFoYswkA4OW6jlDxzP5SNXf0UOTuI8am/X5erooLqn22LEJd0FtjV8/fYn5Q64E0k8BoIxN4ITtzRNWhlgkCi2qetsnHSNp4PEw+N0YuOSA2ptk2IcQphoT0Ue2rxLjqak6c+p5zsfPyif/MI90sRtaQDlV+XmFC+uce26GnEvux2p7SQWnHl8d0c++fmbZapVkzSrwcuog2BABIjDxjh4d8Fj7WJDkgMbGCmsubVLkd2JxZoJzgaIg1iiWkPa8DFm0lH5wlfvlbu+tVcnhpEa+Ml9Lr+v1gKJgSSh5ALKgP8xhUsf+tgXZdf+liTBhI7qTHSyBl95+drdp/ndOhYOSlh94uFxOrEhyaEfbJysmu0ciUjiSDiiMo7VHTjWzOUTn71J2xA4CzRD7R9w4FSfsmc418LhF772hNxz/y7pcOm5ohEzrvRKLAZsp/DwON3YsORAhdORCyAFJ6rCdDUAmvuddkdHUvLbmDOwBB58ar987iv3ySyMhZaGs3YD7umiLtibxf5z+3P52Ge/LsdbcFnqDemkXCPTuR8nh7MSNI8FsdjWw+P0YWOXOLgBJUqigM+ALbsXY509Ct3W7s3JVkOuuf4ueeCJo9q12Uk5n8JmnZJoOlKXabgUH/zI52XfsbYk8QisDqQBA6MRh9Juc/WJU4O3FjxeamxIcrBP3xUCf8IWgY11lWm6FxwFmaOm53cs+IpanURGJrbAnWjIgWOZfOwzN8jRacQT1SW09d5ADJH2Tnz1ll1y78N7ZYazPqOaIBKEAzF0OjI2woHY1kbRL9reUYhby2GY0d+eMkg8XlpsXMuBy86rElLwGrgwDbbuhUS1WN2BmdkZGR3ZLMePNyUJGzIJpd/55FH58tcf0aHVXGafk6u4NuWzL7Tl81/msvRwJYK6tGCBcDRkBwEatZq0WuzDmB/mRhQHQwCdO1IRj/WFdUsOg2oak95aeJCYAlYfvbdBkvMc6CjQqqih5k/TRBpjm6Sd4P58RA4dy+W6m+6Th54+KrOwMppBTY5D76/+4u3y1PPHZSaJlDTYbsEvctMS4UCnevUbfEvAoGdZG1J9/71yKpiPPAbFp+uGRIlkIVw0EHy1MbkazmP5WLfk4OBq234ZhJ5rtBTUWsBLYOGiJQFw7UpdawKFnl2L5nqkkiVtqcdwPaQGF2KTPLVnSj53w32y57jIJNT/5m88L3c+sFcmm7HkdDfCOs7iD4YJx0FyrcnlYf25Gm4ch5NlAb8V23U4epWElJMc8E7w80Bg8WVm+c3323ssHuuaHOYrCCwwC6Faw7AXYGBNUwyS0heEres14FoQHAU53Qnl7gd2yy3f3C2P7p6W6267X/YemtRvX1i+epXZHVlhLg764Aq6SRnWydrE4CLkiLj6rqti1/lWoOB4OAr3+4XjPxQatgB/m/50i7hK8VguVmD16ZcGqoCUPgQL+bZFeCp6NxTOuWi4zbWQouBpTeeu4FgLJDaIX10OxHFickaaSSrP7Noj9zzwnMy06rA8SA7uvgJMrxvfQlreV+B7cLJ7XwoskF/3Ctxj94m5EQUpdMUGkpkwHK4zDC4Z4eIfD2wPIHlzzwg+g4VH8AxsFd33WDpWYPXplwau9qmiKDc9PmgVLjzNUgeGLe8rrYhBcTOszYvgPtdrSGTTCI+mpdkkKYza7E23FmRBKAhdbBnvQrXaQuRArMUa8WR5Hgx2//KdDnQ3+n4fRWEtlL87XQrrXbI8WPsHh78H2uu0tHx5lFjH5OAaFg1uDcluYQLmI4eqkjliKGHx9MbNeDnEieMdbE1MFmpOv4hRGPOsLZEucGs38VpZaJkaZ2jyBG446SKygwt1dbm4tYcyz73Kbm0Cp4b+58a7wm/M91j+piAHirp4/WB4azcikXhyWD6G4g1WCyAV18liQDJwoi3i3EIYTw+pOFIKI3gL9nXODBZDR6dj17TwGootCqm2xhdxaG1ZCAdb9QoT7D9nMl87xEsvC+fr1IF3WxH9LZQIcFS8ux545V91rGvLoQpXU5QFice9YUolJ+gW4DqVl6tUE9h3ZMAtaywzXS1sDFNBC6vYfAmuxeC64azGZHwd7eVwlkPG69hLcI7KEuM+V6x5bQ7mK/R9z7umMCDP6j5BBroNgP5O7r6+ZzNSsGs6IY1Wm3ufxTWG4fu22Iv7veWwohhqcuBHernse60WSsKRSkCk4xZ06pQqNb/uzW9WclGmMIj0fovZFS4r5M6tIBwpKJBuyvUiCyVgIe7OrsR9jIthU7ofYB3O9nQYSA4LoDSvVw7l+5of86V7sntVsfFeen8pvA++Yzw73wffm5IB32HMb4vY19r5VTIOX9cwWSp1uGP2CWMKiJkNv8iAvmotC8XvlNk1j+VjaMihVGYHHlMhUy2ALHxxBGIIOGahAyXFZdTycQTHAHEFIIw8TVAoE/0ilhZMl4YrfAQKpBGRNYC5QkowHV5zBZb3kxgYzoLQajhJwdW05sLxzWqAyjofTpbufPfyPpIKt/1h+C5UsUkMaiGAHOCmcSQp3zs/UCTxmEzOJiCXhobjKIeca25Eqb1/iBEH9vHOSEQOnhxWBkNNDkYMZvYTHPHIL02ZmUo3YVrO3BrKd195ufzAm66Ul12wTSZGRRo1K9h2U7Htf0s4r02EA94e7y34QhWDzQZsh0QZn4PFGA+rRRCrQQ6EIwjCvQ8H914o07MiR4425fGnd8mNN90lDz+5Sw43G1I/4zyZabFtp6akbUPe+V00i4xfL+OXz40c9JSCZOKxfAwxOSAMuxNQw9uCKixD7E/IpIHaZyRvyT/+jovl3//8j8nFZ4nwC3esbxqsiLCt1kQEP6HPEm3KbHHSzDVYTWU54H/GYAawg03sJnpftzvb/zTDAPdsDnxGd869G7oI3JvFqyRh8I3ece8e+YMP/oPsPSGShNt0TQyBNceRqmnaUleFLT4kBzfKlQShGyUGkkV/6h6LxdCSg1kLZtbrzEsQA9sgQklkJDshP/Kmy+RX/v1PyBljIqO4tY7QHENDlWYBc7WPq/FwRrdsXjSuMbfCYGnbeds307l8tUouA1DwloIDpaz50u6d757VRPU5VxrVZyWqLhd/Gai0fimsBbnpm3vl3X/6ETmRbJETbZhy9VGEwW8IN5CfNVT3rJgsZ+BvUZYJTw7Lx7p+g6xp5hUUPBZGmqCuULLRke0KF56/Xf7dz/2EnDUuMoZzYdqxNgdpo6Da+tIpFJUCFbWbAUZDYWFmNyf3WQMW0c8BwzlyobJXyYKYoyxFTP3hTieYh2o+TpYXXj1Vce9D3x+JAedcTU+LLoAbWMP7H4POf8/rz5Of+vHvF+lMyVidnwoC0TM/Svr27vT9FSRQ/e0JI53B4nFqWN/kgIJSlSpcza9WgzrOKFyseWA5fO8br5ILdsCFQBB+2zvWMCiwqIySMJQ23gqn9XCFSIo5I0gDfyxapBHQiQo9YF7Xmi+wiUFcZ5JhbJwEv4FpCkE4haO4cwT3Xa09yGJQPVhFqcLlwynyoPAUugB8H/MJOxb5/rh1+/Y+cR3PSOE+3x3jC9lFmabqpPEzhD/6Q6+XLTDrAn7BHO8rLr7tsZx2EI9Tx7p2K6iwBuM4RwhdsI2B5xA2yDqoaVoykp+QD733N+TKi+FO0M1AGJqzrSyT/ZMdSCrtDuOFzVFErw1giIM1FZUl7WuPYOqca6E1GWC2B8Lqf7vOus/A7r1UxkdiOW/bmEyM4BjxW999IFNgpSd2H0YcHFzFRtUy3ZUG4x2J2nLFJdslyhN9V45kD0xlsu/IrLTarG0Lv34Aet/EXFBR3XvU/eIOEgHP8/niOJSzttRlx+aajMO84/vlsx9pifzCb39S7n3soCTRZhgJvBu2GiLiiFQlAVoOag1YvD3EwTJSPI+9Pxv/YD1GLufVJ7DfyP2OGx3rvs1BCQK+JwsFrYRqraGfvCtAiyHOJ2Us3S9f+Yd3yzkNWA4oOBlIIw3rsvfAlHz+1sfk1kf2S6sJ9Ubhm1tIaPpaIe9HT6FEav1hTBFYf3Jdh468+qKz5aff9h1y+XkNJQ52v3Vw065DmfzW+z8h0/kI8jCidTh9bCW5pfrRFeWpgtPJzx6blff+9k+BNDkEHDW5WmEiN+w8IFdfv1MOgiBy0QkkAzA3zipKQiuJsXoPs5XBlRiph/I9/+hs+YkfeK2cv3Uc+YJSw0ogOfzm+66TG+58QlrRBO60eGBD4P2yS8mmbTvo9PjuO2IcEFI18mGhbLWvOOfnAVBydEg6ftNupeLJoYp1Tw5a0xUt1q5XwhTTFNl+cO5zgPOUbM73y3Wferdsxek6ihkXYcmjSB5+Yr+8779dJzfv3I/7G1oAncI7RXe13nKUlAVyRGblym9/hfzyv/pB+c5LJ1BgmRDoCwrx5Iu5/Iv/690ymXE5ey4rxyKNlPlVLH5Gb0nAvcX7cuCzsUv3gs1t+dKH/2/hAHA+FcmB62Vec+ez8oGP3yS7905CgQeTwyCS7If7DdxvUs2HTpDSc215y7dtlV/93/+pvPplO/R9BFEgR8Glv/X+G+SrdzwuLRlHyOK94z3ovo6IdPHBHsCuWgbF76bWJQefuXzyd2NZ4fvu5sOTw3wo3vbwwZnHHHHHkY80Rfm49OdZRlg+aMbnKGgcPEnVYJcZVZdK2UGt7STBOYo75pewWsHoKUk7HOsK72X8baYD4TBsfpzX1WzMRwxnW7vuYv2AP/brsGxGQRxQ3yL9QdIKB5/vCuOqSlAvnquGdPguXFEotqiZ8xyuDYihEzDvcyWRctsv1es9+9wyTD6GdG1fnzPhADW8F7wDKivfBzwLZMeIhYqug8qo1CCFEIRCa9D6OBDMfm4FCYmi5xFvV1KUBfZa8R5eVylcjYJUPDGUcCVi6OBqA/qczu90DYEEFTJx57GvjWFKHFZIudWauioceQfh8Gn7GP/ihNYIfWl+4CbjpC2mCbERffZTkLgI1GeaxxzX2L3H9Lk/nwxKz4nFTetK1UXTI2Fyy/fkvC82RPLY3h19f8aNexBuPmH8jKtfeN4aGk24xD/VWAmRz80t84Tn4pZfJOdz6m+BJBG7MqZaHvqbFXnHb0QYAdBawDmKvjjEj8sd3NyBGcFVvcAJNpGuEF7XiFU8FgLf6PCiazqywJUFqwoWRnJEihqFhVgVF1vd7xct4EYcCwtJxkStAieMA/GrQiBNWg3dTABaZPFPw/IfwnGF6wRKqulSqeYRU4zBQv/cSARbps3z3eeB4mrq2K/oS842lxiOF+7reYaK8B69b4DwvL0Lpk0fvxCcI6mk+D249gVJgfmIanWcJnGQtGEhMHrGQqWHKNExLxo3gT0EcrU+09M0cT/nsTgy6P0tCusjQiWh52w797k8CPemhw8VYuBjljViCT1XlMIIhZbLzJfdoqXSdRVQCyEVpzRxBwvDzBWXByvojEvpABcsEyinCKh7mgdtD8E2CqGofXnvx6D0nBiKn7p4hh7gFL13Kgr/CG2ozRIQh1HHIFDZqIjq2/eJTjTDVmMuhj132whwnt3L5AkOZ2c7DO/RawWYC74iO2+g4vJ5eKZ8roWACEgetCzoUuizF+lU4vUYjAElZT2j+OGJPiWAYVAovUELn+5Zw6V++7LTKRS4JAkUcZjdqGUgaurzuLi2WOG9ZT5c/vQsDhEGR8pBuM58hBy1BdAV4uzSalyLEaZgKOLDOR28BaXklm8MRxYef4TOLC0UqBoXxXJs0n9cPU+Zg26c7JJMJYoj4ac/2CPjwJGsoBj8EYgNRKN5528KUYJwos9UPBfiJpm4tgP3HRIGVLcDaXDrSNME8Rf7BkvVw73VYUBR6HrQJQgUGi1gBpTFQjjDD7cWBSPSqgoFCBqsulGIxj0o/kWCcdEbd/H2WwM80qQ0URTaQmHoDpEo3H2DZCHwuioJC37xHO6YJABjH/kiIbmI+N6sxl3xAlIouK2TYfnQZJEvOiT8XZg2qMVcLI5PwZvJE45TsWtZxtzCzSpyR5Lgpa61Ujwjqdx+T1hfOOJ0eZKApcT7jEzKXg+7z8Ow4r/92oEV8JPBRlAipJr5JViYrDAiDLYsoCZwP5YotAZ6lbMXphhF2vQxNKwJ7+X5QaJWBrbzCcNUC75ZRyZ6jLxoPBrO8qbKq0e94ftlUHpVcXCWhAnP4yosNLuIfYo2LCI9nuL9yIB2T2dtqUdQ8ACknSQIA/NLTTATDnDj9HsKl+xLWk0QG465fJ+2bLT1mrppZBKk3YV7x8Xv4lHi5NqzwVCalyuPQYRAMEmXbFchVUFNVhsLPTPz3J/vxeWNT2SK7/ZPBhIDOxy1WzNtQ9FnpRa0YCs0oexN7HPQOhQ/b0uc8xxJoDjGneMjkW6jtCX1sK2zcEkUJABrlJ6bDx0w5wmiByf/pYYQ/a4wj9nmUIXzafvhaj8dtbhI4X2KohC6Glp/BmioS65Mtvx5+hW0rIVPTeaDI4Z51QL5s0VVSuFxVarX+qUkl8IyKMRcPie9IOnQpghh7V+wrS6XndOQC7e05aIzOnLpDpFXbMvlEsr2VC7ekeqWwvOUC7d05OJtibzy7Ewu3NqR87e15fwzI9ncyCQGSZTT8S0fyCa2cZEnD4fhGSHJWqGoyqyXwQpZF6htGvmUTGR75fpPv1u2okDY8B+Rdh7JzicPyp9+9Ea5+bETUBQWFE7ingunaP3KempAnpHPOvLxhte9Qn7lZ75brrx0lGqjV5mbZw+L/Pi/+QOZ5joGwYiawTouoS+9qsJr4T4Juu0JXWKi553IBZtn5Ut/+4sygXM0wakwoDL5zO175c8+frvs2nNcBy9V0Z/eQu+CrgfjHJRHJQ41+5vy5teMy6/9m7fL5S/bLCM4n+M8V4fate+YHJ/uSBg3EBkHrLGlCISH59ARkYiHaTh1d8/HdiPus+uYdsWufW25+po75P5Hd0szHNNuTmvMZHi2r3AcKmENmh72bjck+Pt3BaXCyXzQgqyFxgofC/vSxFrHu8eIq5oXnmNDm2tsc0RX3j9XiOoz9MupY25xsPit4c6JtfAXjX991+YTC590hfeVgnxSivwyTSo8h3eff/ZWec0rzpJXvXyLvOrCTfKal4/Kt100Jle8HPsXm7z65eM4Py6XXwR5+YS85sIJ7J8B2YZ7JuQVF47Jy845QyZGaoi8aIRWN8djIfg3tCRUC3YpVaWZXyy0U4aF4K47pVlIFsLJrveiLBK8z5S7PO6Py52bK8XzFj0Ic8gCPoOLW7sqse9qfZp8dFeYF06npzLXcEihPVcKe1pSqQepTr/nDJAGw0JiuHH1tI0w/HgAjoOOko0RPJ/RCWGd1PbLeDgMATnM9wjz/NhFAdQy0lNAHIrrLLQqFg9HBMw3IKi/5d4dnwqgBvrnQG+BCuMUkhjUbuDSOBVxbgsxKC6imocqdCh0JZ5qvAsL7tPGPwOV0qWtAuXlOVPWAhWfX996cTu7M4t+Tdxr2wj36cgTug8WyjaF+1SLYHlwaTkckhzY+ZnhnIqGsLTLEZYe/VjHb2WQYju4n/9kYOmraOEpgoVfv6Bd/LkC5oTj/Skx/ON+iVJOBbd8s+CqcL+Q+cBw9LGXIl0FdDWzAqpepN+Lahi77p7L7pkr7nl7BWnDsVfBMcO5eCh6XMRvwnMkEBIVLApYE0bGGWp918mLcBzzga06XghrQHgcdwqiYBcon4JtCvxOCC2MACdt8R1cgbDNxd6P5cVjLvxb8VhzUKLkKuFQamULghoP4REnVHEVLp03wvkbbEBGUSZpu4FjHsuHJwePNQk1+Yt9koBNqxdpwdfjmMkWjrnPnogWTAKSBcyDLoF4LB+eHF4CDPL5hxVLeVbeoWt5Sk2mOrE89NQReXh3W3bu6mCbykMv5PLQ7kzufy6VB5/N5OHnc3n0uVzuf3JSXjyaSYIITpZqtf3DYzA8OXisQdBFqKmSP/n8MXnXH/6l/Oq7/lx+/d1/Jb/xnr/G/gfkN//gQ/Jbf/Rh+bXf/5Ce/9Xf/TN5z/s+LM/un9a2hUHQnpF5rnnMhScHjzUJNijSjWjnDdl9aEb2Hsvlmf2z8szhpuw6lsnTB5ry+N5pbNuyB8d7j2fy+AuHZDq1SVX98PbB4uHJ4XQXm54eg9ODbrdoPtcfH1STns43Uk2/Z1//QA54Xa2sLu1gTPLRbTIbjEsrHtdRjkm8WZL6GXKsGUkzGJU0bOiIyJO94Wo3cXXfoxcblhy0i45bO4QZW7R2nxYfFMW3GD/RD44Hcl10g0MsDVQ8Uz7tBDwlE5vvaD7YGIHiYInQxWx17IIRgXv3XNavjjyyD4KdxhIGusxcgkyr8ue4GrKDkmtw1iSqj9k0bq40NQ/4qMvN70aDtxyAfiWw0XkOfEWDZPGgQp5KTbUatZn15S8v344Qqkq2HIXjUvgO1Uc2x4BrMNh5m9rNs8i/rjTObSGK8rm608CXgP5n2+go3+oGBwfena7Wa3bNWcGe+/ozPWX2guOohWrwxcDFo1YTZMF4i8FCqw2uI2EKyenUOZRbT+vaC27f/SZOeV3edYQkfjjd8jqEs189VgZzS+cGAMuamtnFcRWmMIOUgueqsvpQJS72TYGWh343YrBboSpmu6sIKjzdBzfcWlFRbJ2VidfsVg7nTEzNG8NUCaBwz8r5G3baY/nYkORQhStmXCKOZi5rr0GKuBLK6aDrMxbgUnH866KSzmoRA/f7lagnDwOw1Dx0FX8ANEq2J2CP7oCu1YmTvIfzIphHrhSti9gi6FzFd8SQ4CbO9Fw4PY/FYcOTQwkWtKKQQfiJXCdcc4DnuHXiwi1G9N7ik3iuxrNZAaYoqiwo21REhjWTmfe2seVHXJYqiei3MBkn0nPP5MzyEpXiUPjzmucFZNBzDhJ+ccyepTgO+fnhBM/MDstMF5nl5wMGo3qe+5yfgf/6nsyl8Fh5zPdrrAOYci2IQgFPDQhXhHfKY2IKZoplW57nkmSLF84XYDxUFkvP5dAJQaXl9OKY4XGfroFIgliiMA7m2eKjMH7bt2csQYLSfOi7cHlBPPrsc6V8tn5xaZn0vzfukxhyLgOH/Xo91g/q2kROIwBFtdER+zZxy64yqLpefB5k16wbF97QfZ6TgqGceBDDsRJUUSCcSal1MRf1YMM1ChO/jYByJzWZkTg5KNd+4nfkfH5IlyUL97Nr78Wj0/LV23bKXQ89K5NT/GaDxUlTVgtdkZ6iW2AXiYJ8uLbA5ZddJO9461XyyvO3oJCTkKgiInsONuX/+5O/k6aMwLWGqc25Aq52X2K61bvYfajuU0FO2zfl8oe/9XM2rbkoCdzcvvMF+fRX7pT9h6a0+3A+LJQj+zaHvcOcDQjFvn5hG/uBNip0ZGQ0lrd8x0Xyo99/pZy5ZRT5gLIjzCQu3/5YR37pP79XZuMd+E0aEqQR7scvhh/Fzdpk+Bp+43o4Ke9/93+UN70mxNvjr4qreN4E4Xe+0JEPfOQWueW+p6Qlm5E2c2D548dtGI+RC7HQU20crFty4I/pYL5o+YOSMFibsP2A+/w+AgtUPUQNlp2Qv/jD/0euukRkArdYAYLSgEyOTDbl4LGmtJMMSlQUHI17pcA+fcvLprFROW/HFhmvIwHkkcTGJ5pp5/LU089LVGtoHniuzMPSCm3VdWA3ra5GXZBdDVXuKy4+W8cURJoVvAyEOTLdlhcPHpcmxzAry84FuXUhOHIg1H1i3ACflfdSGRkkRB7O3DIi20EMNS7Bjz8mO4vtF287JO/6k7+XVnwGfqcRTrooyMHW12AlUedUeBDNSH5M3veeX+4hB7ZntPHOH34hkf/60Vvl1m8+BXtnM+7jVbNCNHdcsJLAO7fp6R5DSw4sgCQIflqNYWnO11A1BtmM/IsfuUp+/effKOO4hbWlfkQF97BG4+w/wsXuFJPHyy0y1A0SUUwlxDELJpWSsXOdAl02HYnYtzEtTX5cmyi+b7N8IL7CwOo+D2mJNMSGUn6ejgqi37ZkOOSxJKe5WIggXDoMolKEdecJlwclc7ofVFoEgPMhRzoi7/mzG+RLtz5cfIKfa2HEuIzfiytJMUKQA9fJUMtBjsj7f/+X5Xsuj5Uc+NvSUqLl8PDzHfnzj9JyeEKawSYjByUBCoiLFQePPTl0sY7fgvthB/+YJAjWPoR+ECaMJU1QI6Wx3HrHffLc3jYKoDZBUl+UICLUMHX4w3UUNC5ySuGyYxQuQUbTmx/nX6qMII0xMEIdW7o0XMKMSsncs39e7YSWLW0WJvwWtsgowjdYOw6I71SF97r7+QxcRo154Lka2wSSloRcuh3Wk5n0OQisuI95Le7V+1FDV6WG8AMFbzbmdd5T3NfAeRUXF4TXudSbtocgb0pQtBywf/CYyD33PQIralw6KchTCcsWgdG3xWOOkgTZ8Lx9GcvYlPyDqBBfgLghCG/tEviHsEYIEN6nZAX3rUJaHnwjQww1X4suMhYkWOwoaCNy4Fhb3v+hT8mugyJtFIgWilIL5YXX9UtKrFXmAYIsA1pku3Fw0ZIMFoMVVVZauBZHeo7N9wxXFGO1gHh8KuLSKdNzAhifKqhUZZogTzw3lZLvgYOQBoEWzikJzYNCCTV1kJx+oMYppp63PPEbFR3adkGM36ImTRwfQ7Dff9/HZP9kJlMthKyTMpFfmFpq3DgzBOB+9xjxu4XjnLIzP7QIdJ+WgbYnQfRcue8Xne3F0LwNljuKFjwUEJqcWjhQMLhFvYGSgQIIEzQJRuSunbvlt//4b+Xux47JCZSmGfjVU2kk0/BpW1CSJu6h0LpA2dRtUwVEsmQp42BbP9OhX90MkR6E+y2QgqaBa9N4Hr0P+e5AeP5UZBZpVIXpcmvXLQ8uT028jxmd2FTHcR35wD7eRRP5mAF7NPHyyvwvRiLEGat7ALuk2No53UJcnuwd4N0j3HGw065DIr/5ux+Xbz6yR+L6Npg6DYQEqPipfeCXVoH93sUW17Trt/BZikv47Y2A1EXS4u7EoMRipgf2GcgThMM6bnMYDDU5rXzoD68LnaoFgR8/RaFCSeKn0oJ8FsWzKVvHI3nD618nb379P5JLX7ZDtm6G60DbG3CFj5WS1rJFvFq8lvDWNA5sKSzcrKi00EIhaKwwTrZJsKJjNVmUc02X13nPUlC+D/6zfY0L5901bni9m2YRTvNyEgx6F/qsOM/4q+rm0qABoZYApIPj6UmRp589JnfcebfccfcDcmK2JrPZmAS1zTLT7sCSouLD9eOHd5FbeIBdpdfeirwJt+24/Nl7/oO86VUNGWVYTZ+WWS47d6fy5x+5SW755hMgok1s17Rnp8VAa4KRefRgaMih2rWpykQy0BKOHx/7/Ep1DbUhC5h6tdiqEZ3DoAVZsO+9EbZhTs/AT4XPX2mgV6VlQQK4RuFSFyR1imig+Vs0BcLXH603UCOiGCMhHUHJNghszQKCYkBLzRw+ObShroLedKso3hkeNkPahCNSrtXKaGKky2OHrvlegFmdD0yXsboJVkrW1fB8j0i7DeXm7MoQFl0QxdKhvxWOSSeLQaA1Sz/gcGqOlYC7hXgiWFraeApoOwmInuTABsk3v7qu5BDiIfhsHFGx84VMPvD3N8nN33wcltgmW4Ua8ahFCbg5GdVn7aW1jYehJQfCfujyB2bB1CG6bIgqqmcqPlWUDWLaDIZC6MhAXwwVEzvVmmWpMxxtmfteONLpgrUY8mNKVITHfSzGNiNxaXDJdB+jm5cyT2VemFb5jEutVavP5uLokoP7vfi0+q7ZmGCNjIQSFAiLDckZXAm3EgWXyieUNHFWZ2EqwbdkU31G3vu7v2C9FSQ7pEHyTRDnzucT+cCHb5TbYDlwTQiJa7paNb/VTbiFadl4rXld4m88TBhKcnCYO30XRQyFgOShjWOAEgZtVEBPuXhAHl2SQc3UqyBLLTSlIjrMVSDGbeFIEgZuebQ0cujNewn3zkqiKFBRUmK++0+GQeRA2L6laWGMIJxC8r2nnbZEdbP6sqSjPQ76dW3cR4uPw69JljpuA3mtBR1wxAH54P//G3ArRmUUvxnD0n1gO9PO3bPywY/eIHfc/4S08nH9fZMOyQflAYnzmJ/c0/YHpODyspGxIcmBymB9AQbeQ2VglyiLnnZvVcmBZ4vgPTX6MuDi7ke3ZiUGKO3SYM9WzbcpZXHcn04VS05zACrp9BJEkUaRFt9NCHeg2ZqWkZEGyIHdnIGMj8SyfduYjMQ4Dlv2THiQKK/jd+1ITY7Jf/qP75QrLxqVmva2wHVDEPbCPL63KZ+45i554PFdIIc6T+I6nIoaO10D7a06NtmSIydmkQGzYnh9I2PdkkO31uvDwuTgrltfvlN457uyMBg58F5QAk8jHYajK+GIpftR2iWhVIB+zB/t4Gc9dThyKDHf+zMsN70qXLq9cfJNV6Hvuj+PbGPAT8iwOZT9gnPOkB/5oavk1Rdvl9F4RqIkhxeYSi2q42fB7xnOymsvu0C2bwokTtmuhEjx43XwYo/PhvL0nuNQ/im8aK4zFUkHcZI4mlkkM+mofOJz18lDTx9APkAenhyGjxwGDYgqUdxT3OvIwYHEwEZChbZJGKi0jNcRy1LJwWrr3kLXn4c5NXX3Obkd/MwnR0kOlocBcOmuSHpV9D1PX5y8OigVtjewZyLL2hKkiX65avNYS37sbVfJv/rJK+XsMQ5IswFqfIdK4PwHkrC2JnvQPGc7kpEAhdc1LMIkEOuqDuT6u/bIH/3Xq+Xg7Cbkx5MDsSGenm0Krl2BUBJAQemE1ljlxIjBlMLmIwwS/EewpQitBRuRV35tOusRG+PfIyzYXM+gL67FC+OoSoJ4KUX8ml5/mEHxLEJcvH1x6ufv8b4pOhBsoFhvBLc5LAN+en+qGcqddz0i37r/eR1ijmDao+PAodLshWD8Oc7ngXVru6XqGZTD0IOoo4TBtTQyyAsHRT75uVthVZh76WEY+jdRdTMcrMAYQaSc9Ygt6ECvqXla3MLCRHHHJfjaliInQz8RkUjcFpuBcZ6KIAbcTynj5T5RpjOoN8UwKM6TSQWVeG30qbluJvb+3Xm7FlovBQKo4JwuLJvVZM+eE3LTTffJ7j2T+G0ZIxQeAh0HynSr5GZjXSLtUmVsfN5UQIzYm8a/f/jczfLwkwclCSeQob68b2BsyDehNYgTlBVHAnrNStmqwKVTlZNhMWEXg2q8VVlRUNGcFBiUphMH7lcVm8WUrhx7a1oyKt94eLfcdu9uOT4Dkqe6q58Ad2IOixddnZVizqnakXDsREOaCH7zPfvkutsfkulOpBZK2RjpEU1c/o53FfvrCqwDBv31g8puy87zB+d1C8dypGWqOIsQKi6shbI/C4H/Gld5ZvGynL9B8S1FFvqbL1z1/KnKfH+DwvaKWhT4cfiL8I98HQjdBLoisaRpJkcOH5OLXna2XHD2uJIJ7A393QhLh02OLkaD/t4I0+mkcClj2Tcp8qcfukae29+WLB6XlNPB2QLad99GhadIjzUJJW/YCupUaPuPge0JTdTsT+05LF+68T7ZtZ8uQqDtDfxLkwR32D7bmbK8ja0tRUcXk+MYwrguTUT53z91ozzx3CGZRaScsRtxrTqPLjw5eKxpcMATCynFuRopJ3TlDbn1nsfkngd3y2QblkYxi9VZD9x3bR28R7ekG96P03fff0C+Dndisonw8ajE9RFpk1i8wdCFJwePNQm6CuUKVthqO4AJyYFuwbF2LB///E3y9N4Z4czTmRY7Jg3U8fJuWhd0OzhaUuTFY7lc/fmb5cUjuYS1zUinIdPNptTr8y+HtxHhycFjjaPsddDiCpJgIyPUWnLU+M++eEI+86XbZf8xGACNhvZABGy0KOAsAVoSrnfimhvukwee3CPtcAxWRCRpmkqjUZMkNffDw+DJwWNNozTzTWl1MJeuo2c9FW2pyY13PCL37TwA5cZ1bVA0uM8asnGSRb2dZXLvw4fk2lsflmMJyCDk5KuO1GLcGHDciSeGKjw5eKxZsAGR4xw45ZrrQLL25zlOX+eWHMHVo45OZfKxT18vz7yY6aAqWgjWG8XGTPZacHGZUPYcS+XLt9wvT+2fEi7C185yqdXgonQSXfmKU/o9Snhy8FjT0JGUEkOsMZEWhM6S5biGgMQBicfksV0H5eov3SbHWiAHskMFJJjJpsh1dz0hdzy0W6ZkE8iiASsj1rYIDtPW0ZKlmeIBeHLwWHOwGr8w8SsNkex9KMZLSg0Kr1ZEwGX/uKxfTb749bvltvtftOX9SBwcHg+roZmF8ugzx+T6Ox6W/Uemtb2iC8RP74ML6Zi1UZz38OTgsdbRV0SDhKaAztLkZCxnPXCdzSOtmnz001+VPYdb2itBi4HtEgcON+W62+6Th549DMIYtWhwnaIoCGjhSXsbD/5teKwKaKEvRxyqNXnAtesA1vR50MC/umSp9V7ANxCu6PD4cwflE1+8XY7D8Gji/NG2yN2P7JXb7n1cZlocLBWUpKDF34lL16uEg38THmsWHP5My4BbXVezAM9wWTm2RQRhXRsmQ50vMSbNdFS+etuDcut9+2UGYZ/ZNyPX3PiAPH+oBSuCXwLhh3EQXoWuixMDJ2wNQj95zSfDBE8OHmsSTtGKJkdthFR+gOmvjZS4nuIcuyvrtRHpdLAfRtLJazq46epr75EHnxa5/van5VuP7pMM7gSJhnCFnnFonDqD08SjxNAsE+extlBVNJuOXaIc+WguQhUVAwFKjHBKBnbMBkie5T1qPRQ3c+6ENlSGcDHyFFZGKqM1kSteeYHs3ntIDhye1VGVtDDYTsGp28yBxuvy2dPe0F9nlvk1WB5KFMQFDFO7xfA8icfaAxWvWhs7xamc54pP/JqXfhaXi8RiS5OfSk4ycMKuRi5Hz4VlOQOTH67QLk3Qgs6/ZLsDQOuA7sZsO5T7H90jB4809ZhpWwMmwmk+rAEyzOCapLgfTEEh4TAtKj8ncNkkLnZ4Wt66YBx5rG0Y+kHf6rUhgScHj1WB8+sNxYzIirhFdajMWuPjoLr8Hs/zOI+K8Qwggk7CGZZQQhCLdnciXoou4gLpQpUflkJqX+rkcvYMQyGp6PcqivxpHpwU8SQ6UAJ5Rh45PRyX9LiEqQ2fQ1ElwCGCJweP1YPWrq6IldaCO89a2tX4Fg4SQKFxnlOrdSEXKGCaJ0oKtRprftbwuFKQCV0KnZLNLk5das+2+hkxSIZrVdElA2EFgGosfLGl8Dw/tweu0nQ4EptpchanBA1t/CTpKPAsbAuJ+AHgFNZH9zmHB77NwWNV4NoJtAZmhc0aXwEFV2JAsaNCwTJQylDigAOQ17Bris/1J3lOhzKRCPglcB7jVpr+RjBWfG0VqIKAKorard27qFxjOpWFhDkuIoga2EaSJIHEUSStBOnxAziwJqIw1o/eFKERgblAHJ7NXA4bPDl4rApKcqCumpIbQA4ZvzPBYseGPeslUJMfiLikPK5p6LAtjVoi4yORjDQyacSJxIiLX6mKiwlWVP7yMwPFDM4FFFWHSeOeHG4J73UTtdI0gdsCMshGpdWOpTmbSbOFvNRxDF7LEI5fSus2tIKA+Bk+nbuRsRWkbDgdFnhy8FgV9CiKmvklOXDwkpEDdQzmOR1+nA9BDPzIcR3mfQ0kcNb2Ubnk5TvkdVdcLK++7OVyzlmbZesZAsIAiVTip3q7Q8ZEY2GxisrxVbMtkX0HUnns8d3y+BPPySNP7ZEX9p2Q4004EOGopHQxkF8SAfPLBlESQwxRUoIYSQ0HPDl4rApORg52DEWDsilo4sOEHwk7srneke+4bIf8s3/yRrnyOy+UCX6jArcxSuclxDhwBbdotejCpXQqYHyF0SIdtVgC4VL2XDfmiV1T8sXr7pU7v7VH9hzJZQZ57fBbGgU5kAjIa7Qeis7RoSKHdbvArMfaBtsZqlslBexbwx0ViZpFVcS+1sBwFXIQw+isfN9Vl8l/+PmfkG9/1RbZMmIfr4kZBpqsYyMRBWPRkZPYMi6qpyXl6vVTk4Bxgh0CxosIYuwznTounn1mQy679GL9JN++/fvkxNQJPA+cGjBCwrkdEdwJZF/jgTDt7uMOATw5eKwKuqTAbU4VNhWiEpIUoF68YLUvCKKWpzJaz+QH3/xK+bf/61vl4rMCkAKUFOf5EX12WQb86naAGpuxLFMLHZUwO26XbR0crsA2jBjWDt2dTaOBXHjxDqk1Innq2edlppnA2smlmbRBDhw/wdvxD4SiPSkW1VCAv5iHxyrAzOzqaEg24lmRs2vajYj/VMYgm5ErXnGu/PO3f7+ctz1Q0qCVQBM+5YpNXFQ2rEsTx7NQwlmooZNWn1SvzSecd6H7IJvueey3wkCngLsvX0XI4xmwXt763VfIm698lYxHqYQghvG4LgGyz54KukTumYYJvs3BY5VgvQHW9sDW/FhrVhtTUA5m4keFKKNyXH7p539S/tkPXiI7oIw1fiOTSkpywHamncuLB4/LoWNNmZyeQpRlLd3v55+sMdIF1xWl2NaBbQQrYLxekwvOPVO2TcTSCDnKwroqszBWUrrn8Ul595/+gzx3YFY64YRkCQhCu0JpZXRzU2zXPzw5eKwS6DqAAGAt6Pcu+8iB4AAo9lDU8kQu3JHLf/6lfymvv2Jc+ClbdhO22omktRF55sWmXH0NvzGxX6Zn2XCYItqSAUhCTjnpbrCRcD4wrOspcWC3Zq1WkzGQw47No/I9r79cfvh7XyOb6rk0ghT5p2MTyBFk/ffe+2m5/cEX5NhMQ5J8VFeTYm9omoBIOHrKk4OHx8kAc6AYE8C5DdZMCPAcCIKToEgcI6ia46Qp33flOfKLP/cjculZNZjsXL8p0BWcDs4E8vvv+5jcvXO/TKGm5tqPJACON2CMWaHodo571oswHxivAwlFrRsIUQOZNZC3i3YE8i9//B/LO952pYyCODimkuMcYK/If7/mXvm7q2+RA1N1RDYhKQdtIR7OESE5LJT2esPw0JzH2gPbGLSdYS5UkVDrFuu3yNYt4zLWCKSBWjgGcajSQpGPTrblGw88JpOdSGbShsxAGTnmgFOwsxz+R5/keR3KPL9wQZh2FksS2D63WdiA61LXlaxn8kh2H5qSb+58Xg5PGuFwwhefgs2q5599rqQdujQNCeMR7fbsgECC7sjJ4YEnB4/TA7UYzJJwhEECIKh8EdyEOq5TAdMU52HKs03w2PGmtFIocd6QnI2AcUM60EiuAMXP8tNdodgHcDnvYWHJMqTAL3bj3pRxFMI49DuckFZWl2PToUxOWf5S9pKAAJhr2h2jo+PIeyCz7VbP8OthgycHj1UHTW22A7gvmrtznDPBORE02+tRhGPUyNC1oFgintwRRDYtutvGAFNDezeKeAjW7q4RkucXEg6fru474bHerxPBQskipAnhNbUcGA5XahHHOLCbgud4E3tbhpMgPDl4rBJYtJzgf6F8jigIa0SkNVFYFAD3eiZDaZei9VoQ3ON9Si6QLingHMUGRi1ROB4DVk0Ogui2kQB0IgiXE93HQyhh8HmYdvFMw4TyDXh4vIRwDYsE95xCerx08OTg8ZJAuxQLcbVutTDiSrF3anDtFx4rB08OHmsCOr8B4rF24MnB4yWDay/wWJvw5ODh4TEQnhw81h3m6xlwPSKnG8PYU0F4cvB4yeCUmUOflwrXpXk6iWFQWqc7D6cDnhw81h2WQyYepw5PDh7rGm50pBOPlYMnB481Ad+NufbgycFjzcCWgDu10ZH9loIjF29BrBw8OXh4eAyEJwePVYKbUGXSX5v3dv9xshOXlePn6Th02hZ5cPfMaYDMuHwbwuN8r1TTXBzcUG5dIr9/pSj8VWPsf5buvUMGTw4epw0pShsVix+BYbefEUQ545LrPXCvR/cCrrPAHc7G5A2mpjoTEpKFJlx0ZblgFPoNCl1vosijXiFBcI1sS909B8EsDdNn96sYzqfyWPNQ3erW9KcOd59NneYiLKbMPK/rRRQ1v34wdxHCuJzl4bb9FkIVzIFym2Jxz7Be4MnB4yVB6QIQxXZQDezC6dbgBhtZrQ1SgNSg3/w0HfeXArNEuFYkXBsVpllGZkvAFMJ0eRKgO7MQiaxneHLwWCV0VakQUyIqE+pqPTaY0ptDYeHc1pGAKiNE2wJyuBm4buEBkAaJRuOGQjtF5XYpwriYR4e0aP+oouQMy7OlbzJMcL+Gh8dpARvunCJ2USiVcxbYlWmOgimiWQgoqsU6kUFQg9/Pj90gfBEXFTThfmhLyrk2iVMVAxQ9jLrHZR6ZK1sbKijaSyiuEVLDV1avGhZ4cvA4LdDeBPj2VrsaGVRr6F6UYZz1QDC4OzbCsP1qmBJWqy9KlIDqhZCIejNoOUJIpMcFZ5kHPk8HOz1kNyTgW/HwWDG4mrxfnMVAKFHYbg/mkIUeQyX7zHUqJ7sydUVoiIZRVBR9Qbh7+gVWQRZLlMaI1yyEErxOWNxs26CdQ6uBweYnuvULTw4epwWmyNhhzwKXnceWDYjUKbYldFITRQb/HSpHq73eoDnfljxrSsSPUwYJznOLENrGAKUtxBo5Tw6t+dl+kUK5i94NlbQt9SyRet6UrWOJjPHz3gqLl60PCcdiOHeCBMX7dF9PDRU8OXicBlgNy4/O6odnSQzFXwiC4PVmsymtxBr/zOdHzY3NxKa6nHf2FhmJEwSbgWLPShSSHNpQyjbC8NN6/GI30qASgzy45P18EkO5WeNzefsw4DL3/CYmCIff5gQ5xNmsnLU5kssvORMEYURCkB4oJ2amdDFcWkJcsj5P+XUukJ2aRcOlTp4cPFYZVNhC3D73uOQ8SEIb9aBs+w8dltlmAjVFDQ09S2EdsPvw7IlIfuGdPymXnhPKeH5I6nJEaukRaaSTXallJjGknk6DALA/j0QVqQezIKcpnJ+WRjgj4/Vp2TIyJW+86iJ56/d9u4zUkF0QFWmH+eogq88+v1+aSaaf83PfuLD2ieFTJf+tTI8VRbVdwVDU6IC19xekAJOeNXgdVXMcdWQiOiy/92s/K9/z7WfJKCwCeP24al/YnoZx8MzeKbl351Py3J5DMjXd0i9XMQ1tz3DxKrhFmvOUaio7P8WXphz8VAaq12PZunlErnrdZXLFK3bIeVv47UxYB4iLpAAbRY4kgfyn//Lf5J77j0gzn4CLgRvjBrwTWDlIls/Z206xvuHJwWNFMZccqDSsd4tzWsPSrQiUILKkIzXU0COwCH76x94i7/yfrpLzoZgx/HmuSE2PnrU0421h20ZppU6zziZceg5sn1xq4yDdmBjZq2Fby1twG5BLmDHtKJQm8vG1b+yR9/7FZ+TA8RqeaJN0QDD88hU/rccvbZOQhokcHN16eKwa2K6gjYBUnMK9YMOetvTH/DZlAOUblWtvuFee2jspswjC2phannYSVdoIjFDLOrI5zmRrjZKrbIdFb8L9XHbUU9leS+VMXOuX7V1B+J5jkzMQ9xiSbSCP9l1w2AJRBMshkCNTIl+94RtyeCqXdgp7ApZLVHy2j+0cfCaT4YEnB4/VA62EQb44lI9jHhI2BqLmzaNYsnhE9h9vyXv+5O/lW48eBVlYM2NQiyVJ+MHaFBYGLQmQitoTZS8B51TEOEJMeg56rl2N/aLncV2PuZ0j/CQeP+bLgVEgLVgGSZbLwRMif/Xhr8pt9z4mLX7NOxpV6uDHdA2l6zRMiCYuf8e7in0Pj2XD6YttoGTdfV4z5eU/fg9Tx0EG8P8zkAWUMIJ/MTs9Iw8++Ihs336OTGzZIkGdYWNhnwLjdjEa5fCExqi79i9HOCgudgcJkes9UGecsJ4RA1U8xXGC8x3EMZNE8ty+lvztJ66X6297BIQ1BsJo6Md92dnKfMf0Q5g7NrDifsvfcMCTg8eKwikgwdodZwp1gdLqHtSHSgk/XRUJQUL4HKZcVOqGTM3kcs/dD8rh402pj2+XTliTEEoYQSxOUkVpPzBNZ9TzuJKFOXBhbIu46NroedgkiGgK5sqhyVR2HZyVO+7fJ3/zyZvl9m88LTPpKAhjRDIQlT4JiI7tDLbPmItnWzD19QXfIOnxksIaFEuTXPsoOGAqbcK8b8o5Z47LFa9+ubzmlS+THVvHZbwRSA1kwd4Mh5KQynhOFc5ySNJE2h2RYyeasmvPi/LE08/LU7sOy+ETyEttTNqZzeXgF7hdd6wD21Rcw+gwre3gycFjDcCUrdrzoK4BFDbIO1KLUEvnLexnMlpvyEgES0JbCYwYAlgeGRsF2Zbh4jiJkvZMmgJIDkknkbTJ1ahoHdB1qMOaqEkWwbqAG8R7bMEZAGmxkdUmhBk5cLSmJwcPjxVFWRNzHQV1E1JTXDoAEVRVa2s3MhEuSSQ1C8/zHFKtW8bDMQ6npqCMi20dYWThmSZjVnLIIkmRERID88Gh2ow7LMhBuyyRTne2KNK2SWXDA08OHi8JSjOc/wulUgWDrhXX8iKQzsDANTs2ZbTRiQxLUrCuxFzgFwCcs7GQ5aCkQ0ugIBt3jkhBPEyDlgMtEsabZbRK2PUKInGWA8JwkpaRQx35tkVi7HmGA/O/QQ+PVYXVxD21LWtiKHaUwr9vmwWgk7NYu0PpOKxAzXoqIoiAQkJQC0CXejOYiT9YLKxZDIQjB27TAHGETWSjie0M4m4Z4Sgx4OYuTG2Y9wS7zqUZNnhy8FhDYHE0YaNj1X/P2N2Zwn0gGagyFlKQjIO6AAsUa7YdkCS4GlWSm6XSJQ5aEqj9JWzj6izE2jmiAARFTtIYLG6mQQuHlkvqZocOGeZ/ix4eLyF6a+pSqbtuRB9BMHR3sVm6DScRorpP6NgLtVRgwYhr9AQJgAW6bQtzJlkxP5WG0CGCJwePlwRUNidWDPuLoim59hJAdAw1lbdQaLoX3CKUEgPdDrokrp3CavX5xcVXFYs3KoXkUMljdxYm980bKTB8VgPR/4t4eKwRlKa6KnO31rZl3IKMYufYMKjXxG0d2SxO2AhZFbNHTPWViEhAHIOhW1oqvTJs4Fvx8FhTIClQ6EKoG6HnKBxPMFepS1kJlHGRECRK4W5w7UtzXwy2rVo/jjCGCSv1Rj08VhS6BBy/H1EQRamYRhRV5NBKSlbMsNLl25YglkYhlTYNbaTElvmxc2VeDMOpRp4cPNYk2HPAtRTYxdizzmMhPYo8R5aGQa6BIyJrqyBRMYVyuLTB0nRu0LDAk4PHmoTredBxDrrl4CYnpd8PpuiKTqdaloJaeja2AqqBdCmODLi1LkwTPadSto8MEzw5eKw59PryJvMVVbeQjIMqtcLdsxgpwTRpSWj6xfFC+RhGbJwn9VhXsG7F+aUHVFonKwztiSgsCdcr4WTY4cnBYx2CxbZXXM1eCs4uQaqYG+d88ZbXhwnD9TQeHh4rBJH/AR3ZsS167jwBAAAAAElFTkSuQmCC;" vertex="1" parent="1">
          <mxGeometry x="1342" y="234.8" width="88.5" height="71" as="geometry" />
        </mxCell>
        <mxCell id="BUz5Cs6KhjB94nJ8huxt-15" value="" style="verticalLabelPosition=bottom;html=1;verticalAlign=top;align=center;strokeColor=none;fillColor=#00BEF2;shape=mxgraph.azure.sql_database;" vertex="1" parent="1">
          <mxGeometry x="1580" y="190" width="37.5" height="50" as="geometry" />
        </mxCell>
        <mxCell id="BUz5Cs6KhjB94nJ8huxt-19" value="" style="shape=image;verticalLabelPosition=bottom;labelBackgroundColor=default;verticalAlign=top;aspect=fixed;imageAspect=0;image=data:image/png,iVBORw0KGgoAAAANSUhEUgAAAOUAAADcCAMAAAC4YpZBAAABVlBMVEX///9be5T///1aeZP7/////v3V3+dwip5ZfJhmg5zK0tb29/dviZtaepdceJFafZyLobXb5ui4xMzd5ev///r//P9wnME/e6tQiLP///b3///7//wAjs5zn8H/+v8AktGlwtozdqsAldhqlLpHgK+0yN0AktoAlc0Al9gAk8kAkNRCe63D0uPt9Phfe5BQdY+Ko7H3//QAm+EBjNTS5fV8l62Mqsc9dZ+YtMujuMpFfrAzcKBkj7K5ztiYqbjx+P1rf5KtwMxyiaR+kp9Vc5XW2N9JcZD/8//g8Pmm2O9Vu+Ryye4qquCLyOjM7f+32+xwud/Z9PAqo+AAmOmRz+1qrd85qdBnu9IAmcaz4vowseqd0vHD5uyW1PRRt9is4uqHwOkAiLxivvib1eNOqde+6/91tM4AiuAxrdO0zOozca9gjb8QcbYAYZxfnMeXuNfi6uCHstgzX7c1AAAY5ElEQVR4nO1d/V/bxv0/H3eOiQIk8R2yJNvyg2z5SVCw60eISrt2JgFM3LRLGtqlDVvX5Luy/v+/fN8fGWiSdaR0ebV2pndWhu2TuPd9ns+nO8ZixIgRI0aMGDFixIgR470EZ5xzKek3zt/WFs0k54KL36Nn7w6Cq1AIJRytDeVYV7aV2tK2NrhjKMF0NDALAiFEZXf35u7NgIHr1bLkzEqi7c2bSZLlApFkUoTLy8u3bty6yZiyr+45dPverRs3bt0YGGKROIKZDFOp1Gpq6S4xvrot1+z2UmollboHlgtFU3FjKbG0sfanuxDVWyTE8+z2ytpK6rN7YsFYchYuLW2urqxAlpqpq9tKdju1ubScuEdC179PB98NRJiALFdWbzL9VpYMLBOrGxv3jN+pc9dHFA0NZVnKCJLpn9H6aDWRSmwMOum3Y/zJ6tLKysYHr7UNpFJsXjSYIjo6I9J7927cunVreYaPPlrehD9JJJZv3Lix/BZ8dGMJGovWr7a99clgN2ByTsQLkuiJSHYhOnQUnSUk4DOXEolNqG1ibW3t/N1fRiL6sbpK/7eyBjdEgFWvpe4FfzS7C8CFIlakP9hMLBE2EjMsrUbY2MDbmysX7/4SNlYTs7ZwyqmlldTF+6nU2uYgvNqkfzdwIRgP9zYw+pBb4lw+9CK1Ql3GbzMx/UegRQJmuYb2+G1jJnf8vrq0tpmcG5Y248E9dBMKSl2OMFPEtVREG/29AqTcqQRUldpjSC7eX91YXVvbmxfvI2wt0x9CCBsbq0T1XN1WP16+gf8tQ5ikjFcgtZKAt/kY/8iUL5QbwgT5T8I/mt8MkuwyeYN6t/oznc3UUhL49M499PdPf7qKJEZk824ynUzeuUvcLtqukNKv3Job/wMHBJavY2ljgxJY7uxtkt+8kuXSxuYdFJe2uEnmuXL5NoZtbXmuWSY2PuIShZTc29z8WQv/A2YsBfsU8tu4bLsALOF3UP3bhtxLbSY2r2aZWvosaRjI6T+FIS4cS5RfSkFj11ZWr2S5svJZGkOi+KcUMC/bLgDLpcSGEIbh2JFdriSuAuwSsjQM2CUF2QViubqR2hsMBnt7H5KvfAtW1+5Fje+tJV6R+ryypH5ddDG1FmUFqytX+1cChL20BEeMXOeVAaHYuboybywjisjlVs5xmcDh15Wr8Wq6h0hCOT+xXEptzB3LSIJLiatyuV+HC+5I/eaPJXQ19XMe+y5YRrKckwyPXbKkDH1z7b/GZdk5jywhysSH9z64/V/jgxluJObRLjH4y63QeGe4i2ps7ljSDMhG5y2zdb8S0WTlXLKEc02tJtnFNLrOS/7nLZbPMyY0y0dfB+nrTLXKu4klpIbLczK7xX6RpeMIBy+cLcty8DLvOFJa1tu+4XsFC8GS520qphz6XtJmXOfzgr7O/PX3XAiWpKhcOfZ4PHa2BFc2Civx3mms2AIt6ezfv/9gvKVRglmSCecaXzUvBEuH50VeBA9K1YMjR1tMKe5I9d5p7PM800542GgcdJz8lnU04Za4zqqB+WYpIDah2OTgmFsyOHSrBx1Lq4cHpx1Y6TXuOd8sHVB07P1p6fNj+9FBLdvwT7+YBF+23ftH15pAnm+WNA1tGc+qtc/9qevW3Kxb/Xx6Wm27px39/mgskh7BrfFfslU/+70PitXst6XGY//LJ0pd58vI+WZpObBLW7HDUvZxvXZ//68Pvqr5nzf8J0zbzvuT+9haCK2NU/9xdTohBd56tO1X/UeKa+saufx8s8wL7XDNntYa/nSC6iKfV/Kw5pa+M7autQBkvlmCybhzdHJcyjYOmaMdqbVkB36p9KhzdBTMluTRyhjOkQkhsaULBGf/5pjmm6WFMFKbHtRLVf+IS0EsFXuQrdX86fTgBPmPQBJkwUuhatFOXjiKS2cLjMXr6jzfLB1hP203so166QCWqDSKSslOsr5bcrN+R+S1UFKDFDRba9hwJEbb0cxeJJYqYll16+7jAAwjUuqR72dL2VJp4mhaZSlsoSUKUPgpclS0NjHPndcrlvlmidq58/XTp6euX9tn0E9ED2Wdtqvu8eTp0zFXlqKIAuvkSmEMuIbnlZzljTdS+TlnCbdiO+rv1br7TSgsy0Zx+Ve/VDt96NAqO/I1luVMjr84DSA8cObO/vHh2LL0IslSwXGiv/kvat9vH9osjxedg6pbfcZho+RxtBL7X04bjcb+FmNbXPC/fVWq1U7HbJFYar3laFSSD3yksPefnJwcPT/1s/70xGLIipjFbKtTcxt+tj3d0mKLO+GzdrXhlurPF0ljlWNJx9KTKRxOO+tn4Vlrrvt4G8KSHD4nr/98lP3W9/2S37FEXllHU9cvtd3t715P/+abJXyLwfmTAx/upwoyNSq+trcbNdQk3NnCMNjjaqn0+HEj+4/j+9/dv3+add1G3d9+sEgskQcIJ3wwzfpfPb0PrjXXnx4ixWt/NYFZgqjNwmfZbN2vNrJurVGCgbq+29h+/HCRWCLWC6XGx/AnMtw/zVa3DzuSPZ9On4bCiUpszU+o6my4bUgRvxFJP3vMFykrkDTBzFjnsKO3eHiYrR2MKTA+n+ThfB1DCy3Gz2qQoF8vlRqg6TbcbNuvf/1GJj/fLBEuEDIEEh5mcPtRtvTVCdjZkkmakM3nbcg5C3Y+2Sz8TslttLN1t/HVfhRJLrnOOUthSKhsZIIseIQUfYy8dQve1T7Zn3S49fCUTBEirGanBwdTGC5QbZT8CT0gJGfWKeecJUTGqOwQxFKPJ5OTgDG9hayuc7p9cHr41/slcjel6sGzZ/udo8mjBwe1Ellp9fSEjZ8/OjxRSgrIfG+eWb7+ibBtMZuG1cGzbeio/zhbg8OpTR8chaGNFNcOO8/8KsRZd+8fflGrbT9AKq9QoiwQyxlAVKjxwbabbTTart+olqb7trY40waGQIaTg5pfR9BBhK1WGxMB8s58a+zrn6CGpgqTaW7tQ5LVBjkdiHIfVYhAUk/NUZuNT/0S2Pv1ulutfs0l7qgXiSV9m0flMgu+qdWQ7bkusrnpI8uBvJRNj+jBUwl+Uit967dhsH49mx1btnbYArHkVEqCJRf284Nqmyj6jcbpWIGHZeWpyibD1eqwXWogilK2t32khNoSi2SXoEkh0GYymDw4rTWq/uOa/4g5SPSQC0YJRD6vUUHXqrUGkqBqdXp/LJly9CKxRNnMAQEr5OHRsd9w643TEGFVcU7lJn03T9W0eLqdRc7eODh+GkaZwSLZ5QVktP6VPaqjUsmevvGhgpGqo2oWud7x0cX3YovkYy+BHEFoeUjpQP1NljShqU5gk43GvryYMlhEloiKXHDrELlcu378RmIOy7XVw1rJd7Ngef7hIrLUcDXMdg5rjWzbvf/GhxIf8TvQV7++zy6+/ltEllFclOzQhcBKb2ospfhijGBaau9fLn1aRJZblOOFzynFcd1/Y8mkI/5WyqIgm7BFtkttWQ9RfPgUEd0v31xfAEGzv3+OD7P+80X2sVt/Hn/XztJEiPu4VD1meZ7Pc71lSWQ/2nLyjv2t/307+2292viLbaFW0YuU4V3A2Qru1+qoOvxStl4/HVv07YFDE35bWw5eqO/aVbeOAXCz1UPBhTYWkWU+Hzwo1euNrF/9vF2aHj+0tNwSho1yOU9zuPtwvpTEVrN+7TSPbF2zRcrwLloI68nUBUnEC5q2Ox4rhAxF39FyKcOnB65PiXq7lK3VvmYRywWUJXLV8WnNLbnTaQ1VSbv24ERKYcEouTTGT7erfrWUdf02PNC0o4j/IrK081o89bPTw8nXNdRfjWrptDChJSOSdfZBv12v1vxvpu1GtXFoWLa0FpKlw7QTTCaTUDnP2iXS21Lt4PDw2bNnh4ihJZQq/vbxeHL4uDHtaAcsxSJGEunQEgmailThoY8KixLaajQ7UKe553Y1exwwFnY6Y0GrK/hCxstLSETDSak980F+g74Ya5R8v5r95o1l+AvMUoq8bYXjqV93q+SLIviQp/uV/cb+OAvMUttbcERP/La7DVl+X/u2WoVjLYGlz61F+i76yoY0nywd+paapn/8z/1a3W/TKpmGf6Sd15ouMEvmOA7rfF9F2HDdw/Dhw/H4yffIBkpu+x/svWGp8sgEHiGNKyGlHXOlOBsfVNsN360esEVaV3BlQ0uDpvGXxwgh9eMwmuMR+24V2d3BF2+sKl1kllLblrafH04P/tFBxSW10JMDd3rwxdOx897IUmspHJ1n4WRyEtJckNAi3H/w9ZMxo42ZXsUis5RK5oVhKcehqWgu7VDLcBxKbgj53rDkW1sK9SSt+5G0JJoz1FgK8qXniF6fJ1lklspBOWloO1ptyRmtrMzTXEEeqvzesKRZnmgXUsemp/loXSkTjjI0+MtFyX0S6bdlBaBEZKTWluUgcbdhp0pFD4DxNzYmvZtYIZZz8iytIUIpkx9/trGxutFK33lnGKwtbaTWEnPyjLukpQHJD1NLqc3U8q13h+XE6urS2q150VjaQy24F+08ceVWadcEbX2UStybk93FGH2dE+5tzLZ+WU79wnYo18P5HZZWl1ZSG8k/mtslJJci+UlqaZM2OXnLxii/Apd7q0A1bgfzstMzrSoTxs0PZ1vf/feI7gGKiY3l22912r8bJKdnQsTNe7c/ftu2m9fCjdsDFGfzYpdy9viWDNKf3nyXSAaBeOse5n8A5LuEMS8x5H8UEIF4V5hDXf1fwzuT5R9N5CrELuM3YV7iZYwYMWLEiBEjRowYMWLEiBEjRowYMWLEiBEjRowYMWLEiBHjfxT9brfPaAsQJi1F2y5FC44Eq+D9Fu0nTuvq8Z+w6WkJ2pRIJAt0Uf+HMY+epYgOBw+FkErajmKtbrfboq1kFT6mjbfONw7huA+nBTDC5hrXjM+63UIoGKeH3BzFZ/vucx4UcHMxW+kumWWhVzrafpeWzoQM/eHXX0VTLhYztDc6l1qCpTC45LT12Vmx6VXoHE9m4H3hROSl4MzqZzzTHJqeV24xRTt0c2nYitPDP7iSdYvFYSHa00iE0qAH+fX5IiFafId7cJteqmTZHK0H9KQ/WKA1DQHuwdPrppmhccatRbSjDu04Y9GDcVzanPaN/A0scU96TlnSUy4EA6OLO541m5kKyZd23FaQFQSATir7J9Ps9cwm/g29XaXlTP7UAl3Ehd1m0yvw2cJEnQd15eBtTsxopS2GxFESEupkRsQSb1BD6gB3SJ4XLGmjdkWHSmmWn40SbTCnSA9+I0vHoAGHvDidS4GeQZYmREJ7ownJbNqSWpCaCdZ6MRwWi6MXRci692EorUgEmn7MToDqe2avQD0RpIsatzw/TUhEQsBPRtuqOclys7luCCVo6zGmaaGxIuM4Z0lHKmCAdT6vmbIsugSXW6Qz8vrLviKWIEK7v0tuaHpSS5IsIaoKNwSzaASgL5FAGMuNzOF6S7Cg3xsWh3tK04Z/0CRJqk79BUu6MNJBprgt6AgMIUEhGisaEkPgxsmdYhEsYWqGLcBH2KHWhiPOWTrCth3HsW06TIu0XUumbDqO+TezZCTFZNcrvihmCmPSLNY3obHJndHIzN3ReYfTLkUK2pMxzR14JfxeePmyPBFELd3NQLyZXIsePuzjhoVkGbfaadkWxkiK3Z1RsdgbhAY0hcvwzEPjQnInkqXe+7/iqEA37I9evChcaizMOfmTVyyauQ5t385/KI7+2fqwWPQqQl7nUIlXWGJwwkGv1xsVh8VRuUW23++Zwx97xWbTLPZamp4XhTuE9q73ht5Oi1Ypz550ciyjVW6+MOGRzEzF5qw/gl8a4sLmqNmB9xJBF7cd0sctuGqW3jExAkXz5cseZMnEYNQjN6fZWc/M7F2yVPbumtlswjB6/RC0Kp5XLJu90douuvEruUUnb0ly1TNZKlFANzPlbrlnFneSxHLUNL3Merc8bBZ749myWKiy9QOcK1rmWsk7DrpmO6y1Uxyu5bplbwgepARes5fJdXfQR7KFoN8ceuVuDleVEXvC20Wv+LIL6TdNEyxZodgcws2BJfxZ5WeWSbTI3Ka/DzO3eMvDUHkIMmP2qzXWsSK5E8um+RJigor1Mrtp1ilAS7rwEH30whsEPJ3L9HpduHh6RogMLweDhf8pZtYrSeirZYBWsW+wdN/LlHcNXDgcZvYMAQk3RwFjdzLFUT/NgorX9M4Qh72mmbkZikq555m5gFjCjikM9sk5X7CUNiLSTsuwk2XPLAeKtzLQqr3rHHHHokMKFAWvGUtuDECqYmiLBd1eL5NkxLLXDWizE4g3E8k98vkq3YVUoMgIJ5mK5hJxzyyHcDbBbisJ2UB0zW6IMen2vGKLiQoMPK1Aozwy19Nk76Nd2hCnAh1+laU8G77KMoDk9qifhaHnVSRr0ejY1yOZZ7Rn8YxlD1nBnXWoR6A0/rXMXrECjS3CidDzorDEppdGRKS4TOIMWl24IERNr0ka2kKS0JeRmMlrEQ2vALnLgWeOWizI4Ubdwdmg/xK9Txpd0+vBHUto5Oss2essW7gsN+j3BznYeJ+RDng5663EXsN5BEMMLMP6mLgD9SojnoFWEoZ4ZpD3IZbwNxTmdykmgwNCN3x+kG6dlT0ETOpma2gWC8oWs0NnNNklWNq27MOTVViwXjRN+JCRCXt92UpDATOCHrAgHXiNZT9iKc9ZnpH9j5rFFzBf84yrijccnV2X5W55fb1FyVfZgyxFumw2y4GAErPkkAyT/TRjyZCyDc1ei44lodMr6FlM2sk3HI/Pil7vZYftms1i36aAr6Nhi1hypGLIEYklTMIcIZKMRkglKmPiAPXn/C0sC/DlGB3CqLjO1a7nNc+uGUHE3Z5pFkhzI41FKG42fwy0yjssiZsXHNY1e5ThIbKDZSYJghZtNl5ZK5crjPTTsnKm+bLCdj3I3ibpILbjZx/2U6B9SJEeEMsctCRpBEYwDgzD+lcO+h9tVPqmxkp4n+ErLM0inF8Q/MvAD3ifXajMdVlq/U/ThMTYzUyzV2YK1tM0jbxgTr4Ce2tZ4NaDOUhbhJH3YXmkMHS8HsSSG8+OO8ogVLRY60dvlNPnz69LYjnC8CDV7vc82CUMsflyzPLQeIu29UHmOBpT013vVZYy8rHNn1kmTQqjcAWWspWlWQURt+BcxenfYQmwM8+MdK7nvcgho2s1iyblW3IM0ezA2ZwVhwgtYLOHwb9NY23Z9Ex38zM4HUSGf1VeIrSWx2qM0FJMozvJncxPHUOR26ogsYPqDkc3uWw1h70z2jJWS8sh+/KKOfQ+6MLe1hFAWyOK+xRxoD17lpWGimcUC+BTy59i2HVkCs5dzxsVrnOKKGCLn4pepPfIranASufAar1l9DPmcPgDfA466zV3dsdnQ3PYQ0rHyMFCZD+g5jIjYyl6zeYAmdguutesBK0d+AqECgT3TAU5Lx+Az67D0mXcqZs2fjLLP3XgQnNDc9RNd36k7CgXWjJElpAppJFbRNJD5YVhMpgB0fag6rsZL1eBU45keU2WQo53mr0eFYrFLpUUcHkopshHmF4hQKVBLDNEp1n0urTlGRyL1ErZ/R7eM4eImF5zPUDpAKkgMS2OcHmmI+XZyMz8QLUxZPkCaT0iHWIr7mwWzYGBVI3CEDI8DLK3HqBczKGIIy+MXGdYoPhbHMI/UQjqUS7YM0flDmohJIn9az7mAY+5uz4kki/7gbQpSCQRBdEVr1wx6NSxs+LI669H6ecgIJ84OxMI+eWgjD+IhpmdQppO9rSC/o4XdTPXCmF4UV4qSWPN4i60LazkMggqvUx5LyDDqpQpWct0c8XR+hgeLZ1DLoWLz4ajZoEqL+RVcOnqTjdD2bqX6XbQH5jUqHDNh6YQ36xxZTAYVFDvY7xR2MughTf6lbSgrTFUq98v3BnvoUkLHOE8aSqAC42MNlkp9BGuK0kUaZTcCju51x8MCq2Aav1Wf9Dv0FzITTRKKgMeJ105w+d7SRYlUDy5N+gXWmP8hUrAEWfTuN+gMk7jnkklggra0sbXPGzh7xQKLSgAkvxBf9C6pvcRIZ0KHEEjgLPoUEdFgYNiQDQzwaIpAErN8EJHMxdwWoxbs5keyiui8liS56TWiipIynfJguVs2xBFRfbsD6GGpdkG5ViUFGNso73UZPRUW1Te0J9F0UIVKOOz8mp20G1Ut1Jxe905AghHbEWnAqN2pDvTJIuKDsWjHbeRxlClj5pS0OEyqF3RHW3Dq1NNHPVVRjkAj66hCtuh6QzBbLJdRgUzftApVxRkaZsfTbuSC0r5VVQUU/5DeSEpCVXgURWPelrR2EUTFzRq+BPRwEs64IVd0/lEgxeJKzr2T1zeQLCZPKMRxJszicrZIApS7EhpLs7fmM3fsZkmissbsGjz5qhRJJjzptF+eSyaJqIWkZnzWWXEowMISUP4+SNRnEZhdjt5fvW1WcaIESNGjBgxYsSIESNGjBgxYsSIESNGjBgxYsSIESNGjBgxYrD/B4gDh4YXc9SWAAAAAElFTkSuQmCC;" vertex="1" parent="1">
          <mxGeometry x="1202" y="20" width="72.86" height="70" as="geometry" />
        </mxCell>
        <mxCell id="BUz5Cs6KhjB94nJ8huxt-32" style="edgeStyle=none;rounded=0;orthogonalLoop=1;jettySize=auto;html=1;exitX=0;exitY=0.5;exitDx=0;exitDy=0;" edge="1" parent="1" source="BUz5Cs6KhjB94nJ8huxt-20">
          <mxGeometry relative="1" as="geometry">
            <mxPoint x="1106" y="76" as="targetPoint" />
          </mxGeometry>
        </mxCell>
        <mxCell id="BUz5Cs6KhjB94nJ8huxt-33" value="Credentials/Secrets" style="edgeLabel;html=1;align=center;verticalAlign=middle;resizable=0;points=[];" vertex="1" connectable="0" parent="BUz5Cs6KhjB94nJ8huxt-32">
          <mxGeometry x="0.1939" y="1" relative="1" as="geometry">
            <mxPoint as="offset" />
          </mxGeometry>
        </mxCell>
        <mxCell id="BUz5Cs6KhjB94nJ8huxt-20" value="" style="shape=image;verticalLabelPosition=bottom;labelBackgroundColor=default;verticalAlign=top;aspect=fixed;imageAspect=0;image=https://uipath.com/cdn-cgi/image/width=575,format=auto/https:////images.ctfassets.net/5965pury2lcm/2aHZIPRcbAfna93aPHhqVb/fce57757bef0275626d814fb8bc0fdc0/UiPath_Robots_Logo_Video_Spotlight.png;" vertex="1" parent="1">
          <mxGeometry x="1231" y="90" width="250.38" height="39.48" as="geometry" />
        </mxCell>
        <mxCell id="BUz5Cs6KhjB94nJ8huxt-23" value="" style="shape=image;verticalLabelPosition=bottom;labelBackgroundColor=default;verticalAlign=top;aspect=fixed;imageAspect=0;image=https://www.uipath.com/hubfs/resources/images/products/automation-cloud/Automation_Cloud_logo.png;" vertex="1" parent="1">
          <mxGeometry x="1240" y="345.27" width="360" height="39.46" as="geometry" />
        </mxCell>
        <mxCell id="BUz5Cs6KhjB94nJ8huxt-24" value="Shared drive" style="sketch=0;aspect=fixed;pointerEvents=1;shadow=0;dashed=0;html=1;strokeColor=none;labelPosition=center;verticalLabelPosition=bottom;verticalAlign=top;align=center;fillColor=#00188D;shape=mxgraph.mscae.enterprise.shared_folder" vertex="1" parent="1">
          <mxGeometry x="1530" y="30" width="37.5" height="43.6" as="geometry" />
        </mxCell>
        <mxCell id="BUz5Cs6KhjB94nJ8huxt-25" value="" style="endArrow=none;html=1;rounded=0;" edge="1" parent="1">
          <mxGeometry width="50" height="50" relative="1" as="geometry">
            <mxPoint x="22" y="550" as="sourcePoint" />
            <mxPoint x="1401" y="568" as="targetPoint" />
          </mxGeometry>
        </mxCell>
        <mxCell id="BUz5Cs6KhjB94nJ8huxt-34" style="edgeStyle=none;rounded=0;orthogonalLoop=1;jettySize=auto;html=1;" edge="1" parent="1" source="BUz5Cs6KhjB94nJ8huxt-26" target="BUz5Cs6KhjB94nJ8huxt-28">
          <mxGeometry relative="1" as="geometry" />
        </mxCell>
        <mxCell id="BUz5Cs6KhjB94nJ8huxt-40" value="Trigger" style="edgeLabel;html=1;align=center;verticalAlign=middle;resizable=0;points=[];" vertex="1" connectable="0" parent="BUz5Cs6KhjB94nJ8huxt-34">
          <mxGeometry x="-0.2692" relative="1" as="geometry">
            <mxPoint as="offset" />
          </mxGeometry>
        </mxCell>
        <mxCell id="BUz5Cs6KhjB94nJ8huxt-26" value="" style="aspect=fixed;html=1;points=[];align=center;image;fontSize=12;image=img/lib/azure2/databases/Azure_Cosmos_DB.svg;" vertex="1" parent="1">
          <mxGeometry x="198" y="683" width="64" height="64" as="geometry" />
        </mxCell>
        <mxCell id="BUz5Cs6KhjB94nJ8huxt-35" value="Trigger" style="edgeStyle=none;rounded=0;orthogonalLoop=1;jettySize=auto;html=1;exitX=1;exitY=0.5;exitDx=0;exitDy=0;exitPerimeter=0;" edge="1" parent="1" source="BUz5Cs6KhjB94nJ8huxt-27" target="BUz5Cs6KhjB94nJ8huxt-28">
          <mxGeometry relative="1" as="geometry">
            <Array as="points">
              <mxPoint x="316" y="836" />
            </Array>
          </mxGeometry>
        </mxCell>
        <mxCell id="BUz5Cs6KhjB94nJ8huxt-27" value="Azure Blob storage&lt;br&gt;&amp;nbsp;for archiv" style="verticalLabelPosition=bottom;html=1;verticalAlign=top;align=center;strokeColor=none;fillColor=#00BEF2;shape=mxgraph.azure.storage_blob;" vertex="1" parent="1">
          <mxGeometry x="203" y="837" width="50" height="45" as="geometry" />
        </mxCell>
        <mxCell id="BUz5Cs6KhjB94nJ8huxt-36" value="Get API secrets" style="edgeStyle=none;rounded=0;orthogonalLoop=1;jettySize=auto;html=1;entryX=0.5;entryY=1;entryDx=0;entryDy=0;" edge="1" parent="1" source="BUz5Cs6KhjB94nJ8huxt-28" target="BUz5Cs6KhjB94nJ8huxt-29">
          <mxGeometry relative="1" as="geometry" />
        </mxCell>
        <mxCell id="BUz5Cs6KhjB94nJ8huxt-41" style="edgeStyle=none;rounded=0;orthogonalLoop=1;jettySize=auto;html=1;" edge="1" parent="1" source="BUz5Cs6KhjB94nJ8huxt-28">
          <mxGeometry relative="1" as="geometry">
            <mxPoint x="631" y="793" as="targetPoint" />
          </mxGeometry>
        </mxCell>
        <mxCell id="BUz5Cs6KhjB94nJ8huxt-43" value="Outputs" style="edgeLabel;html=1;align=center;verticalAlign=middle;resizable=0;points=[];" vertex="1" connectable="0" parent="BUz5Cs6KhjB94nJ8huxt-41">
          <mxGeometry x="-0.2326" y="-2" relative="1" as="geometry">
            <mxPoint as="offset" />
          </mxGeometry>
        </mxCell>
        <mxCell id="BUz5Cs6KhjB94nJ8huxt-28" value="C# Functions" style="aspect=fixed;html=1;points=[];align=center;image;fontSize=12;image=img/lib/azure2/compute/Function_Apps.svg;" vertex="1" parent="1">
          <mxGeometry x="391" y="763" width="68" height="60" as="geometry" />
        </mxCell>
        <mxCell id="BUz5Cs6KhjB94nJ8huxt-29" value="" style="shape=image;verticalLabelPosition=bottom;labelBackgroundColor=default;verticalAlign=top;aspect=fixed;imageAspect=0;image=data:image/jpeg,/9j/4AAQSkZJRgABAQAAAQABAAD/2wCEAAkGBxEQEBUTEBIVFhAWFxYWFRUVGBAWFRgXFxYYGBYVFhUYHSghGB0lGxUXITEhJykrLi4uFx8zODMsNygtLisBCgoKDg0OGxAQGy8mICUtLS8vMi4tLS0vLS8tLy0tLy04Ly0tLSstLy0tLS0tLy0tLTUtLS0tLS0tLS0tLTIrLf/AABEIAKMBNgMBIgACEQEDEQH/xAAbAAEAAwADAQAAAAAAAAAAAAAABQYHAQMEAv/EAD8QAAIBAQQGBQoFBAEFAAAAAAABAgMEBRExBhIhQVFhInGBkaEHExQjMkJScrHBYpKi0eEzgsLwsiRDU4Px/8QAGwEBAAMBAQEBAAAAAAAAAAAAAAQFBgMCAQf/xAA0EQABAwIDBQcDAwUBAAAAAAABAAIDBBEhMVEFQWFxgRITkaGx0fAiweEGIzQyM2Jy8ST/2gAMAwEAAhEDEQA/ANxAARAAEQABEAARAAEQABEAIi/L/oWOGtWl0n7MI7Zy6lw5vBHprXPPZaLleXOa0XcbBS5A3vpXZLK3GdTWqL3IdKXU90e1ozy/dL7Vam4xbpUvgi9rX45ZvqWCIGnQLaDZeF5T0Huqqbam6IdT7e/grneHlHrybVCjCK3Obc5dywS8SBtGk1vqe1aZrlHVh/xwF3XJaLR/RpSkviwwj+eWC8SYpaLypTXn5QeG1wi2+yTwS7EdKqpodnxmSSwt1cToMzc9OOAw4wx1lW8BpOPQc8Pmigadntdp96clxcpfVvad70erreupN4+JbowSWCy8BgYif9aVZfeCNjW6EFx6kOaPAdTmtFF+nqcN/cc5x1vbysfMlUmda2Wd4ecqwe7Cc13NPae6x6YW+l/3tePCajL9WfiWSvZ4zi4zWKf+4x4EO9Ea003RcZ4e7jqzXDFSwXju7DR7I/UFLtEGOZoY/Q2II1B3cR4E7qqu2VU0pDoXOc3zHMZHoMdApW7vKRtwtNHD8VN4/ol+7LhdN92e1LGjVjJ745SXXF7UY/bruqUXq1acoP8AEmsep5PsPGoSjJSg3GS2qUW011NZFvLs6GQXZh5j5yKgx7QmjNni/kfnRb8DMNH9PqtLCFrTqQ/8iw149ayku59Zolgt1KvTVSlNTg8mvo1mnye0qKilkgP1DDUZfOBVtBUxzD6Tjpv+cQvWACOpCAAIgACIAAiAAIgACIAAiAAIgACIAAiAAIgACIAVbTPSZWKGpDB2ia6KzUY5a8l9Fva5M6RROkcGNzK8SSNjaXOyC+dL9LIWNOnTwnaWss4wx96fPgjL69WpWm6lWTnUlnKWf8LkfCTlJyk25Nttva23m2y4aJ6Ju0YVa2MaG5ZSqdXCPPu4mgjjho4ySeZ3ngPYddVQPfLWSADoNw4/nw0UPclwVrVLClHor2py2QXbvfJGg3PohZqGEprztTjJdFP8MMu/Fk/Z6EacVCEVGC2JJYJHhvO8PN9GPtb3wKPaG1yxhe49lo8Tw1J4DBXFJs5oIFru9Pmua4vO8FTWpD2/CKK89ueZ9vbteYwPzSvr5KuTtuwAyGn516LTQxCJtgvfdd1661p4qG5LN/wSk7ootYamHPGR3Xfh5qGGWqu/f4nqNfR7NpmQNBaHEgEkgG9+eQ0tusqyaokLziQqleNhdGWGcXk/3PPQrSpyUoPBr/dvIn9IMPNrjrbPv9ivNGX2lC2kqi2I2GBHC/ngVZU8hkju7krPZrRTtFNqUU90oySa7nmiuX1oNTmnKzPUn8MsXF9Tzj4o4oVpU5KUXg1/u3kWewW2NWOK2NZrganY22nSfTezx4O429R4YZVddQMzIuPMdc1jV5XbUozcKsHGS3PfzTya5o5ua969iqa9KWx+1B+zNcGuPPNGxXrdVK1Q1K0cVua2Si+MXuMs0i0fqWSeEttN+xNZPk+EuRtKasZUDsPGOm48vbPRZmoo3wHvGHDXePnhqtL0fvyjbKWvSeDXtwftRfB8Vwe8lzCbtt9Wy1o1qLwks08pR3xlyZsdxXvTtlGNWnv2Si84yWcX/u1NMrK2j7g9pv8ASfLh89VY0dYJh2XYOHnxUmACCpyAAIgACIAAiAAIgACIAAiAAIgACIAAiAAIo++7zhZaE608orYt8pP2YrrZi1rtVS0VZVarxnN4vguCXBJbCyeUa9/PWlUIPoUfa4Obz7ls69Yh7ku2VprQpQzk9r+GK9qXYvHBGgoYBBF3jsCRfkFQ10xml7tuQNuZ+YKc0K0c9Jl5yqvUQeXxy+HqW/uNOhFJYJYJbElkdVjssKNOMKawhFYJfudV5WrzcMVm8ijr60O7UrzZrQeg9z+FcUlN3bQxuZz5+wXTeVv830Ye39CAe3a8zlvHa8zlI/N6+vkrJO07ADIafk7ytDFE2JtguBgfWBzgQLrpdey77wdLotYw+nUSEr3pLJtvgQeBxgWlNtmqgj7ttiBlcXtyxHndR300bz2iu222p1ZYvYlkuB5WjsaOGiBJK+V5e83JzK7tAaLBdTR9UK0qclKLwa8evkGj4aDHlpDm4FdM8CrXd9tjWjitjWa4fwc2+w069OVOrHGEu9cGnuaKtZrRKnJSjmu59Zb6NVSipLJo3OytpGpZ9WD22v7++m7AhU9XTd2cMj8ssd0huedkrOnLbHOEvijx6+KGid+ysNoTb9RPCNRct0lzWPdiadpPdCtdBxWHnY9Km/xcMeDy8dxjtppNNprBptNPNNbGmbelmbVRFr88j7/N6ytVC6mlD2dPb5uW8Qkmk08U9qayae8+yk+TW+XVoys8306Ps8XTeX5Xs6nEuxRTRGKQsO75fqruGUSsDxv+W6IADkuqAAIgACIAAiAAIgACIAAiAAIgACIR9+XgrNZqtZ+5Ftc5PZFdsml2kgUXyqW3VoU6Ke2pJyfywWT/ALpRfYdqaLvZWsO8+W/yXGol7qJzxuHnu81nVLGTcpPGTbbbzbe1t9pp3k8uvzdF1pLpVNkeUYv7yXgjObBZ3OcYR9qTUV1t4L6m4WSzxpU404+zCKiupLAt9qTEMDBv9B+VU7Mhu4v09T+F3kJpA9sFuwl9ibIy+rO5Q1lnH75mQ2xG6Sika3gfAgnyBWjpnBsoJ+XwUEfSRwjk/Pbq3K6bRWcXgjq9KlyO6tVS2NYnV6RH4fofRlkujRh/SuPSpch6TLkc+kR+H6D0iPw/Q+9F6t/iuPSJcj59IlyPv0iPw/Q4doj8P0PvRLf4rmjUcscT7ZxSqJ5LA+mfd68nPJdbLJcP9BcnLDvK5qtvBZ7kW6w0PN04x4Lxe1/U0P6ejJnc/cG28SCPIFQ69w7sN4/b8r0mZeUK6/NV1ViuhVxb5SXtd6wfXiaaQGmlh89Y57OlDpx/tz/S2bqil7uYHccD1VBVxd5ERvGI6LL9Hrx9FtlKrjhBS1Z/LLZLHqxx7DbzALTE2XRK3efsVGbeMtRRk9+tDoNvrcce0nbVjwbJ0+4+6gbLkxdGeY9D9lNAAplcIAAiAAIgACIAAiAAIgACIAAiAAIhlXlNra9tjHdCnFYc5OTb7tXuNVMa04nrXlX5ai7qcfuWWyxeYnQH7D7qu2o60IGpH3P2Xq0FsynbaeOUdaX5U8PFo1szbyaQTtE3vVN+Mo/saSedpuvPbQD3XvZzbQ31JQAFepygrzu/V6UF0N64fwR5bSCvK79XpQ9neuH8GQ2zsfsXngGG8acRw1G7MYXtYU9Rf6XZqMnTTzR8+jx4fU7QZm6ndojeur0ePD6j0ePD6naBcp2narq9Hjw+pw7PHh9TuOGfQSvvadquqMEsgz6ZN3Xd2p05rpblw5vmTqGikrJOwzqdB8yG/wASOcswjF3JdV26nTmunuXwksAb+mpo6eMRxjAefE8fgwVPJI6R3ach11aalFxeTTT6nsZ2A7rwsIt1HUlKLzi3F9jw+xoHkrr42apB+5UxXVKK2d6feU/SmCVrrpZa8/F4lg8k0+naY8VSfdrr7mjrfrpS7kfMe6z9H9FUG/7D19lo4AM4tAgACIAAiAAIgACIAAiAAIgACIAAiGMaZrC8rR80PGnBmzmR+USjqXhKXxxpy/Tq/wCBZ7KI74/6n1CrdqC8IOjh6FSvkzfr6nyf5I0cy7yd1tW1pfHCUfpL/E1E57SFp+gXXZ5/YHMoACApqHDRyAigbxsGr0o+z9P4PAWtrHPIr15WdU54LJ7VyMZtvZTYP34v6ScRoTpwPkeGVjTTl30uzXlAODOqYhww2TF1WDDCc8/dXDr5k2hoZKuXu2dTuA+ZDeeFyPEkjYxcrm67u1cJzXS3Lh18yWAP0ClpY6aMRxjDzJ1PH/gwVRJIXuuUABIXhAAEWNaWP/rK/wA8ic8k69baH+Gn4uf7FYvqv5yvVn8UpPscnh4Fx8lFHCnaJ8Zwj+WLf+Roqz6aQg6NHmFn6b6qwEauPkfdX8AGdWgQABEAARAAEQABEAARAAEQABEAARDOfKrZMJUKyW6UJPq6UfrI0Yr2nF3ekWKoksZQ9ZHrhjiu2Lku0lUUndztPTxUasj7yFzRpfwxWZ3DbPM2ilU3RlFvqyl4Nm2mA2eRsOiF5ekWWDbxnDoT44xyfbHB95YbViwa8cvv7qBsuUfUzr7qdABSq4QABEIK/X04/L92TpA3++nH5fuyn29/Cdzb6hSqP+70KipVsJJYHZieSo/WLsPRiYUhW5aLBctkzdN444U55+6+PJ8yEbPZd1idWWOUFvLHZcs8dQO4FycCNxHHS2d93K4PCdjCw9tWcAH6CVSoAAiEfftr8zZqtTeovD5nsj4tEgUbyk3jhGFCL2t68+pbIp9bxf8AajvTRd7K1u7fyC41Endxl3y6zuuzVvJ5Y/NWCDawc3Kb7XhH9MYmVU6Eq1SFKHtTlGC65PDE3SyWeNKnCnD2YRjCPVFJLwRa7VksxrNTfw/Kqtlx3e5+gt4/hegAFGrtAAEQABEAARAAEQABEAARAAEQABEODkBFiekt1eh2udNf030qfyyyXY8V2EtoPfCs9o1ZvClVwjLgpe5LvbXbjuLbp3cXpVn16axr0sZRwzlH3o+GK5rmZTQqYmjgkbV09nZ5H7H781np2Glnu3LMfcfZb+Cp6EaQefpqlVfroLY3nOK382t/fxLYUEsTonljtyvYpGyNDm5FAAc10Qr+kD9ZH5fuywFc0kfrI/L92VG3f4TubfUKXRf3ehUNUfTXYd+J5aj6a7DvxMQQrojAL6bJq5LdHBUnsax1XxxeXWQTZ7LssMqsuEFv+3WWGzJJo6gGEXJwI1GZ5ZXvutvyUeojY5h7eAVtABvlRIAAi89rtMKVOU6jwhFNt8kYzfV4StFadWWcnilwWUY9iSLNp3pAqsvMUn6uL6bWUpLd1L69RTaFCderGlTWM5tRivu+SzfUX2zqbu294/AnyGf58FRbQqO27u25DzOX48VavJndPnK0rTJdCn0Yc5SW19kX+pGoEfct2QstCFGGUVte+UntlJ9bJAqaufvpS/dkOX5zVrSwdzEG79/P5ggAI6kIAAiAAIgACIAAiAAIgACIAAiAAIgACIZf5QNG3RqO00Y+qm/WJe7N+98svB9ZqB11aalFxkk4tNNPamnsaaJFNUOgf2h1Go+fNy4VNO2dnZPQ6FYXY7VKElKDalFpprNNGqaLaSwtcdSeEbQltjulh70f23FJ0v0TnZG6tHGVmb63Tx3PjHg+/i6/ZrQ4tOLaknimm00+Ke4vJooqyMOaeR04H2/6qSKWWkkLXDmNeI91vQKLo/pupJQtex5KqlsfzpZda8C60qkZxUotSi9qaaafU0UM0D4XWePYq9imZKLsK7StaTP1kflX1kWUrWk/9SPy/wCT/co9t/w3c2+oVjQ/3uhUHN9Ndh26x0ST1sTsxMX2VeHcvrEn7gvCOqqUtksXqvji8cOsruJ7bqsEqs9myKwxlw5LmT9mySx1AMQuThbUXF+WV77uKj1MbHRntmw1+eiuYB5Lwt9KhDXrTUY883ySzb6jeAEmwWeJAFyvWUPTDStYSoWeXKdReMYP6vu5RukumE66dOhjCjk370+vD2Vy/wDhTqlXgXNHs6xD5M9w9/bx0VRWbQFuzGeZ9vfw1StUNN0C0bdmh56tHC0TWyLzhHhyk83w2LiePQnQ903G0WpesW2nTfu8Jz/FwW7ryvx42hWh37UZw3nXhy115Z+qCjLT3sgx3DTjz0055AAVCtkAARAAEQABEAARAAEQABEAARAAEQABEAARAAEXxUgmmmk09jT2pp5poz7SfQR4urYlzlRbwx+RvL5X2PcaIDtBUSQuuw+xXGeBkzey8e4WAycoScZxcZrY4yTTT5p5EndV9V7M8aNRxW+OcX1xeztzNVvm4bPa1hXppyWU1smuqS+j2FEvbyfV6bbs01UjujLCM+r4X4dRdRV8Ew7MmHPJU0lDPCe0zHln4KWu3ygJ7LRSwfxU9q/JJ7O9kvUvexWuGCrRjJey5Ywaf92GJlFroVaEtWtTnCXCaa7m8z4jXPM+yaedpFsDpiPv5FeodqzROF8x0PzmFfqkdV4Yp84tNPqazR84lQu+9HSls2xea+6JmvfNJRxjLWe6O1PtMBtD9MVVPOGQNL2uyIGXB24czgRjqBraLbdNNEXyuDHDME+Y3m+gxvhvBM5ZKMZy6dSNOG+UpRj3Y5smK2k1hsy1Izxw92mnL9WWPaZXXtjnJyk8W/8AdnM6JWg1uzP01FSs+s3ecyPQb7Dpf0z9dt50zvoFm7r+p3X9Fe7z0+nLFWemor4pdKXWlkn3lPt1vnVk5VZynLjJ49i4Lkhd11Wq0v1FGcl8WGEPzvBFwubyc5StdT/1wb/VN/ZdpcXpqXQHxPv5gcVW/wDpqtSPAfOhKpdgsda0z83Qg5y34ZJcZSyius0rRXQ2nZcKtXCpaM0/ch8ieb/E+zAsdgsNKzwUKMIwgt0V4t73zZ6yrqtoPlHZZg3zPP2CsqagZEe07F3kOXuUABXqwQABEAARAAEQABEAARAAEQABEAARAAEQABEAARAAEQABEAARddWClskk09zSa7iEvHRWxVNsrPBPH3daH/BoA6Rvcw3abcl4exr8HC44rNtKrtpUG/NRcf7pv6tldT2gGppnEsF1lqkAPwV40buCzVsPO09bL3qi+jL5Y9HbJRwdOhBNZNrWl+aWLOQZ6tnky7R8StDRwxgX7IvyClQAQ1LQABEAARAAEQABEAARAAEQABEAARf/2Q==;" vertex="1" parent="1">
          <mxGeometry x="403" y="593" width="100.8" height="53" as="geometry" />
        </mxCell>
        <mxCell id="BUz5Cs6KhjB94nJ8huxt-30" value="" style="shape=image;verticalLabelPosition=bottom;labelBackgroundColor=default;verticalAlign=top;aspect=fixed;imageAspect=0;image=data:image/png,iVBORw0KGgoAAAANSUhEUgAAAOAAAADgCAMAAAAt85rTAAAA5FBMVEX///8AXaw9frgAAACZm55cXV8AWqsAWKoAW6tAgLkAUqhKe7n09PTFxcVViMCpyeMAYK3R0dFra2tVVVWPkZTF1+ldXFwLZK7m7PRMZ4O00Odtn80AVamPj4/n5+dQUFBhYWEATqYvLy+xsbFlkcTx9vrZ2dlERERKgb27u7ulpaXt7e0tdrTX19c8PDxJSUkWFhYzMzMlJSWVtdfP3eyjvduHh4d4eHgASKSHrdEmcbUccbJ6n8ufvdrd5/IUZKhMd6BkgqeEkqFRb49yiaNaZXBZan6KlaBGdahkiaymvM48c7YHntEsAAALLUlEQVR4nO2ca2OaSBeARQ2MBO818CpqjKLx0tw0STXGdrfbbnf9///nnQsMM8it3XbF7Hm+xCDoPM6ZmQPMkMsBAAAAAAAAAAAAAAAAAAAAAAAAAAAAAAAAAAAA/zF262OX4JdirRf2puUcuxi/Cus1vyjV1EGldeyS/Brao0U+X6opilZbW8cuzM/H6pTyeSaoILR5PXZ5fjLO8iWf54JYUd+8pTh12pVFXhIkitvdscv1s2it8xwuqCj2+fJNNEVrW1qECiqqum8fu3T/GOd1IejJglhxsDnxOF2NJL2gIFZUTjlOd+tSPh8vqCD7ennscv4or5VF0O9QEFciGq2OXdQfwKnmD/VCBRWkDUYn1xRXnTC9cEGMpldPqinuliHRGSeIa7FSPXap01OthNvFCGLDWuVEzqN2UbUXK0gU9fUJKK6W0XbxgnTIeMy4ovVaiqm+JEE8ZOijTJ9ltIKJy/cK4v7U7GS2Eq24xpdWEJ9lfFhmUnH3mmiXThArVjJ4llFNjM70goqmZO5seP2SRg8LftRQsiAabLKW2HRsM00Nfjrr/maiJEUtg9ekOhqqbRYHZ0cBva9nzXfF3z/V1Pj4XGctPnNEEA9iZmycfvt8dnF29q5YLP6xUCMrEWmjDPYwTFBBipmPrMRPX84IRLD4529KuCKy7ddMjhFMEBdQ3YQ3xW9fLi58Qcy3kKaItE3n2CJRuIK4kGFNETc+pucLFn//FmyKWi1zg4MPF8SKuD+VFT9/8fQEQdwUP4pxivRFltNQQRBXotQUcePz/URB2hS9g2w7mwmahyhIepsNb3xfLwQ9WRArunGq1bKbYjNkQRKnL6QWS5/OJL2gYHH2xx73TCdwvSIoSIaMRenz17MgAUESpx8XJ3DF6UCQKH4OVl+YIFbMeHRSQgQV9X+HfmGC745d+DSAIAhmHBAEwYzTsd+4YFUHwf+GYD+loJO1G/fpBPuN+nx6oBgiuLre//sOsaQRbDaGZNfeMElwNxrY5/++QyzJgs3L4tzduT6ME7QeFVtRT06w/1T3956XowXb1zZSTk6w2X9vSPsbw3ehgrtzk6YMJybIGp+M3xR9QWs0cK9CnZRgf9YLPaYeEHQeNzwfOiHB5nM56qBeWRRsjXT/MunJCDb7QyPmsF7xnSvojEwxXz8RwWajG6dHqM+IoPM6kG+Mnohg933ykUa96FTP9cCdmFMQRMpfSdXH+HukHdwRzb4gUs1FqZPibpGz3YSdLGdckF7XLuXzL0l3VJw2ssNuhWZcENU27v2lRakdp7gaDULssi5I7oEKdwe3kTdWVqHRmXVBhGrBG6Db8Epcm9FzZjIsyO6bSSwWrwe3j5z2Jjg0nIKg3/gCiqXAssjVVo+dLJNNQYQ+Rk932gprB6z1JuQyY+YFyY3r6LlOiwpfvtu6VmOrL6OCtcPGd9AUSZy2FoMkvSwK2okz1YjiqLXaHuZlpyDYipnEJVJahCYuB+hZE8y1Emaje4Jmmumi2iCLCwzC1mL9kKBWq2RztdZunayYLKjaGZ40s9omLitIErQ3j1meNOO0FgkLQ2IFkfphlGU9yjp6ZVaSoFbbZ7PxyazWcYuzogWRvsj6yiWPdvQaimhB7ZSeHBCxvjVaEKmDjA4NkXTCm2K4oKrsszzbN5zwVbyhgvbHLCYuiThh2VuIIBpsTyw6OdbhiqYDQVWvnV50+ljbUqwgsvfZW6b0fbTlpigJItvcZj5xScRqiym4JGhne8FuapzOS4ggsj+8nQeQrTpBQaSZb+oRcs6jm725gpq2fRvR6bN7rHBBskbwzUSnjzV6oYIo68uUfpzWKJ83NXN07HL8OnBTrL2RoSGK3VtsfAAAAAAAAAAAACeAUR9HLmN4ExRns+lbNiyPx0NjduxS/EJmxuzSmCbsNJ4OMdO6uyhgXMaI79e9DUbZZywuIXhflhmzzeKmkOVMTouwcg63uViHb7Cd3fdXuEjdXr0cX4P1p9sC5aHBfonxFf5HWOHRm+D/i3TXgs+k4a8CMRoFmSe2Xdhyd/F08DsvFZMgXZRqI9OnsvWfSWbVyBaNOlfZ2xpZ91uu16exyzWeH4RSNOjvPMMvb/w9ivjf23lQkPwixfSC1FH+ZueczlC3pYcftcXJ7qowz8Sik/oGVJA++wrpFfbl81wMBqu9+8nthInS4Lr3qoxa4Qp9YKs5ieDDFYPu3U0WvHogXN2R133pu5fuNMuBeL+3HViPoapVT1BxBZ0S/WG0UorrdXNaskYRNyhj2u3jwKNh18OyV26jMZ59WyJYfl+ndJukYsdc8KorMOWCE7Z3ffhEfhKxsTgjd4mBLT48jgkiLOZOElbdOvQFt+yxV+dpJqHQ6OMh3HtyC0yD9NngLy8MX5Af2yM/zpQLyrXDBS/5P+UJ/0EorRry7qsJVUEFkVmqYNgDvOy1LPhIb+cgM8315DkJIeE7eTjTmCt7hSzw1dSiII3dId/9Nkkw1+U/CMGpkApUg1VIBdXKziFsVKpiiYIregz6kOqJj8+BqPEhPSkNUtKD8gW5suB88n2C43vho3KrATG5Nklp9/54QAW1EatTh7XRnS+ou35augcnFKQCS3RZVzHEnUOD98KyYPlBDNFkwd6NKEhaIFJaa5v88ScmyIIVNSCIaFwjNd0zH+d+fxdauEKPlOneXw8vCdZxB3xV54KJbVAIaVJ2WoEVa0f+ahVehbJgHgUEFdpu7ZQPkS97w0LUm/1n+Scggpcu/Sv/PSJ4X65zvAxAFiyKbZA+j8be5nI2jTjeoiTBleb1nFyQdqxpHwhMvjF8QThhxoa0hrApMNAXvIQuOA4+jLkgH9znJOh5tO/25MbvHtdNixrxKmG96GZZxXQGyH9PENTT6SUJ9poFsQcNE+x6Y2VA8N4XvKd57nA4uymIFbikRSd3RllXqXuDmjsO2jqGjZPuSO8LIjXtXJtZrCDtROROlggWWYGH1OmiFy7Y44IS/MPYIK/TIXzpBasgKKQyXiYn1KBWSTnRlDSzuGXTOLO5lfJYsZMxxhcFcZiY9ARyoYL+KUqLPl5cr7ar1faWPi3YDhdU+WPiBUFFi1igGMTAX/ocL3gRKcjen8w9wYhh4q6PIYPpRIgVZ8tKq/uB6A32rqBp0hRAXfhnE+wQlr/pKQ2Dbew7BXmIxwg2yd85ruwH4WxpdbhGXd07vqB6Xm2xx375CRkT1NZsoNDTzSqaxVdhkuA0heAlfTHGdfjgR2jIM8uQ8ugLkmHCuqapnOlVlZuqOa8DVoepUpneXUFMLnJzOW9LErxMLZib4m+648Gis3SEoyh87PPHwTZNqm1vDgpPtrdu9adaLkPqoPDkdfZjfoIXI+htMHokC7g0uODc4MyNoCD7JnezG33nHNoM9bYsmFvSJc3aOiDodFjzNNOk20aXjWdTzKwp9eRRgk9Fdsp3SY/0e9G7/gWnXzwQpMltn9ahs1dpT+h/Lk0wNToeCIJsLEGuiH8+yIIX5zNpJkYbRbknvxWvNoUKSjTmXFDi+VAw91RwzzEfiY90Prek6Qsdv8VUbccymb2QydC0bceasLZI1ZXWr4SCFaU+FWfTTWnDQarm6scICtdhnpmhVbFxs7Ovhc+1ahreRK+xtAfklZuLtgd0e4nuo5PXHyx/Oz4g3WDx/vJ2cnNzM7ntBt547vefpBoc3zY5DeG5Rka33xTxQrTf7Helz2ve1HOta3K2fi3F1yPdRhaBsne9VQfudlLZFjuMZWlsr8r1YypBzBxnH+kelQIAAAAAAAAAAAAAAAAAAAAAAAAAAAAAAAAAAAD8Y/4Px7YpB9Zs9GEAAAAASUVORK5CYII=;" vertex="1" parent="1">
          <mxGeometry x="1066" y="12.599999999999994" width="61" height="61" as="geometry" />
        </mxCell>
        <mxCell id="BUz5Cs6KhjB94nJ8huxt-31" value="" style="shape=image;verticalLabelPosition=bottom;labelBackgroundColor=default;verticalAlign=top;aspect=fixed;imageAspect=0;image=data:image/jpeg,/9j/4AAQSkZJRgABAQAAAQABAAD/2wCEAAkGBxEQEBUTEBIVFhAWFxYWFRUVGBAWFRgXFxYYGBYVFhUYHSghGB0lGxUXITEhJykrLi4uFx8zODMsNygtLisBCgoKDg0OGxAQGy8mICUtLS8vMi4tLS0vLS8tLy0tLy04Ly0tLSstLy0tLS0tLy0tLTUtLS0tLS0tLS0tLTIrLf/AABEIAKMBNgMBIgACEQEDEQH/xAAbAAEAAwADAQAAAAAAAAAAAAAABQYHAQMEAv/EAD8QAAIBAQQGBQoFBAEFAAAAAAABAgMEBRExBhIhQVFhInGBkaEHExQjMkJScrHBYpKi0eEzgsLwsiRDU4Px/8QAGwEBAAMBAQEBAAAAAAAAAAAAAAQFBgMCAQf/xAA0EQABAwIDBQcDAwUBAAAAAAABAAIDBBEhMVEFQWFxgRITkaGx0fAiweEGIzQyM2Jy8ST/2gAMAwEAAhEDEQA/ANxAARAAEQABEAARAAEQABEAIi/L/oWOGtWl0n7MI7Zy6lw5vBHprXPPZaLleXOa0XcbBS5A3vpXZLK3GdTWqL3IdKXU90e1ozy/dL7Vam4xbpUvgi9rX45ZvqWCIGnQLaDZeF5T0Huqqbam6IdT7e/grneHlHrybVCjCK3Obc5dywS8SBtGk1vqe1aZrlHVh/xwF3XJaLR/RpSkviwwj+eWC8SYpaLypTXn5QeG1wi2+yTwS7EdKqpodnxmSSwt1cToMzc9OOAw4wx1lW8BpOPQc8Pmigadntdp96clxcpfVvad70erreupN4+JbowSWCy8BgYif9aVZfeCNjW6EFx6kOaPAdTmtFF+nqcN/cc5x1vbysfMlUmda2Wd4ecqwe7Cc13NPae6x6YW+l/3tePCajL9WfiWSvZ4zi4zWKf+4x4EO9Ea003RcZ4e7jqzXDFSwXju7DR7I/UFLtEGOZoY/Q2II1B3cR4E7qqu2VU0pDoXOc3zHMZHoMdApW7vKRtwtNHD8VN4/ol+7LhdN92e1LGjVjJ745SXXF7UY/bruqUXq1acoP8AEmsep5PsPGoSjJSg3GS2qUW011NZFvLs6GQXZh5j5yKgx7QmjNni/kfnRb8DMNH9PqtLCFrTqQ/8iw149ayku59Zolgt1KvTVSlNTg8mvo1mnye0qKilkgP1DDUZfOBVtBUxzD6Tjpv+cQvWACOpCAAIgACIAAiAAIgACIAAiAAIgACIAAiAAIgACIAVbTPSZWKGpDB2ia6KzUY5a8l9Fva5M6RROkcGNzK8SSNjaXOyC+dL9LIWNOnTwnaWss4wx96fPgjL69WpWm6lWTnUlnKWf8LkfCTlJyk25Nttva23m2y4aJ6Ju0YVa2MaG5ZSqdXCPPu4mgjjho4ySeZ3ngPYddVQPfLWSADoNw4/nw0UPclwVrVLClHor2py2QXbvfJGg3PohZqGEprztTjJdFP8MMu/Fk/Z6EacVCEVGC2JJYJHhvO8PN9GPtb3wKPaG1yxhe49lo8Tw1J4DBXFJs5oIFru9Pmua4vO8FTWpD2/CKK89ueZ9vbteYwPzSvr5KuTtuwAyGn516LTQxCJtgvfdd1661p4qG5LN/wSk7ootYamHPGR3Xfh5qGGWqu/f4nqNfR7NpmQNBaHEgEkgG9+eQ0tusqyaokLziQqleNhdGWGcXk/3PPQrSpyUoPBr/dvIn9IMPNrjrbPv9ivNGX2lC2kqi2I2GBHC/ngVZU8hkju7krPZrRTtFNqUU90oySa7nmiuX1oNTmnKzPUn8MsXF9Tzj4o4oVpU5KUXg1/u3kWewW2NWOK2NZrganY22nSfTezx4O429R4YZVddQMzIuPMdc1jV5XbUozcKsHGS3PfzTya5o5ua969iqa9KWx+1B+zNcGuPPNGxXrdVK1Q1K0cVua2Si+MXuMs0i0fqWSeEttN+xNZPk+EuRtKasZUDsPGOm48vbPRZmoo3wHvGHDXePnhqtL0fvyjbKWvSeDXtwftRfB8Vwe8lzCbtt9Wy1o1qLwks08pR3xlyZsdxXvTtlGNWnv2Si84yWcX/u1NMrK2j7g9pv8ASfLh89VY0dYJh2XYOHnxUmACCpyAAIgACIAAiAAIgACIAAiAAIgACIAAiAAIo++7zhZaE608orYt8pP2YrrZi1rtVS0VZVarxnN4vguCXBJbCyeUa9/PWlUIPoUfa4Obz7ls69Yh7ku2VprQpQzk9r+GK9qXYvHBGgoYBBF3jsCRfkFQ10xml7tuQNuZ+YKc0K0c9Jl5yqvUQeXxy+HqW/uNOhFJYJYJbElkdVjssKNOMKawhFYJfudV5WrzcMVm8ijr60O7UrzZrQeg9z+FcUlN3bQxuZz5+wXTeVv830Ye39CAe3a8zlvHa8zlI/N6+vkrJO07ADIafk7ytDFE2JtguBgfWBzgQLrpdey77wdLotYw+nUSEr3pLJtvgQeBxgWlNtmqgj7ttiBlcXtyxHndR300bz2iu222p1ZYvYlkuB5WjsaOGiBJK+V5e83JzK7tAaLBdTR9UK0qclKLwa8evkGj4aDHlpDm4FdM8CrXd9tjWjitjWa4fwc2+w069OVOrHGEu9cGnuaKtZrRKnJSjmu59Zb6NVSipLJo3OytpGpZ9WD22v7++m7AhU9XTd2cMj8ssd0huedkrOnLbHOEvijx6+KGid+ysNoTb9RPCNRct0lzWPdiadpPdCtdBxWHnY9Km/xcMeDy8dxjtppNNprBptNPNNbGmbelmbVRFr88j7/N6ytVC6mlD2dPb5uW8Qkmk08U9qayae8+yk+TW+XVoys8306Ps8XTeX5Xs6nEuxRTRGKQsO75fqruGUSsDxv+W6IADkuqAAIgACIAAiAAIgACIAAiAAIgACIR9+XgrNZqtZ+5Ftc5PZFdsml2kgUXyqW3VoU6Ke2pJyfywWT/ALpRfYdqaLvZWsO8+W/yXGol7qJzxuHnu81nVLGTcpPGTbbbzbe1t9pp3k8uvzdF1pLpVNkeUYv7yXgjObBZ3OcYR9qTUV1t4L6m4WSzxpU404+zCKiupLAt9qTEMDBv9B+VU7Mhu4v09T+F3kJpA9sFuwl9ibIy+rO5Q1lnH75mQ2xG6Sika3gfAgnyBWjpnBsoJ+XwUEfSRwjk/Pbq3K6bRWcXgjq9KlyO6tVS2NYnV6RH4fofRlkujRh/SuPSpch6TLkc+kR+H6D0iPw/Q+9F6t/iuPSJcj59IlyPv0iPw/Q4doj8P0PvRLf4rmjUcscT7ZxSqJ5LA+mfd68nPJdbLJcP9BcnLDvK5qtvBZ7kW6w0PN04x4Lxe1/U0P6ejJnc/cG28SCPIFQ69w7sN4/b8r0mZeUK6/NV1ViuhVxb5SXtd6wfXiaaQGmlh89Y57OlDpx/tz/S2bqil7uYHccD1VBVxd5ERvGI6LL9Hrx9FtlKrjhBS1Z/LLZLHqxx7DbzALTE2XRK3efsVGbeMtRRk9+tDoNvrcce0nbVjwbJ0+4+6gbLkxdGeY9D9lNAAplcIAAiAAIgACIAAiAAIgACIAAiAAIhlXlNra9tjHdCnFYc5OTb7tXuNVMa04nrXlX5ai7qcfuWWyxeYnQH7D7qu2o60IGpH3P2Xq0FsynbaeOUdaX5U8PFo1szbyaQTtE3vVN+Mo/saSedpuvPbQD3XvZzbQ31JQAFepygrzu/V6UF0N64fwR5bSCvK79XpQ9neuH8GQ2zsfsXngGG8acRw1G7MYXtYU9Rf6XZqMnTTzR8+jx4fU7QZm6ndojeur0ePD6j0ePD6naBcp2narq9Hjw+pw7PHh9TuOGfQSvvadquqMEsgz6ZN3Xd2p05rpblw5vmTqGikrJOwzqdB8yG/wASOcswjF3JdV26nTmunuXwksAb+mpo6eMRxjAefE8fgwVPJI6R3ach11aalFxeTTT6nsZ2A7rwsIt1HUlKLzi3F9jw+xoHkrr42apB+5UxXVKK2d6feU/SmCVrrpZa8/F4lg8k0+naY8VSfdrr7mjrfrpS7kfMe6z9H9FUG/7D19lo4AM4tAgACIAAiAAIgACIAAiAAIgACIAAiGMaZrC8rR80PGnBmzmR+USjqXhKXxxpy/Tq/wCBZ7KI74/6n1CrdqC8IOjh6FSvkzfr6nyf5I0cy7yd1tW1pfHCUfpL/E1E57SFp+gXXZ5/YHMoACApqHDRyAigbxsGr0o+z9P4PAWtrHPIr15WdU54LJ7VyMZtvZTYP34v6ScRoTpwPkeGVjTTl30uzXlAODOqYhww2TF1WDDCc8/dXDr5k2hoZKuXu2dTuA+ZDeeFyPEkjYxcrm67u1cJzXS3Lh18yWAP0ClpY6aMRxjDzJ1PH/gwVRJIXuuUABIXhAAEWNaWP/rK/wA8ic8k69baH+Gn4uf7FYvqv5yvVn8UpPscnh4Fx8lFHCnaJ8Zwj+WLf+Roqz6aQg6NHmFn6b6qwEauPkfdX8AGdWgQABEAARAAEQABEAARAAEQABEAARDOfKrZMJUKyW6UJPq6UfrI0Yr2nF3ekWKoksZQ9ZHrhjiu2Lku0lUUndztPTxUasj7yFzRpfwxWZ3DbPM2ilU3RlFvqyl4Nm2mA2eRsOiF5ekWWDbxnDoT44xyfbHB95YbViwa8cvv7qBsuUfUzr7qdABSq4QABEIK/X04/L92TpA3++nH5fuyn29/Cdzb6hSqP+70KipVsJJYHZieSo/WLsPRiYUhW5aLBctkzdN444U55+6+PJ8yEbPZd1idWWOUFvLHZcs8dQO4FycCNxHHS2d93K4PCdjCw9tWcAH6CVSoAAiEfftr8zZqtTeovD5nsj4tEgUbyk3jhGFCL2t68+pbIp9bxf8AajvTRd7K1u7fyC41Endxl3y6zuuzVvJ5Y/NWCDawc3Kb7XhH9MYmVU6Eq1SFKHtTlGC65PDE3SyWeNKnCnD2YRjCPVFJLwRa7VksxrNTfw/Kqtlx3e5+gt4/hegAFGrtAAEQABEAARAAEQABEAARAAEQABEODkBFiekt1eh2udNf030qfyyyXY8V2EtoPfCs9o1ZvClVwjLgpe5LvbXbjuLbp3cXpVn16axr0sZRwzlH3o+GK5rmZTQqYmjgkbV09nZ5H7H781np2Glnu3LMfcfZb+Cp6EaQefpqlVfroLY3nOK382t/fxLYUEsTonljtyvYpGyNDm5FAAc10Qr+kD9ZH5fuywFc0kfrI/L92VG3f4TubfUKXRf3ehUNUfTXYd+J5aj6a7DvxMQQrojAL6bJq5LdHBUnsax1XxxeXWQTZ7LssMqsuEFv+3WWGzJJo6gGEXJwI1GZ5ZXvutvyUeojY5h7eAVtABvlRIAAi89rtMKVOU6jwhFNt8kYzfV4StFadWWcnilwWUY9iSLNp3pAqsvMUn6uL6bWUpLd1L69RTaFCderGlTWM5tRivu+SzfUX2zqbu294/AnyGf58FRbQqO27u25DzOX48VavJndPnK0rTJdCn0Yc5SW19kX+pGoEfct2QstCFGGUVte+UntlJ9bJAqaufvpS/dkOX5zVrSwdzEG79/P5ggAI6kIAAiAAIgACIAAiAAIgACIAAiAAIgACIZf5QNG3RqO00Y+qm/WJe7N+98svB9ZqB11aalFxkk4tNNPamnsaaJFNUOgf2h1Go+fNy4VNO2dnZPQ6FYXY7VKElKDalFpprNNGqaLaSwtcdSeEbQltjulh70f23FJ0v0TnZG6tHGVmb63Tx3PjHg+/i6/ZrQ4tOLaknimm00+Ke4vJooqyMOaeR04H2/6qSKWWkkLXDmNeI91vQKLo/pupJQtex5KqlsfzpZda8C60qkZxUotSi9qaaafU0UM0D4XWePYq9imZKLsK7StaTP1kflX1kWUrWk/9SPy/wCT/co9t/w3c2+oVjQ/3uhUHN9Ndh26x0ST1sTsxMX2VeHcvrEn7gvCOqqUtksXqvji8cOsruJ7bqsEqs9myKwxlw5LmT9mySx1AMQuThbUXF+WV77uKj1MbHRntmw1+eiuYB5Lwt9KhDXrTUY883ySzb6jeAEmwWeJAFyvWUPTDStYSoWeXKdReMYP6vu5RukumE66dOhjCjk370+vD2Vy/wDhTqlXgXNHs6xD5M9w9/bx0VRWbQFuzGeZ9vfw1StUNN0C0bdmh56tHC0TWyLzhHhyk83w2LiePQnQ903G0WpesW2nTfu8Jz/FwW7ryvx42hWh37UZw3nXhy115Z+qCjLT3sgx3DTjz0055AAVCtkAARAAEQABEAARAAEQABEAARAAEQABEAARAAEXxUgmmmk09jT2pp5poz7SfQR4urYlzlRbwx+RvL5X2PcaIDtBUSQuuw+xXGeBkzey8e4WAycoScZxcZrY4yTTT5p5EndV9V7M8aNRxW+OcX1xeztzNVvm4bPa1hXppyWU1smuqS+j2FEvbyfV6bbs01UjujLCM+r4X4dRdRV8Ew7MmHPJU0lDPCe0zHln4KWu3ygJ7LRSwfxU9q/JJ7O9kvUvexWuGCrRjJey5Ywaf92GJlFroVaEtWtTnCXCaa7m8z4jXPM+yaedpFsDpiPv5FeodqzROF8x0PzmFfqkdV4Yp84tNPqazR84lQu+9HSls2xea+6JmvfNJRxjLWe6O1PtMBtD9MVVPOGQNL2uyIGXB24czgRjqBraLbdNNEXyuDHDME+Y3m+gxvhvBM5ZKMZy6dSNOG+UpRj3Y5smK2k1hsy1Izxw92mnL9WWPaZXXtjnJyk8W/8AdnM6JWg1uzP01FSs+s3ecyPQb7Dpf0z9dt50zvoFm7r+p3X9Fe7z0+nLFWemor4pdKXWlkn3lPt1vnVk5VZynLjJ49i4Lkhd11Wq0v1FGcl8WGEPzvBFwubyc5StdT/1wb/VN/ZdpcXpqXQHxPv5gcVW/wDpqtSPAfOhKpdgsda0z83Qg5y34ZJcZSyius0rRXQ2nZcKtXCpaM0/ch8ieb/E+zAsdgsNKzwUKMIwgt0V4t73zZ6yrqtoPlHZZg3zPP2CsqagZEe07F3kOXuUABXqwQABEAARAAEQABEAARAAEQABEAARAAEQABEAARAAEQABEAARddWClskk09zSa7iEvHRWxVNsrPBPH3daH/BoA6Rvcw3abcl4exr8HC44rNtKrtpUG/NRcf7pv6tldT2gGppnEsF1lqkAPwV40buCzVsPO09bL3qi+jL5Y9HbJRwdOhBNZNrWl+aWLOQZ6tnky7R8StDRwxgX7IvyClQAQ1LQABEAARAAEQABEAARAAEQABEAARf/2Q==;" vertex="1" parent="1">
          <mxGeometry x="1000" y="25" width="58.01" height="30.5" as="geometry" />
        </mxCell>
        <mxCell id="BUz5Cs6KhjB94nJ8huxt-37" value="" style="aspect=fixed;html=1;points=[];align=center;image;fontSize=12;image=img/lib/azure2/databases/Azure_Cosmos_DB.svg;" vertex="1" parent="1">
          <mxGeometry x="682" y="664" width="64" height="64" as="geometry" />
        </mxCell>
        <mxCell id="BUz5Cs6KhjB94nJ8huxt-38" value="Azure Blob storage&lt;br&gt;&amp;nbsp;for archiv" style="verticalLabelPosition=bottom;html=1;verticalAlign=top;align=center;strokeColor=none;fillColor=#00BEF2;shape=mxgraph.azure.storage_blob;" vertex="1" parent="1">
          <mxGeometry x="687" y="818" width="50" height="45" as="geometry" />
        </mxCell>
        <mxCell id="BUz5Cs6KhjB94nJ8huxt-39" value="" style="verticalLabelPosition=bottom;html=1;verticalAlign=top;align=center;strokeColor=none;fillColor=#00BEF2;shape=mxgraph.azure.sql_database;" vertex="1" parent="1">
          <mxGeometry x="693.25" y="745" width="37.5" height="50" as="geometry" />
        </mxCell>
        <mxCell id="BUz5Cs6KhjB94nJ8huxt-42" value="" style="shape=curlyBracket;whiteSpace=wrap;html=1;rounded=1;flipH=1;" vertex="1" parent="1">
          <mxGeometry x="632" y="649" width="20" height="310" as="geometry" />
        </mxCell>
        <mxCell id="BUz5Cs6KhjB94nJ8huxt-44" value="" style="sketch=0;html=1;dashed=0;whitespace=wrap;fillColor=#2875E2;strokeColor=#ffffff;points=[[0.005,0.63,0],[0.1,0.2,0],[0.9,0.2,0],[0.5,0,0],[0.995,0.63,0],[0.72,0.99,0],[0.5,1,0],[0.28,0.99,0]];shape=mxgraph.kubernetes.icon;prIcon=api" vertex="1" parent="1">
          <mxGeometry x="696" y="926" width="50" height="48" as="geometry" />
        </mxCell>
      </root>
    </mxGraphModel>
  </diagram>
</mxfile>
